{"glyphs":{"0":{"ha":833,"x_min":89,"x_max":744,"o":"m 417 -17 q 89 485 89 -17 q 417 986 89 986 q 744 485 744 986 q 417 -17 744 -17 m 417 56 q 598 153 539 56 q 657 419 657 250 l 657 550 q 598 817 657 719 q 417 914 539 914 q 235 817 293 914 q 176 550 176 719 l 176 419 q 235 153 176 250 q 417 56 293 56 z "},"1":{"ha":833,"x_min":88,"x_max":758,"o":"m 125 0 l 125 74 l 408 74 l 408 908 l 401 908 l 135 671 l 88 724 l 364 969 l 492 969 l 492 74 l 758 74 l 758 0 l 125 0 z "},"2":{"ha":833,"x_min":106,"x_max":733,"o":"m 733 0 l 111 0 l 111 85 l 450 410 q 561 547 518 476 q 604 690 604 617 l 604 717 q 554 857 604 803 q 404 911 504 911 q 256 863 307 911 q 181 736 204 814 l 106 764 q 143 849 119 808 q 203 919 167 889 q 290 968 240 950 q 407 986 340 986 q 528 966 475 986 q 619 910 582 946 q 674 823 656 874 q 693 710 693 772 q 679 610 693 657 q 640 522 665 564 q 579 438 615 479 q 500 357 543 397 l 201 74 l 733 74 l 733 0 z "},"3":{"ha":833,"x_min":74,"x_max":693,"o":"m 372 544 q 528 594 472 544 q 585 722 585 643 l 585 740 q 531 867 585 822 q 392 911 476 911 q 256 877 307 911 q 175 785 206 843 l 113 829 q 154 888 129 860 q 213 939 179 917 q 292 974 247 961 q 393 986 336 986 q 504 969 453 986 q 593 922 556 953 q 652 845 631 890 q 674 743 674 800 q 619 589 674 644 q 485 514 565 533 l 485 508 q 565 483 528 501 q 631 433 603 464 q 676 360 660 403 q 693 263 693 317 q 671 148 693 200 q 608 60 649 96 q 509 3 567 24 q 381 -17 451 -17 q 192 28 264 -17 q 74 142 119 74 l 136 189 q 233 92 176 126 q 379 58 289 58 q 544 110 485 58 q 604 254 604 163 l 604 276 q 546 420 604 368 q 379 472 488 472 l 257 472 l 257 544 l 372 544 z "},"4":{"ha":833,"x_min":58,"x_max":769,"o":"m 540 0 l 540 203 l 58 203 l 58 276 l 500 969 l 619 969 l 619 272 l 769 272 l 769 203 l 619 203 l 619 0 l 540 0 m 136 272 l 540 272 l 540 899 l 536 899 l 136 272 z "},"5":{"ha":833,"x_min":111,"x_max":722,"o":"m 682 896 l 249 896 l 218 490 l 226 489 q 311 566 263 540 q 438 592 360 592 q 554 572 501 592 q 644 513 607 551 q 702 420 682 475 q 722 296 722 365 q 701 167 722 225 q 639 69 679 110 q 541 6 599 28 q 411 -17 483 -17 q 308 -5 354 -17 q 226 28 263 7 q 162 79 190 50 q 111 142 133 108 l 174 189 q 267 92 214 126 q 411 58 321 58 q 577 117 519 58 q 635 278 635 176 l 635 301 q 578 462 635 403 q 415 521 522 521 q 349 515 378 521 q 297 497 319 508 q 255 469 274 485 q 218 432 236 453 l 146 443 l 181 969 l 682 969 l 682 896 z "},"6":{"ha":833,"x_min":104,"x_max":728,"o":"m 418 -17 q 282 9 340 -17 q 184 81 224 35 q 124 194 144 128 q 104 339 104 260 q 135 548 104 451 q 217 724 167 644 q 331 865 267 803 q 463 969 396 926 l 572 969 q 429 858 492 914 q 319 741 367 803 q 241 608 272 679 q 192 453 210 538 l 197 451 q 292 555 233 517 q 439 593 351 593 q 556 572 503 593 q 648 513 610 551 q 707 420 686 475 q 728 297 728 365 q 706 169 728 226 q 643 70 683 111 q 546 6 603 29 q 418 -17 489 -17 m 417 56 q 582 116 522 56 q 642 278 642 176 l 642 301 q 583 463 642 403 q 417 522 524 522 q 249 463 308 522 q 190 301 190 403 l 190 279 q 250 116 190 176 q 417 56 310 56 z "},"7":{"ha":833,"x_min":100,"x_max":724,"o":"m 250 0 l 639 897 l 175 897 l 175 697 l 100 697 l 100 969 l 724 969 l 724 896 l 339 0 l 250 0 z "},"8":{"ha":833,"x_min":88,"x_max":746,"o":"m 417 -17 q 276 4 338 -17 q 173 61 215 25 q 109 148 131 97 q 88 258 88 199 q 143 422 88 360 q 292 504 199 483 l 292 514 q 166 596 213 536 q 119 743 119 656 q 198 920 119 854 q 417 986 276 986 q 635 920 557 986 q 714 743 714 854 q 667 596 714 656 q 542 514 621 536 l 542 504 q 690 422 635 483 q 746 258 746 360 q 724 148 746 199 q 660 61 703 97 q 557 4 618 25 q 417 -17 496 -17 m 417 56 q 593 108 529 56 q 657 249 657 160 l 657 281 q 593 422 657 371 q 417 474 529 474 q 240 422 304 474 q 176 281 176 371 l 176 249 q 240 108 176 160 q 417 56 304 56 m 417 544 q 572 590 517 544 q 628 717 628 635 l 628 742 q 572 868 628 822 q 417 914 517 914 q 261 868 317 914 q 206 742 206 822 l 206 717 q 261 590 206 635 q 417 544 317 544 z "},"9":{"ha":833,"x_min":106,"x_max":729,"o":"m 729 631 q 698 422 729 518 q 617 246 667 325 q 502 105 567 167 q 371 0 438 43 l 263 0 q 406 111 343 56 q 515 228 468 167 q 592 360 561 290 q 642 517 624 431 l 636 518 q 541 415 600 453 q 394 376 482 376 q 277 397 331 376 q 185 456 224 418 q 126 549 147 494 q 106 672 106 604 q 128 801 106 743 q 190 899 150 858 q 288 963 231 940 q 417 986 346 986 q 551 960 493 986 q 649 888 610 935 q 709 776 689 842 q 729 631 729 710 m 418 447 q 584 507 525 447 q 643 668 643 567 l 643 690 q 583 853 643 793 q 418 914 524 914 q 251 853 311 914 q 192 692 192 793 l 192 668 q 251 507 192 567 q 418 447 310 447 z "},"\u0000":{"ha":0,"x_min":0,"x_max":0,"o":""},"\r":{"ha":328,"x_min":0,"x_max":0,"o":""}," ":{"ha":328,"x_min":0,"x_max":0,"o":""},"a":{"ha":732,"x_min":71,"x_max":699,"o":"m 618 0 q 551 24 572 0 q 528 88 531 47 l 528 113 l 521 113 q 443 18 497 53 q 306 -17 389 -17 q 132 38 193 -17 q 71 193 71 93 q 138 343 71 288 q 360 399 206 399 l 524 399 l 524 482 q 342 658 524 658 q 224 628 271 658 q 147 543 176 599 l 97 585 q 187 688 126 647 q 344 728 247 728 q 536 665 469 728 q 603 490 603 603 l 603 69 l 699 69 l 699 0 l 618 0 m 317 51 q 397 63 360 51 q 463 94 435 74 q 508 142 492 114 q 524 207 524 171 l 524 339 l 357 339 q 202 305 250 339 q 154 211 154 271 l 154 178 q 199 83 154 115 q 317 51 243 51 z "},"b":{"ha":797,"x_min":129,"x_max":722,"o":"m 129 1028 l 208 1028 l 208 597 l 213 597 q 293 692 239 657 q 429 728 347 728 q 644 631 567 728 q 722 356 722 533 q 644 81 722 178 q 429 -17 567 -17 q 294 19 347 -17 q 213 114 242 54 l 208 114 l 208 0 l 129 0 l 129 1028 m 411 54 q 578 122 518 54 q 638 306 638 190 l 638 406 q 578 589 638 521 q 411 657 518 657 q 333 645 369 657 q 268 613 296 633 q 224 563 240 592 q 208 499 208 533 l 208 217 q 224 149 208 179 q 268 98 240 119 q 333 65 296 76 q 411 54 369 54 z "},"c":{"ha":689,"x_min":72,"x_max":642,"o":"m 379 -17 q 152 81 232 -17 q 72 356 72 178 q 152 631 72 533 q 379 728 232 728 q 539 685 478 728 q 632 571 600 642 l 565 538 q 495 626 540 596 q 379 657 450 657 q 214 588 271 657 q 157 406 157 518 l 157 306 q 214 124 157 193 q 379 54 271 54 q 503 86 453 54 q 583 178 553 118 l 642 139 q 542 26 607 68 q 379 -17 478 -17 z "},"d":{"ha":797,"x_min":75,"x_max":668,"o":"m 589 114 l 585 114 q 503 19 557 54 q 368 -17 450 -17 q 153 81 231 -17 q 75 356 75 178 q 153 631 75 533 q 368 728 231 728 q 504 692 450 728 q 585 597 558 657 l 589 597 l 589 1028 l 668 1028 l 668 0 l 589 0 l 589 114 m 386 54 q 465 65 428 54 q 529 98 501 76 q 573 149 557 119 q 589 217 589 179 l 589 499 q 573 563 589 533 q 529 613 557 592 q 465 645 501 633 q 386 657 428 657 q 219 589 279 657 q 160 406 160 521 l 160 306 q 219 122 160 190 q 386 54 279 54 z "},"e":{"ha":754,"x_min":72,"x_max":682,"o":"m 383 -17 q 255 8 313 -17 q 156 81 197 33 q 94 199 115 129 q 72 356 72 268 q 94 512 72 443 q 156 628 115 581 q 254 702 197 676 q 382 728 311 728 q 506 702 450 728 q 600 631 561 676 q 660 520 639 585 q 682 378 682 456 l 682 340 l 156 340 l 156 306 q 172 203 156 250 q 217 124 188 157 q 290 72 247 90 q 388 53 333 53 q 603 196 543 53 l 661 157 q 556 31 628 78 q 383 -17 485 -17 m 382 661 q 289 642 331 661 q 217 590 247 624 q 172 510 188 557 q 156 408 156 464 l 156 401 l 596 401 l 596 413 q 581 515 596 468 q 537 593 565 561 q 469 643 508 625 q 382 661 429 661 z "},"f":{"ha":429,"x_min":40,"x_max":399,"o":"m 163 642 l 40 642 l 40 711 l 163 711 l 163 910 q 190 996 163 964 q 274 1028 217 1028 l 399 1028 l 399 958 l 242 958 l 242 711 l 399 711 l 399 642 l 242 642 l 242 0 l 163 0 l 163 642 z "},"g":{"ha":735,"x_min":64,"x_max":713,"o":"m 713 -83 q 626 -243 713 -192 q 371 -294 539 -294 q 136 -247 208 -294 q 64 -117 64 -200 q 96 -19 64 -56 q 186 33 128 17 l 186 44 q 119 142 119 71 q 154 222 119 194 q 240 264 189 250 l 240 269 q 143 353 178 297 q 108 486 108 408 q 126 585 108 540 q 178 661 144 629 q 260 710 213 693 q 367 728 308 728 q 510 693 449 728 l 510 728 q 525 780 510 760 q 575 800 540 800 l 697 800 l 697 731 l 553 731 l 553 663 q 608 585 589 631 q 628 486 628 540 q 609 388 628 432 q 556 310 590 343 q 474 260 522 278 q 368 243 426 243 q 331 246 349 243 q 294 251 313 249 q 219 217 249 239 q 189 160 189 196 q 303 96 189 96 l 468 96 q 655 48 597 96 q 713 -83 713 0 m 636 -89 q 599 -8 636 -37 q 468 22 563 22 l 238 22 q 165 -24 192 7 q 139 -100 139 -54 q 185 -192 139 -156 q 324 -229 231 -229 l 413 -229 q 576 -195 517 -229 q 636 -89 636 -161 m 368 307 q 497 348 450 307 q 543 464 543 389 l 543 508 q 497 623 543 582 q 368 664 450 664 q 239 623 285 664 q 193 508 193 582 l 193 464 q 240 348 193 389 q 368 307 286 307 z "},"h":{"ha":782,"x_min":129,"x_max":663,"o":"m 129 1028 l 208 1028 l 208 599 l 213 599 q 286 691 236 654 q 422 728 336 728 q 599 658 536 728 q 663 457 663 588 l 663 0 l 583 0 l 583 443 q 537 604 583 551 q 401 657 490 657 q 329 647 364 657 q 267 618 294 638 q 224 569 240 599 q 208 500 208 539 l 208 0 l 129 0 l 129 1028 z "},"i":{"ha":338,"x_min":114,"x_max":222,"o":"m 168 904 q 127 918 140 904 q 114 954 114 932 l 114 968 q 127 1004 114 990 q 168 1018 140 1018 q 209 1004 196 1018 q 222 968 222 990 l 222 954 q 209 918 222 932 q 168 904 196 904 m 129 711 l 208 711 l 208 0 l 129 0 l 129 711 z "},"j":{"ha":338,"x_min":11,"x_max":222,"o":"m 129 711 l 208 711 l 208 -160 q 182 -246 208 -214 q 97 -278 156 -278 l 11 -278 l 11 -208 l 129 -208 l 129 711 m 168 904 q 127 918 140 904 q 114 954 114 932 l 114 968 q 127 1004 114 990 q 168 1018 140 1018 q 209 1004 196 1018 q 222 968 222 990 l 222 954 q 209 918 222 932 q 168 904 196 904 z "},"k":{"ha":713,"x_min":129,"x_max":688,"o":"m 129 1028 l 208 1028 l 208 349 l 213 349 l 324 467 l 560 711 l 657 711 l 378 422 l 688 0 l 590 0 l 321 372 l 208 258 l 208 0 l 129 0 l 129 1028 z "},"l":{"ha":367,"x_min":129,"x_max":318,"o":"m 217 0 q 151 24 174 0 q 129 86 129 47 l 129 1028 l 208 1028 l 208 69 l 318 69 l 318 0 l 217 0 z "},"m":{"ha":1217,"x_min":129,"x_max":1097,"o":"m 129 0 l 129 711 l 208 711 l 208 599 l 213 599 q 240 648 224 625 q 281 689 257 671 q 337 717 304 707 q 414 728 369 728 q 549 692 490 728 q 633 578 607 656 l 638 578 q 712 684 657 640 q 861 728 767 728 q 1036 658 975 728 q 1097 457 1097 588 l 1097 0 l 1018 0 l 1018 443 q 839 657 1018 657 q 768 647 801 657 q 709 617 735 638 q 668 567 683 597 q 653 499 653 538 l 653 0 l 574 0 l 574 443 q 396 657 574 657 q 326 647 360 657 q 265 618 292 638 q 224 569 239 599 q 208 500 208 539 l 208 0 l 129 0 z "},"n":{"ha":782,"x_min":129,"x_max":663,"o":"m 129 0 l 129 711 l 208 711 l 208 599 l 213 599 q 286 691 236 654 q 422 728 336 728 q 599 658 536 728 q 663 457 663 588 l 663 0 l 583 0 l 583 443 q 537 604 583 551 q 401 657 490 657 q 329 647 364 657 q 267 618 294 638 q 224 569 240 599 q 208 500 208 539 l 208 0 l 129 0 z "},"o":{"ha":764,"x_min":72,"x_max":692,"o":"m 382 -17 q 254 8 311 -17 q 157 81 197 33 q 94 199 117 129 q 72 356 72 268 q 94 512 72 443 q 157 628 117 581 q 254 702 197 676 q 382 728 311 728 q 510 702 453 728 q 607 628 567 676 q 669 512 647 581 q 692 356 692 443 q 669 199 692 268 q 607 81 647 129 q 510 8 567 33 q 382 -17 453 -17 m 382 54 q 547 119 486 54 q 607 311 607 185 l 607 400 q 547 591 607 525 q 382 657 486 657 q 217 592 278 657 q 157 400 157 526 l 157 311 q 217 120 157 186 q 382 54 278 54 z "},"p":{"ha":797,"x_min":129,"x_max":722,"o":"m 129 711 l 208 711 l 208 597 l 213 597 q 293 692 239 657 q 429 728 347 728 q 644 631 567 728 q 722 356 722 533 q 644 81 722 178 q 429 -17 567 -17 q 294 19 347 -17 q 213 114 242 54 l 208 114 l 208 -278 l 129 -278 l 129 711 m 411 54 q 578 122 518 54 q 638 306 638 190 l 638 406 q 578 589 638 521 q 411 657 518 657 q 333 645 369 657 q 268 613 296 633 q 224 563 240 592 q 208 499 208 533 l 208 217 q 224 149 208 179 q 268 98 240 119 q 333 65 296 76 q 411 54 369 54 z "},"q":{"ha":797,"x_min":75,"x_max":668,"o":"m 589 114 l 585 114 q 503 19 557 54 q 368 -17 450 -17 q 153 81 231 -17 q 75 356 75 178 q 153 631 75 533 q 368 728 231 728 q 504 692 450 728 q 585 597 558 657 l 589 597 l 589 711 l 668 711 l 668 -278 l 589 -278 l 589 114 m 386 54 q 465 65 428 54 q 529 98 501 76 q 573 149 557 119 q 589 217 589 179 l 589 499 q 573 563 589 533 q 529 613 557 592 q 465 645 501 633 q 386 657 428 657 q 219 589 279 657 q 160 406 160 521 l 160 306 q 219 122 160 190 q 386 54 279 54 z "},"r":{"ha":496,"x_min":129,"x_max":474,"o":"m 129 0 l 129 711 l 208 711 l 208 583 l 214 583 q 285 672 235 633 q 426 711 335 711 l 474 711 l 474 633 l 411 633 q 265 594 322 633 q 208 486 208 556 l 208 0 l 129 0 z "},"s":{"ha":663,"x_min":57,"x_max":583,"o":"m 331 -17 q 172 18 238 -17 q 57 119 106 53 l 115 165 q 213 79 160 107 q 336 51 265 51 q 463 86 418 51 q 507 186 507 121 q 473 276 507 243 q 361 319 439 308 l 303 329 q 214 350 254 336 q 145 388 174 364 q 101 445 117 411 q 85 528 85 479 q 103 615 85 578 q 154 678 122 653 q 231 715 186 703 q 326 728 275 728 q 472 697 415 728 q 569 618 529 667 l 517 569 q 442 631 489 603 q 322 660 396 660 q 203 626 246 660 q 161 532 161 593 q 199 442 161 469 q 314 401 238 414 l 371 393 q 531 328 479 376 q 583 194 583 281 q 516 39 583 94 q 331 -17 449 -17 z "},"t":{"ha":465,"x_min":40,"x_max":404,"o":"m 251 0 q 186 24 208 0 q 164 88 164 47 l 164 642 l 40 642 l 40 711 l 121 711 q 160 723 150 711 q 171 765 171 735 l 171 910 l 243 910 l 243 711 l 404 711 l 404 642 l 243 642 l 243 69 l 393 69 l 393 0 l 251 0 z "},"u":{"ha":782,"x_min":119,"x_max":653,"o":"m 574 113 l 568 113 q 542 64 558 88 q 500 23 525 40 q 441 -6 475 6 q 361 -17 407 -17 q 183 53 247 -17 q 119 254 119 124 l 119 711 l 199 711 l 199 269 q 246 107 199 160 q 382 54 293 54 q 453 64 419 54 q 515 93 488 74 q 558 142 542 113 q 574 213 574 172 l 574 711 l 653 711 l 653 0 l 574 0 l 574 113 z "},"v":{"ha":661,"x_min":29,"x_max":633,"o":"m 29 711 l 113 711 l 331 85 l 336 85 l 553 711 l 633 711 l 376 0 l 286 0 l 29 711 z "},"w":{"ha":1044,"x_min":46,"x_max":999,"o":"m 46 711 l 124 711 l 294 71 l 297 71 l 486 711 l 560 711 l 750 71 l 753 71 l 922 711 l 999 711 l 799 0 l 701 0 l 522 599 l 519 599 l 342 0 l 246 0 l 46 711 z "},"x":{"ha":685,"x_min":36,"x_max":649,"o":"m 36 0 l 300 358 l 46 711 l 139 711 l 342 421 l 346 421 l 553 711 l 642 711 l 389 364 l 649 0 l 556 0 l 346 300 l 343 300 l 125 0 l 36 0 z "},"y":{"ha":665,"x_min":31,"x_max":635,"o":"m 554 711 l 635 711 l 306 -200 q 265 -261 289 -244 q 188 -278 242 -278 l 107 -278 l 107 -208 l 226 -208 l 294 -21 l 31 711 l 114 711 l 332 85 l 338 85 l 554 711 z "},"z":{"ha":619,"x_min":43,"x_max":579,"o":"m 43 0 l 43 68 l 474 642 l 56 642 l 56 711 l 568 711 l 568 649 l 132 69 l 579 69 l 579 0 l 43 0 z "},"A":{"ha":868,"x_min":38,"x_max":832,"o":"m 744 0 l 639 301 l 226 301 l 121 0 l 38 0 l 381 969 l 488 969 l 832 0 l 744 0 m 435 890 l 429 890 l 247 374 l 617 374 l 435 890 z "},"B":{"ha":886,"x_min":138,"x_max":797,"o":"m 138 969 l 517 969 q 695 905 631 969 q 760 725 760 840 q 747 638 760 675 q 713 575 733 600 q 665 535 692 550 q 611 514 638 519 l 611 508 q 678 488 644 504 q 738 444 711 472 q 781 373 764 415 q 797 274 797 331 q 780 164 797 214 q 730 77 763 114 q 652 20 697 40 q 551 0 607 0 l 138 0 l 138 969 m 221 74 l 529 74 q 663 122 617 74 q 708 246 708 169 l 708 297 q 663 420 708 372 q 529 468 617 468 l 221 468 l 221 74 m 221 540 l 508 540 q 629 583 588 540 q 671 692 671 625 l 671 744 q 629 853 671 811 q 508 896 588 896 l 221 896 l 221 540 z "},"C":{"ha":857,"x_min":88,"x_max":793,"o":"m 465 -17 q 186 109 285 -17 q 88 482 88 235 q 186 857 88 728 q 465 986 285 986 q 662 931 582 986 q 786 779 742 875 l 718 739 q 622 865 686 818 q 465 911 557 911 q 253 814 329 911 q 176 536 176 717 l 176 426 q 253 153 176 247 q 465 58 329 58 q 628 108 563 58 q 725 240 693 157 l 793 200 q 667 42 750 100 q 465 -17 583 -17 z "},"D":{"ha":925,"x_min":138,"x_max":838,"o":"m 138 969 l 446 969 q 735 849 633 969 q 838 485 838 728 q 735 121 838 242 q 446 0 633 0 l 138 0 l 138 969 m 447 74 q 669 166 590 74 q 749 421 749 258 l 749 549 q 669 803 749 711 q 447 896 590 896 l 221 896 l 221 74 l 447 74 z "},"E":{"ha":797,"x_min":138,"x_max":704,"o":"m 138 0 l 138 969 l 704 969 l 704 896 l 221 896 l 221 529 l 681 529 l 681 456 l 221 456 l 221 74 l 704 74 l 704 0 l 138 0 z "},"F":{"ha":764,"x_min":138,"x_max":692,"o":"m 138 0 l 138 969 l 692 969 l 692 896 l 221 896 l 221 529 l 660 529 l 660 456 l 221 456 l 221 0 l 138 0 z "},"G":{"ha":950,"x_min":88,"x_max":846,"o":"m 768 149 l 764 149 q 665 28 738 74 q 479 -17 592 -17 q 317 15 389 -17 q 194 111 244 47 q 115 268 143 175 q 88 485 88 361 q 115 701 88 607 q 194 858 143 794 q 319 953 246 921 q 485 986 393 986 q 694 929 610 986 q 824 779 779 872 l 756 739 q 650 865 719 819 q 485 911 581 911 q 357 886 414 911 q 260 814 300 861 q 198 699 219 767 q 176 544 176 631 l 176 426 q 260 155 176 251 q 492 58 344 58 q 597 73 547 58 q 683 117 646 88 q 742 190 721 146 q 764 294 764 235 l 764 411 l 538 411 l 538 483 l 846 483 l 846 0 l 768 0 l 768 149 z "},"H":{"ha":974,"x_min":138,"x_max":836,"o":"m 753 456 l 221 456 l 221 0 l 138 0 l 138 969 l 221 969 l 221 529 l 753 529 l 753 969 l 836 969 l 836 0 l 753 0 l 753 456 z "},"I":{"ha":542,"x_min":88,"x_max":454,"o":"m 88 0 l 88 69 l 229 69 l 229 900 l 88 900 l 88 969 l 454 969 l 454 900 l 313 900 l 313 69 l 454 69 l 454 0 l 88 0 z "},"J":{"ha":685,"x_min":36,"x_max":554,"o":"m 554 969 l 554 253 q 483 53 554 124 q 292 -17 411 -17 q 122 39 189 -17 q 36 186 56 94 l 110 204 q 172 99 126 140 q 294 57 217 57 q 426 110 382 57 q 471 265 471 163 l 471 896 l 135 896 l 135 969 l 554 969 z "},"K":{"ha":847,"x_min":138,"x_max":818,"o":"m 378 500 l 221 326 l 221 0 l 138 0 l 138 969 l 221 969 l 221 424 l 224 424 l 379 603 l 699 969 l 800 969 l 435 557 l 818 0 l 715 0 l 378 500 z "},"L":{"ha":682,"x_min":138,"x_max":649,"o":"m 138 0 l 138 969 l 221 969 l 221 74 l 649 74 l 649 0 l 138 0 z "},"M":{"ha":1117,"x_min":138,"x_max":979,"o":"m 899 863 l 893 863 l 558 269 l 224 863 l 218 863 l 218 0 l 138 0 l 138 969 l 251 969 l 558 424 l 563 424 l 869 969 l 979 969 l 979 0 l 899 0 l 899 863 z "},"N":{"ha":974,"x_min":138,"x_max":836,"o":"m 222 856 l 218 856 l 218 0 l 138 0 l 138 969 l 242 969 l 751 114 l 756 114 l 756 969 l 836 969 l 836 0 l 732 0 l 222 856 z "},"O":{"ha":968,"x_min":88,"x_max":881,"o":"m 485 -17 q 193 110 299 -17 q 88 485 88 238 q 193 859 88 732 q 485 986 299 986 q 775 858 669 986 q 881 485 881 731 q 775 111 881 239 q 485 -17 669 -17 m 485 58 q 610 83 554 58 q 707 154 667 107 q 769 269 747 201 q 792 424 792 338 l 792 546 q 769 700 792 632 q 707 815 747 768 q 610 886 667 861 q 485 911 554 911 q 358 886 415 911 q 261 815 301 861 q 199 700 221 768 q 176 546 176 632 l 176 424 q 199 269 176 338 q 261 154 221 201 q 358 83 301 107 q 485 58 415 58 z "},"P":{"ha":835,"x_min":138,"x_max":778,"o":"m 138 0 l 138 969 l 518 969 q 711 897 644 969 q 778 699 778 824 q 711 499 778 572 q 518 426 644 426 l 221 426 l 221 0 l 138 0 m 221 500 l 518 500 q 645 547 601 500 q 689 665 689 593 l 689 732 q 645 849 689 803 q 518 896 601 896 l 221 896 l 221 500 z "},"Q":{"ha":968,"x_min":88,"x_max":881,"o":"m 678 -218 l 538 -218 q 473 -194 494 -218 q 451 -133 451 -171 l 451 -15 q 183 122 279 -4 q 88 485 88 249 q 193 859 88 732 q 485 986 299 986 q 775 858 669 986 q 881 485 881 731 q 788 127 881 253 q 531 -14 696 1 l 531 -147 l 678 -147 l 678 -218 m 485 58 q 610 83 554 58 q 707 154 667 107 q 769 269 747 201 q 792 424 792 338 l 792 546 q 769 700 792 632 q 707 815 747 768 q 610 886 667 861 q 485 911 554 911 q 358 886 415 911 q 261 815 301 861 q 199 700 221 768 q 176 546 176 632 l 176 424 q 199 269 176 338 q 261 154 221 201 q 358 83 301 107 q 485 58 415 58 z "},"R":{"ha":883,"x_min":138,"x_max":803,"o":"m 221 0 l 138 0 l 138 969 l 518 969 q 710 899 643 969 q 778 700 778 828 q 723 518 778 588 q 564 435 668 449 l 803 0 l 710 0 l 478 429 l 221 429 l 221 0 m 518 500 q 645 547 601 500 q 689 665 689 593 l 689 732 q 645 849 689 803 q 518 896 601 896 l 221 896 l 221 500 l 518 500 z "},"S":{"ha":789,"x_min":58,"x_max":713,"o":"m 394 -17 q 195 28 275 -17 q 58 149 115 74 l 121 200 q 237 94 172 132 q 397 57 301 57 q 570 110 510 57 q 631 260 631 164 q 579 390 631 349 q 435 451 528 432 l 349 469 q 147 563 210 497 q 85 729 85 628 q 107 841 85 793 q 170 921 129 889 q 269 969 211 953 q 396 986 326 986 q 579 947 504 986 q 703 838 654 908 l 640 792 q 540 881 600 850 q 392 913 479 913 q 227 867 288 913 q 167 732 167 822 q 221 606 167 646 q 365 547 275 565 l 451 529 q 654 431 596 497 q 713 264 713 364 q 628 57 713 131 q 394 -17 543 -17 z "},"T":{"ha":789,"x_min":28,"x_max":761,"o":"m 436 896 l 436 0 l 353 0 l 353 896 l 28 896 l 28 969 l 761 969 l 761 896 l 436 896 z "},"U":{"ha":928,"x_min":129,"x_max":799,"o":"m 213 969 l 213 371 q 225 231 213 290 q 267 134 238 172 q 344 77 296 96 q 464 58 393 58 q 583 77 535 58 q 660 134 631 96 q 703 231 690 172 q 715 371 715 290 l 715 969 l 799 969 l 799 389 q 781 206 799 282 q 723 80 763 129 q 619 7 683 31 q 461 -17 554 -17 q 304 7 368 -17 q 201 80 240 31 q 146 206 163 129 q 129 389 129 282 l 129 969 l 213 969 z "},"V":{"ha":825,"x_min":33,"x_max":792,"o":"m 358 0 l 33 969 l 124 969 l 410 85 l 415 85 l 704 969 l 792 969 l 464 0 l 358 0 z "},"W":{"ha":1228,"x_min":33,"x_max":1194,"o":"m 278 0 l 33 969 l 122 969 l 329 103 l 333 103 l 563 969 l 664 969 l 890 103 l 894 103 l 1108 969 l 1194 969 l 942 0 l 844 0 l 613 876 l 610 876 l 375 0 l 278 0 z "},"X":{"ha":822,"x_min":36,"x_max":786,"o":"m 786 0 l 686 0 l 411 429 l 408 429 l 132 0 l 36 0 l 357 493 l 46 969 l 144 969 l 410 560 l 413 560 l 681 969 l 776 969 l 463 497 l 786 0 z "},"Y":{"ha":799,"x_min":22,"x_max":776,"o":"m 357 0 l 357 393 l 22 969 l 117 969 l 397 481 l 401 481 l 682 969 l 776 969 l 440 397 l 440 0 l 357 0 z "},"Z":{"ha":792,"x_min":51,"x_max":746,"o":"m 746 0 l 51 0 l 51 76 l 633 896 l 82 896 l 82 969 l 724 969 l 724 893 l 140 74 l 746 74 l 746 0 z "},"&":{"ha":954,"x_min":99,"x_max":913,"o":"m 683 132 q 639 79 665 106 q 576 31 613 53 q 492 -3 539 10 q 389 -17 446 -17 q 266 3 319 -17 q 175 57 213 22 q 118 140 138 92 q 99 243 99 188 q 117 341 99 299 q 164 416 135 383 q 231 474 193 449 q 311 521 269 500 q 224 638 256 582 q 192 760 192 693 q 209 850 192 808 q 258 922 226 892 q 335 969 290 951 q 436 986 381 986 q 530 971 488 986 q 602 928 572 956 q 649 865 632 901 q 665 783 665 828 q 647 696 665 735 q 596 624 628 657 q 519 564 564 592 q 424 510 475 536 l 675 249 q 708 367 697 303 q 721 501 718 432 l 894 501 l 894 432 l 786 432 q 725 196 774 300 l 913 0 l 810 0 l 683 132 m 432 919 q 315 876 358 919 q 271 771 271 833 l 271 751 q 301 655 271 703 q 379 556 332 607 q 459 599 421 576 q 526 649 497 622 q 571 703 554 675 q 588 765 588 732 l 588 783 q 575 841 588 815 q 541 884 563 867 q 491 910 519 901 q 432 919 463 919 m 182 235 q 240 103 182 151 q 394 54 299 54 q 539 88 479 54 q 638 181 599 121 l 354 475 q 288 438 319 457 q 233 393 257 418 q 196 335 210 368 q 182 258 182 303 l 182 235 z "},"@":{"ha":1232,"x_min":93,"x_max":1139,"o":"m 942 -168 l 617 -168 q 406 -128 501 -168 q 240 -14 310 -89 q 132 167 171 61 q 93 407 93 274 q 132 644 93 538 q 242 826 171 750 q 410 943 313 901 q 626 985 508 985 q 819 953 726 985 q 983 856 913 922 q 1097 690 1054 790 q 1139 453 1139 590 q 1126 315 1139 379 q 1087 201 1114 250 q 1017 124 1060 153 q 914 96 974 96 q 819 128 853 96 q 778 211 785 160 l 774 211 q 706 129 749 163 q 594 96 664 96 q 499 115 543 96 q 423 172 456 133 q 372 267 390 210 q 354 400 354 324 q 372 534 354 476 q 423 631 390 592 q 499 688 456 669 q 594 707 543 707 q 704 675 664 707 q 764 600 744 643 l 769 600 l 769 692 l 839 692 l 839 254 q 861 180 839 203 q 925 157 883 157 q 1033 229 994 157 q 1071 428 1071 301 l 1071 492 q 1037 669 1071 589 q 942 806 1003 749 q 801 893 882 863 q 625 924 719 924 q 438 888 524 924 q 292 788 353 851 q 196 637 231 724 q 161 449 161 550 l 161 371 q 195 177 161 265 q 290 26 229 89 q 434 -72 350 -37 q 618 -107 518 -107 l 942 -107 l 942 -168 m 607 163 q 726 202 682 163 q 769 311 769 242 l 769 496 q 726 600 769 560 q 607 640 682 640 q 479 588 521 640 q 438 444 438 536 l 438 356 q 479 215 438 268 q 607 163 521 163 z "},"-":{"ha":551,"x_min":103,"x_max":449,"o":"m 103 381 l 103 465 l 449 465 l 449 381 l 103 381 z "},"­":{"ha":551,"x_min":103,"x_max":449,"o":"m 103 381 l 103 465 l 449 465 l 449 381 l 103 381 z "},"–":{"ha":817,"x_min":50,"x_max":767,"o":"m 50 386 l 50 460 l 767 460 l 767 386 l 50 386 z "},"—":{"ha":1083,"x_min":50,"x_max":1033,"o":"m 50 386 l 50 460 l 1033 460 l 1033 386 l 50 386 z "},"_":{"ha":788,"x_min":42,"x_max":746,"o":"m 42 -217 l 42 -147 l 746 -147 l 746 -217 l 42 -217 z "},".":{"ha":361,"x_min":114,"x_max":247,"o":"m 181 -12 q 130 5 146 -12 q 114 50 114 22 l 114 65 q 130 110 114 93 q 181 128 146 128 q 231 110 214 128 q 247 65 247 93 l 247 50 q 231 5 247 22 q 181 -12 214 -12 z "},"…":{"ha":1083,"x_min":114,"x_max":969,"o":"m 181 -12 q 130 5 146 -12 q 114 50 114 22 l 114 65 q 130 110 114 93 q 181 128 146 128 q 231 110 214 128 q 247 65 247 93 l 247 50 q 231 5 247 22 q 181 -12 214 -12 m 542 -12 q 491 5 507 -12 q 475 50 475 22 l 475 65 q 491 110 475 93 q 542 128 507 128 q 592 110 575 128 q 608 65 608 93 l 608 50 q 592 5 608 22 q 542 -12 575 -12 m 903 -12 q 852 5 868 -12 q 836 50 836 22 l 836 65 q 852 110 836 93 q 903 128 868 128 q 953 110 936 128 q 969 65 969 93 l 969 50 q 953 5 969 22 q 903 -12 936 -12 z "},":":{"ha":389,"x_min":128,"x_max":261,"o":"m 194 -12 q 144 5 160 -12 q 128 50 128 22 l 128 65 q 144 110 128 93 q 194 128 160 128 q 244 110 228 128 q 261 65 261 93 l 261 50 q 244 5 261 22 q 194 -12 228 -12 m 194 583 q 144 601 160 583 q 128 646 128 618 l 128 661 q 144 706 128 689 q 194 724 160 724 q 244 706 228 724 q 261 661 261 689 l 261 646 q 244 601 261 618 q 194 583 228 583 z "},",":{"ha":361,"x_min":61,"x_max":247,"o":"m 181 128 q 231 110 215 128 q 247 64 247 92 l 247 46 q 215 -78 247 -12 q 128 -192 182 -144 l 61 -192 q 131 -100 107 -144 q 164 -10 156 -56 q 125 9 136 -7 q 114 47 114 25 l 114 64 q 130 110 114 92 q 181 128 146 128 z "},";":{"ha":389,"x_min":75,"x_max":261,"o":"m 194 128 q 245 110 229 128 q 261 64 261 92 l 261 46 q 228 -78 261 -12 q 142 -192 196 -144 l 75 -192 q 145 -100 121 -144 q 178 -10 169 -56 q 139 9 150 -7 q 128 47 128 25 l 128 64 q 144 110 128 92 q 194 128 160 128 m 194 583 q 144 601 160 583 q 128 646 128 618 l 128 661 q 144 706 128 689 q 194 724 160 724 q 244 706 228 724 q 261 661 261 689 l 261 646 q 244 601 261 618 q 194 583 228 583 z "},"'":{"ha":322,"x_min":125,"x_max":197,"o":"m 125 656 l 125 1028 l 197 1028 l 197 656 l 125 656 z "},"\"":{"ha":556,"x_min":125,"x_max":431,"o":"m 125 656 l 125 1028 l 197 1028 l 197 656 l 125 656 m 358 656 l 358 1028 l 431 1028 l 431 656 l 358 656 z "},"‘":{"ha":361,"x_min":108,"x_max":294,"o":"m 174 708 q 124 726 140 708 q 108 772 108 743 l 108 790 q 117 850 108 818 q 141 914 125 882 q 178 975 157 946 q 228 1028 200 1004 l 294 1028 q 224 935 249 981 q 190 846 200 890 q 230 826 218 842 q 242 789 242 811 l 242 772 q 226 726 242 743 q 174 708 210 708 z "},"’":{"ha":361,"x_min":67,"x_max":253,"o":"m 186 1042 q 237 1024 221 1042 q 253 978 253 1006 l 253 960 q 220 835 253 901 q 133 722 188 769 l 67 722 q 137 814 113 769 q 169 904 161 858 q 131 923 143 907 q 119 961 119 939 l 119 978 q 135 1024 119 1006 q 186 1042 151 1042 z "},"“":{"ha":619,"x_min":108,"x_max":553,"o":"m 174 708 q 124 726 140 708 q 108 772 108 743 l 108 790 q 117 850 108 818 q 141 914 125 882 q 178 975 157 946 q 228 1028 200 1004 l 294 1028 q 224 935 249 981 q 190 846 200 890 q 230 826 218 842 q 242 789 242 811 l 242 772 q 226 726 242 743 q 174 708 210 708 m 432 708 q 383 726 399 708 q 367 772 367 743 l 367 790 q 375 850 367 818 q 399 914 383 882 q 437 975 415 946 q 486 1028 458 1004 l 553 1028 q 483 935 507 981 q 449 846 458 890 q 488 826 476 842 q 500 789 500 811 l 500 772 q 484 726 500 743 q 432 708 468 708 z "},"”":{"ha":618,"x_min":67,"x_max":510,"o":"m 186 1042 q 237 1024 221 1042 q 253 978 253 1006 l 253 960 q 220 835 253 901 q 133 722 188 769 l 67 722 q 137 814 113 769 q 169 904 161 858 q 131 923 143 907 q 119 961 119 939 l 119 978 q 135 1024 119 1006 q 186 1042 151 1042 m 443 1042 q 494 1024 478 1042 q 510 978 510 1006 l 510 960 q 477 835 510 901 q 390 722 444 769 l 324 722 q 394 814 369 769 q 426 904 418 858 q 388 923 400 907 q 376 961 376 939 l 376 978 q 392 1024 376 1006 q 443 1042 408 1042 z "},"‚":{"ha":361,"x_min":58,"x_max":244,"o":"m 178 149 q 228 131 213 149 q 244 85 244 113 l 244 67 q 212 -58 244 8 q 125 -171 179 -124 l 58 -171 q 128 -79 104 -124 q 161 11 153 -35 q 123 30 135 14 q 111 68 111 46 l 111 85 q 127 131 111 113 q 178 149 143 149 z "},"„":{"ha":618,"x_min":58,"x_max":501,"o":"m 178 149 q 228 131 213 149 q 244 85 244 113 l 244 67 q 212 -58 244 8 q 125 -171 179 -124 l 58 -171 q 128 -79 104 -124 q 161 11 153 -35 q 123 30 135 14 q 111 68 111 46 l 111 85 q 127 131 111 113 q 178 149 143 149 m 435 149 q 485 131 469 149 q 501 85 501 113 l 501 67 q 469 -58 501 8 q 382 -171 436 -124 l 315 -171 q 385 -79 361 -124 q 418 11 410 -35 q 380 30 392 14 q 368 68 368 46 l 368 85 q 384 131 368 113 q 435 149 400 149 z "},"‹":{"ha":415,"x_min":49,"x_max":344,"o":"m 319 125 l 49 363 l 49 438 l 319 675 l 344 621 l 128 400 l 344 179 l 319 125 z "},"›":{"ha":415,"x_min":71,"x_max":367,"o":"m 71 179 l 288 400 l 71 621 l 96 675 l 367 438 l 367 363 l 96 125 l 71 179 z "},"«":{"ha":690,"x_min":49,"x_max":619,"o":"m 319 125 l 49 363 l 49 438 l 319 675 l 344 621 l 128 400 l 344 179 l 319 125 m 594 125 l 324 363 l 324 438 l 594 675 l 619 621 l 403 400 l 619 179 l 594 125 z "},"»":{"ha":690,"x_min":71,"x_max":642,"o":"m 71 179 l 288 400 l 71 621 l 96 675 l 367 438 l 367 363 l 96 125 l 71 179 m 346 179 l 563 400 l 346 621 l 371 675 l 642 438 l 642 363 l 371 125 l 346 179 z "},"¡":{"ha":378,"x_min":122,"x_max":256,"o":"m 144 -257 l 144 68 l 168 460 l 208 460 l 231 68 l 231 -257 l 144 -257 m 189 583 q 138 601 154 583 q 122 646 122 618 l 122 661 q 138 706 122 689 q 189 724 154 724 q 239 706 222 724 q 256 661 256 689 l 256 646 q 239 601 256 618 q 189 583 222 583 z "},"!":{"ha":378,"x_min":122,"x_max":256,"o":"m 168 251 l 146 644 l 146 969 l 232 969 l 232 644 l 208 251 l 168 251 m 189 -12 q 138 5 154 -12 q 122 50 122 22 l 122 65 q 138 110 122 93 q 189 128 154 128 q 239 110 222 128 q 256 65 256 93 l 256 50 q 239 5 256 22 q 189 -12 222 -12 z "},"¿":{"ha":643,"x_min":50,"x_max":611,"o":"m 321 -275 q 122 -206 194 -275 q 50 -18 50 -136 q 71 95 50 46 q 128 179 92 144 q 213 235 165 214 q 315 264 261 256 l 315 439 l 392 439 l 392 207 q 203 147 269 203 q 136 -1 136 92 l 136 -28 q 186 -155 136 -107 q 324 -203 236 -203 q 465 -156 413 -203 q 538 -29 518 -108 l 611 -56 q 574 -143 599 -103 q 515 -212 550 -183 q 431 -258 479 -242 q 321 -275 382 -275 m 356 583 q 305 601 321 583 q 289 646 289 618 l 289 661 q 305 706 289 689 q 356 724 321 724 q 406 706 389 724 q 422 661 422 689 l 422 646 q 406 601 422 618 q 356 583 389 583 z "},"?":{"ha":651,"x_min":39,"x_max":601,"o":"m 258 272 l 258 504 q 448 564 381 508 q 515 713 515 619 l 515 739 q 465 866 515 818 q 328 914 415 914 q 185 867 238 914 q 113 740 133 819 l 39 767 q 77 854 53 814 q 137 924 101 894 q 221 969 172 953 q 331 986 269 986 q 529 917 457 986 q 601 729 601 847 q 581 616 601 665 q 523 531 560 567 q 438 475 486 496 q 336 446 390 454 l 336 272 l 258 272 m 297 -12 q 248 4 264 -12 q 232 50 232 21 l 232 65 q 248 111 232 94 q 297 128 264 128 q 348 111 332 128 q 364 65 364 94 l 364 50 q 348 4 364 21 q 297 -12 332 -12 z "},"(":{"ha":464,"x_min":128,"x_max":458,"o":"m 128 433 q 148 629 128 536 q 203 802 168 722 q 283 947 238 882 q 381 1056 329 1011 l 458 1056 q 356 940 403 1006 q 276 799 310 875 q 222 642 242 724 q 203 478 203 560 l 203 386 q 222 222 203 304 q 276 65 242 140 q 358 -77 311 -11 q 458 -190 404 -143 l 381 -190 q 285 -83 331 -147 q 204 62 239 -18 q 149 235 169 142 q 128 433 128 329 z "},")":{"ha":464,"x_min":6,"x_max":336,"o":"m 336 433 q 315 235 336 329 q 260 62 294 142 q 179 -83 225 -18 q 83 -190 133 -147 l 6 -190 q 106 -77 60 -143 q 188 65 153 -11 q 242 222 222 140 q 261 386 261 304 l 261 478 q 242 642 261 560 q 188 799 222 724 q 108 940 154 875 q 6 1056 61 1006 l 83 1056 q 181 947 135 1011 q 261 802 226 882 q 316 629 296 722 q 336 433 336 536 z "},"[":{"ha":432,"x_min":138,"x_max":343,"o":"m 138 -192 l 138 1056 l 343 1056 l 343 993 l 207 993 l 207 -129 l 343 -129 l 343 -192 l 138 -192 z "},"]":{"ha":432,"x_min":89,"x_max":294,"o":"m 294 1056 l 294 -192 l 89 -192 l 89 -129 l 225 -129 l 225 993 l 89 993 l 89 1056 l 294 1056 z "},"{":{"ha":461,"x_min":32,"x_max":374,"o":"m 249 -192 q 188 -168 208 -192 q 167 -108 167 -144 l 167 265 q 130 356 167 326 q 32 386 93 386 l 32 478 q 130 508 93 478 q 167 599 167 538 l 167 972 q 188 1032 167 1008 q 249 1056 208 1056 l 374 1056 l 374 993 l 236 993 l 236 607 q 199 495 236 540 q 103 443 163 450 l 103 421 q 199 369 163 414 q 236 257 236 324 l 236 -129 l 374 -129 l 374 -192 l 249 -192 z "},"}":{"ha":461,"x_min":88,"x_max":429,"o":"m 213 1056 q 274 1032 253 1056 q 294 972 294 1008 l 294 599 q 331 508 294 538 q 429 478 368 478 l 429 386 q 331 356 368 386 q 294 265 294 326 l 294 -108 q 274 -168 294 -144 q 213 -192 253 -192 l 88 -192 l 88 -129 l 225 -129 l 225 257 q 262 369 225 324 q 360 421 299 414 l 360 443 q 262 495 299 450 q 225 607 225 540 l 225 993 l 88 993 l 88 1056 l 213 1056 z "},"/":{"ha":494,"x_min":15,"x_max":436,"o":"m 15 -210 l 365 1028 l 436 1028 l 86 -210 l 15 -210 z "},"\\":{"ha":494,"x_min":56,"x_max":474,"o":"m 401 -210 l 56 1028 l 128 1028 l 474 -210 l 401 -210 z "},"⁄":{"ha":204,"x_min":-258,"x_max":464,"o":"m -258 0 l 396 969 l 464 969 l -190 0 l -258 0 z "},"∕":{"ha":204,"x_min":-258,"x_max":464,"o":"m -258 0 l 396 969 l 464 969 l -190 0 l -258 0 z "},"%":{"ha":1261,"x_min":96,"x_max":1165,"o":"m 257 0 l 929 969 l 1007 969 l 335 0 l 257 0 m 307 443 q 153 510 211 443 q 96 714 96 576 q 153 919 96 853 q 307 986 211 986 q 460 919 403 986 q 518 714 518 853 q 460 510 518 576 q 307 443 403 443 m 307 496 q 408 540 369 496 q 446 681 446 585 l 446 749 q 408 889 446 844 q 307 933 369 933 q 206 889 244 933 q 168 749 168 844 l 168 681 q 206 540 168 585 q 307 496 244 496 m 954 -17 q 801 50 858 -17 q 743 254 743 117 q 801 460 743 393 q 954 526 858 526 q 1108 460 1050 526 q 1165 254 1165 393 q 1108 50 1165 117 q 954 -17 1050 -17 m 954 36 q 1055 81 1017 36 q 1093 221 1093 125 l 1093 289 q 1055 429 1093 385 q 954 474 1017 474 q 853 429 892 474 q 815 289 815 385 l 815 221 q 853 81 815 125 q 954 36 892 36 z "},"‰":{"ha":1776,"x_min":96,"x_max":1681,"o":"m 257 0 l 929 969 l 1007 969 l 335 0 l 257 0 m 307 443 q 153 510 211 443 q 96 714 96 576 q 153 919 96 853 q 307 986 211 986 q 460 919 403 986 q 518 714 518 853 q 460 510 518 576 q 307 443 403 443 m 307 496 q 408 540 369 496 q 446 681 446 585 l 446 749 q 408 889 446 844 q 307 933 369 933 q 206 889 244 933 q 168 749 168 844 l 168 681 q 206 540 168 585 q 307 496 244 496 m 954 -17 q 801 50 858 -17 q 743 254 743 117 q 801 460 743 393 q 954 526 858 526 q 1108 460 1050 526 q 1165 254 1165 393 q 1108 50 1165 117 q 954 -17 1050 -17 m 954 36 q 1055 81 1017 36 q 1093 221 1093 125 l 1093 289 q 1055 429 1093 385 q 954 474 1017 474 q 853 429 892 474 q 815 289 815 385 l 815 221 q 853 81 815 125 q 954 36 892 36 m 1469 -17 q 1316 50 1374 -17 q 1258 254 1258 117 q 1316 460 1258 393 q 1469 526 1374 526 q 1623 460 1565 526 q 1681 254 1681 393 q 1623 50 1681 117 q 1469 -17 1565 -17 m 1469 36 q 1570 81 1532 36 q 1608 221 1608 125 l 1608 289 q 1570 429 1608 385 q 1469 474 1532 474 q 1369 429 1407 474 q 1331 289 1331 385 l 1331 221 q 1369 81 1331 125 q 1469 36 1407 36 z "},"|":{"ha":396,"x_min":164,"x_max":232,"o":"m 164 -192 l 164 1056 l 232 1056 l 232 -192 l 164 -192 z "},"¦":{"ha":396,"x_min":164,"x_max":232,"o":"m 164 561 l 164 1056 l 232 1056 l 232 561 l 164 561 m 164 -192 l 164 303 l 232 303 l 232 -192 l 164 -192 z "},"§":{"ha":803,"x_min":111,"x_max":692,"o":"m 614 363 q 572 470 614 431 q 443 535 531 510 l 354 561 q 328 569 340 564 q 303 579 315 574 q 219 508 250 550 q 189 408 189 467 q 231 301 189 340 q 358 236 272 261 l 447 211 q 474 202 461 207 q 499 192 486 197 q 583 263 551 222 q 614 363 614 304 m 642 -4 q 622 -94 642 -54 q 568 -160 603 -133 q 485 -201 533 -187 q 381 -215 438 -215 q 255 -195 311 -215 q 156 -137 199 -175 l 201 -82 q 278 -128 235 -110 q 382 -146 322 -146 q 516 -109 468 -146 q 564 -6 564 -72 q 520 92 564 58 q 408 147 476 126 l 318 175 q 163 258 214 207 q 111 390 111 310 q 151 513 111 461 q 263 592 192 564 l 263 600 q 188 674 215 631 q 160 776 160 717 q 179 865 160 826 q 233 931 199 904 q 316 972 268 958 q 421 986 364 986 q 646 908 560 986 l 600 853 q 523 899 567 882 q 419 917 479 917 q 285 880 333 917 q 238 776 238 843 q 281 679 238 713 q 393 625 325 646 l 482 597 q 640 513 588 564 q 692 382 692 461 q 651 258 692 310 q 539 179 610 207 l 539 172 q 615 98 588 142 q 642 -4 642 54 z "},"¶":{"ha":872,"x_min":72,"x_max":750,"o":"m 344 433 q 238 453 288 433 q 152 509 189 474 q 94 594 115 544 q 72 701 72 643 q 94 808 72 760 q 152 893 115 857 q 238 949 189 929 q 344 969 288 969 l 750 969 l 750 903 l 656 903 l 656 -207 l 582 -207 l 582 903 l 418 903 l 418 -207 l 344 -207 l 344 433 z "},"©":{"ha":1039,"x_min":63,"x_max":976,"o":"m 519 -15 q 338 19 421 -15 q 193 119 254 54 q 97 277 132 185 q 63 485 63 369 q 97 692 63 600 q 193 850 132 785 q 338 950 254 915 q 519 985 421 985 q 701 950 617 985 q 846 850 785 915 q 942 692 907 785 q 976 485 976 600 q 942 277 976 369 q 846 119 907 185 q 701 19 785 54 q 519 -15 617 -15 m 519 44 q 677 75 606 44 q 799 160 749 106 q 878 288 850 214 q 907 447 907 361 l 907 522 q 878 682 907 608 q 799 810 850 756 q 677 894 749 864 q 519 925 606 925 q 362 894 433 925 q 240 810 290 864 q 160 682 189 756 q 132 522 132 608 l 132 447 q 160 288 132 361 q 240 160 189 214 q 362 75 290 106 q 519 44 433 44 m 524 213 q 363 284 421 213 q 304 483 304 356 q 363 683 304 611 q 525 754 421 754 q 639 722 594 754 q 704 636 683 689 l 647 607 q 602 669 632 647 q 525 692 572 692 q 417 645 456 692 q 379 515 379 599 l 379 450 q 417 321 379 367 q 525 275 456 275 q 605 299 574 275 q 657 363 636 322 l 713 331 q 642 246 689 279 q 524 213 594 213 z "},"®":{"ha":656,"x_min":53,"x_max":603,"o":"m 328 414 q 219 435 269 414 q 133 495 169 457 q 74 585 96 533 q 53 700 53 638 q 74 815 53 763 q 133 905 96 867 q 219 965 169 943 q 328 986 269 986 q 436 965 386 986 q 523 905 486 943 q 581 815 560 867 q 603 700 603 763 q 581 585 603 638 q 523 495 560 533 q 436 435 486 457 q 328 414 386 414 m 328 457 q 419 475 378 457 q 492 524 461 493 q 539 597 522 556 q 556 685 556 639 l 556 715 q 539 803 556 761 q 492 876 522 844 q 419 925 461 907 q 328 943 378 943 q 236 925 278 943 q 164 876 194 907 q 117 803 133 844 q 100 715 100 761 l 100 685 q 117 597 100 639 q 164 524 133 556 q 236 475 194 493 q 328 457 278 457 m 272 550 l 229 550 l 229 843 l 349 843 q 414 820 390 843 q 438 756 438 797 q 421 699 438 719 q 379 672 404 679 l 449 550 l 401 550 l 336 668 l 272 668 l 272 550 m 347 703 q 392 743 392 703 l 392 765 q 347 807 392 807 l 272 807 l 272 703 l 347 703 z "},"™":{"ha":903,"x_min":39,"x_max":785,"o":"m 174 588 l 174 922 l 39 922 l 39 969 l 358 969 l 358 922 l 226 922 l 226 588 l 174 588 m 442 588 l 442 969 l 507 969 l 613 765 l 617 765 l 722 969 l 785 969 l 785 588 l 738 588 l 738 893 l 733 893 l 614 668 l 494 893 l 490 893 l 490 588 l 442 588 z "},"ª":{"ha":529,"x_min":56,"x_max":483,"o":"m 428 494 q 367 550 367 494 l 367 565 l 361 565 q 309 510 346 535 q 207 486 272 486 q 94 522 133 486 q 56 617 56 558 q 250 756 56 756 l 363 756 l 363 810 q 333 896 363 868 q 246 924 303 924 q 165 904 199 924 q 115 849 131 885 l 71 882 q 134 949 90 921 q 249 978 178 978 q 379 935 332 978 q 426 814 426 893 l 426 551 l 483 551 l 483 494 l 428 494 m 219 538 q 273 544 247 538 q 319 564 299 551 q 351 595 339 576 q 363 639 363 614 l 363 707 l 249 707 q 121 631 121 707 l 121 615 q 147 557 121 576 q 219 538 172 538 z "},"º":{"ha":536,"x_min":63,"x_max":474,"o":"m 268 486 q 117 552 171 486 q 63 732 63 618 q 117 912 63 846 q 268 978 171 978 q 419 912 365 978 q 474 732 474 846 q 419 552 474 618 q 268 486 365 486 m 268 540 q 371 585 336 540 q 406 696 406 629 l 406 768 q 371 879 406 835 q 268 924 336 924 q 165 879 200 924 q 131 768 131 835 l 131 696 q 165 585 131 629 q 268 540 200 540 z "},"°":{"ha":647,"x_min":93,"x_max":554,"o":"m 324 514 q 232 532 274 514 q 159 582 190 550 q 110 657 128 614 q 93 750 93 700 q 110 843 93 800 q 159 918 128 886 q 232 968 190 950 q 324 986 274 986 q 415 968 374 986 q 488 918 457 950 q 537 843 519 886 q 554 750 554 800 q 537 657 554 700 q 488 582 519 614 q 415 532 457 550 q 324 514 374 514 m 324 578 q 390 592 361 578 q 440 628 419 606 q 472 683 461 651 q 483 750 483 714 q 472 817 483 785 q 440 872 461 849 q 390 908 419 894 q 324 922 361 922 q 257 908 286 922 q 207 872 228 894 q 175 817 186 849 q 164 750 164 785 q 175 683 164 714 q 207 628 186 651 q 257 592 228 606 q 324 578 286 578 z "},"*":{"ha":578,"x_min":40,"x_max":538,"o":"m 169 565 l 114 606 l 242 774 l 40 831 l 61 899 l 260 828 l 254 1038 l 324 1038 l 318 828 l 515 899 l 538 831 l 336 774 l 464 606 l 408 565 l 289 739 l 169 565 z "},"†":{"ha":774,"x_min":75,"x_max":699,"o":"m 351 -278 l 351 647 l 75 647 l 75 711 l 351 711 l 351 1028 l 422 1028 l 422 711 l 699 711 l 699 647 l 422 647 l 422 -278 l 351 -278 z "},"‡":{"ha":774,"x_min":75,"x_max":699,"o":"m 351 -278 l 351 39 l 75 39 l 75 103 l 351 103 l 351 647 l 75 647 l 75 711 l 351 711 l 351 1028 l 422 1028 l 422 711 l 699 711 l 699 647 l 422 647 l 422 103 l 699 103 l 699 39 l 422 39 l 422 -278 l 351 -278 z "},"#":{"ha":990,"x_min":92,"x_max":899,"o":"m 578 293 l 347 293 l 296 0 l 231 0 l 281 293 l 92 293 l 92 354 l 292 354 l 336 615 l 146 615 l 146 676 l 347 676 l 397 969 l 463 969 l 413 676 l 643 676 l 693 969 l 760 969 l 708 676 l 899 676 l 899 615 l 697 615 l 654 354 l 844 354 l 844 293 l 643 293 l 593 0 l 526 0 l 578 293 m 588 354 l 632 615 l 401 615 l 357 354 l 588 354 z "},"^":{"ha":833,"x_min":79,"x_max":754,"o":"m 693 425 l 419 894 l 414 894 l 140 425 l 79 458 l 374 969 l 460 969 l 754 458 l 693 425 z "},"~":{"ha":833,"x_min":88,"x_max":746,"o":"m 585 340 q 499 353 538 340 q 406 392 460 367 q 321 427 357 414 q 244 440 285 440 q 181 428 208 440 q 122 390 154 417 l 88 435 q 155 488 118 469 q 249 507 192 507 q 335 494 296 507 q 428 456 374 481 q 513 420 476 433 q 589 407 549 407 q 652 419 625 407 q 711 457 679 431 l 746 413 q 678 359 715 378 q 585 340 642 340 z "},"+":{"ha":833,"x_min":90,"x_max":743,"o":"m 379 88 l 379 390 l 90 390 l 90 458 l 379 458 l 379 761 l 454 761 l 454 458 l 743 458 l 743 390 l 454 390 l 454 88 l 379 88 z "},"−":{"ha":833,"x_min":90,"x_max":743,"o":"m 90 390 l 90 458 l 743 458 l 743 390 l 90 390 z "},"±":{"ha":833,"x_min":90,"x_max":743,"o":"m 379 190 l 379 486 l 90 486 l 90 554 l 379 554 l 379 850 l 454 850 l 454 554 l 743 554 l 743 486 l 454 486 l 454 190 l 379 190 m 90 0 l 90 68 l 743 68 l 743 0 l 90 0 z "},"×":{"ha":833,"x_min":135,"x_max":699,"o":"m 417 375 l 183 139 l 135 188 l 368 424 l 135 660 l 183 708 l 417 472 l 650 708 l 699 660 l 465 424 l 699 188 l 650 139 l 417 375 z "},"÷":{"ha":833,"x_min":90,"x_max":743,"o":"m 90 390 l 90 458 l 743 458 l 743 390 l 90 390 m 417 88 q 362 103 378 88 q 346 143 346 119 l 346 167 q 362 206 346 190 q 417 221 378 221 q 472 206 456 221 q 488 167 488 190 l 488 143 q 472 103 488 119 q 417 88 456 88 m 417 626 q 362 642 378 626 q 346 682 346 658 l 346 704 q 362 744 346 728 q 417 760 378 760 q 472 744 456 760 q 488 704 488 728 l 488 682 q 472 642 488 658 q 417 626 456 626 z "},"=":{"ha":833,"x_min":90,"x_max":743,"o":"m 90 524 l 90 592 l 743 592 l 743 524 l 90 524 m 90 258 l 90 326 l 743 326 l 743 258 l 90 258 z "},"≈":{"ha":833,"x_min":88,"x_max":746,"o":"m 585 469 q 499 483 538 469 q 406 521 460 496 q 321 556 357 543 q 244 569 285 569 q 181 558 208 569 q 122 519 154 546 l 88 564 q 155 617 118 599 q 249 636 192 636 q 335 623 296 636 q 428 585 374 610 q 513 549 476 563 q 589 536 549 536 q 652 548 625 536 q 711 586 679 560 l 746 542 q 678 488 715 507 q 585 469 642 469 m 585 213 q 499 226 538 213 q 406 264 460 239 q 321 299 357 286 q 244 313 285 313 q 181 301 208 313 q 122 263 154 289 l 88 307 q 155 360 118 342 q 249 379 192 379 q 335 366 296 379 q 428 328 374 353 q 513 292 476 306 q 589 279 549 279 q 652 291 625 279 q 711 329 679 303 l 746 285 q 678 231 715 250 q 585 213 642 213 z "},"≠":{"ha":833,"x_min":90,"x_max":743,"o":"m 204 111 l 288 258 l 90 258 l 90 326 l 325 326 l 436 524 l 90 524 l 90 592 l 474 592 l 557 739 l 629 739 l 546 592 l 743 592 l 743 524 l 508 524 l 397 326 l 743 326 l 743 258 l 360 258 l 276 111 l 204 111 z "},"<":{"ha":833,"x_min":122,"x_max":711,"o":"m 122 361 l 122 439 l 711 789 l 711 706 l 199 404 l 199 396 l 711 94 l 711 11 l 122 361 z "},">":{"ha":833,"x_min":122,"x_max":711,"o":"m 122 94 l 635 396 l 635 404 l 122 706 l 122 789 l 711 439 l 711 361 l 122 11 l 122 94 z "},"≤":{"ha":833,"x_min":122,"x_max":711,"o":"m 122 0 l 122 68 l 711 68 l 711 0 l 122 0 m 711 742 l 199 493 l 199 485 l 711 236 l 711 156 l 122 446 l 122 532 l 711 821 l 711 742 z "},"≥":{"ha":833,"x_min":122,"x_max":711,"o":"m 122 236 l 635 485 l 635 493 l 122 742 l 122 821 l 711 532 l 711 446 l 122 156 l 122 236 m 122 68 l 711 68 l 711 0 l 122 0 l 122 68 z "},"·":{"ha":439,"x_min":153,"x_max":286,"o":"m 219 354 q 169 372 185 354 q 153 417 153 389 l 153 432 q 169 477 153 460 q 219 494 185 494 q 269 477 253 494 q 286 432 286 460 l 286 417 q 269 372 286 389 q 219 354 253 354 z "},"•":{"ha":517,"x_min":108,"x_max":408,"o":"m 258 275 q 142 313 176 275 q 108 404 108 350 l 108 440 q 142 532 108 494 q 258 569 176 569 q 374 532 340 569 q 408 440 408 494 l 408 404 q 374 313 408 350 q 258 275 340 275 z "},"◊":{"ha":833,"x_min":69,"x_max":764,"o":"m 378 0 l 69 485 l 378 969 l 457 969 l 764 485 l 457 0 l 378 0 m 421 75 l 681 485 l 421 894 l 413 894 l 154 485 l 413 75 l 421 75 z "},"¬":{"ha":833,"x_min":90,"x_max":735,"o":"m 664 122 l 664 390 l 90 390 l 90 458 l 735 458 l 735 122 l 664 122 z "},"√":{"ha":833,"x_min":39,"x_max":771,"o":"m 371 0 l 189 647 l 39 647 l 39 711 l 249 711 l 425 71 l 431 71 l 693 969 l 771 969 l 482 0 l 371 0 z "},"∫":{"ha":553,"x_min":71,"x_max":483,"o":"m 71 -208 l 238 -208 l 238 913 q 264 997 238 965 q 349 1028 290 1028 l 483 1028 l 483 958 l 317 958 l 317 -162 q 290 -247 317 -215 q 204 -278 263 -278 l 71 -278 l 71 -208 z "},"∞":{"ha":1024,"x_min":29,"x_max":994,"o":"m 268 165 q 167 184 211 165 q 92 237 122 203 q 45 318 61 271 q 29 424 29 365 q 45 529 29 482 q 92 610 61 576 q 167 663 122 644 q 268 682 211 682 q 433 630 368 682 q 526 478 497 578 l 532 478 q 616 631 556 581 q 756 682 676 682 q 857 663 813 682 q 932 610 901 644 q 978 529 963 576 q 994 424 994 482 q 978 318 994 365 q 932 237 963 271 q 857 184 901 203 q 756 165 813 165 q 591 217 656 165 q 497 369 526 269 l 490 369 q 408 216 468 267 q 268 165 347 165 m 267 233 q 390 279 338 233 q 471 424 443 325 q 390 569 443 525 q 267 614 338 614 q 153 572 196 614 q 110 454 110 529 l 110 393 q 153 276 110 318 q 267 233 196 233 m 757 233 q 870 276 826 233 q 914 393 914 318 l 914 454 q 870 572 914 529 q 757 614 826 614 q 633 568 686 614 q 553 424 579 522 q 633 278 579 322 q 757 233 686 233 z "},"℮":{"ha":992,"x_min":54,"x_max":938,"o":"m 206 197 q 321 83 246 129 q 499 38 396 38 q 708 94 626 38 q 840 242 790 150 l 890 215 q 826 123 864 165 q 740 49 789 81 q 631 1 692 18 q 499 -17 571 -17 q 319 19 400 -17 q 178 122 238 56 q 87 280 119 188 q 54 485 54 372 q 87 690 54 597 q 178 848 119 782 q 317 950 236 914 q 496 986 399 986 q 674 950 593 986 q 814 848 756 914 q 905 690 872 782 q 938 485 938 597 l 206 485 l 206 197 m 788 536 l 788 776 q 673 890 747 846 q 496 935 599 935 q 320 890 394 935 q 206 776 246 846 l 206 536 l 788 536 z "},"ℓ":{"ha":663,"x_min":53,"x_max":618,"o":"m 368 -17 q 219 49 267 -17 q 171 224 171 115 l 171 251 q 128 220 150 235 q 86 192 107 206 l 53 247 q 111 285 81 265 q 169 329 142 306 l 169 785 q 218 985 169 925 q 349 1044 267 1044 q 525 826 525 1044 q 450 553 525 683 q 246 304 375 422 l 246 240 q 277 97 246 142 q 374 53 308 53 q 486 97 443 53 q 561 204 529 140 l 618 169 q 577 98 600 132 q 524 39 554 64 q 454 -1 493 14 q 368 -17 415 -17 m 351 978 q 309 969 328 978 q 276 938 290 960 q 253 881 261 917 q 246 792 246 844 l 246 390 q 395 596 339 486 q 451 815 451 706 l 451 836 q 424 945 451 913 q 351 978 397 978 z "},"№":{"ha":1417,"x_min":138,"x_max":1364,"o":"m 1149 507 q 993 570 1053 507 q 933 747 933 633 q 949 847 933 803 q 994 923 965 892 q 1062 970 1022 954 q 1149 986 1101 986 q 1235 970 1196 986 q 1303 923 1275 954 q 1348 847 1332 892 q 1364 747 1364 803 q 1304 570 1364 633 q 1149 507 1244 507 m 138 0 l 138 969 l 235 969 l 732 113 l 736 113 l 736 969 l 814 969 l 814 0 l 715 0 l 219 850 l 215 850 l 215 0 l 138 0 m 1149 561 q 1256 606 1218 561 q 1293 714 1293 650 l 1293 779 q 1256 887 1293 842 q 1149 932 1218 932 q 1042 887 1079 932 q 1004 779 1004 842 l 1004 714 q 1042 606 1004 650 q 1149 561 1079 561 m 958 360 l 958 426 l 1339 426 l 1339 360 l 958 360 z "},"∂":{"ha":813,"x_min":94,"x_max":711,"o":"m 711 363 q 690 197 711 268 q 628 79 668 126 q 532 8 589 32 q 406 -17 475 -17 q 276 8 333 -17 q 178 79 218 33 q 116 192 138 125 q 94 342 94 258 q 116 492 94 425 q 177 604 138 558 q 272 675 217 650 q 394 700 326 700 q 506 676 458 700 q 588 610 554 653 l 592 613 q 533 717 572 667 q 444 813 494 768 q 332 897 393 857 q 206 969 271 936 l 333 969 q 455 890 392 936 q 576 772 518 843 q 672 600 633 701 q 711 363 711 499 m 403 51 q 566 117 504 51 q 628 300 628 182 l 628 383 q 566 567 628 501 q 403 632 504 632 q 241 567 303 632 q 179 383 179 501 l 179 300 q 241 117 179 182 q 403 51 303 51 z "},"¤":{"ha":836,"x_min":28,"x_max":808,"o":"m 418 171 q 222 242 296 171 l 76 94 l 28 143 l 178 293 q 144 378 156 331 q 132 485 132 426 q 144 591 132 543 q 178 676 156 639 l 28 826 l 76 875 l 222 728 q 418 799 296 799 q 614 728 540 799 l 760 875 l 808 826 l 658 676 q 692 591 681 639 q 704 485 704 543 q 692 378 704 426 q 658 293 681 331 l 808 143 l 760 94 l 614 242 q 418 171 540 171 m 418 238 q 565 291 511 238 q 619 446 619 344 l 619 524 q 565 678 619 625 q 418 732 511 732 q 271 678 325 732 q 217 524 217 625 l 217 446 q 271 291 217 344 q 418 238 325 238 z "},"¢":{"ha":690,"x_min":72,"x_max":643,"o":"m 336 -158 l 336 -14 q 141 96 210 0 q 72 356 72 192 q 141 615 72 519 q 336 725 210 711 l 336 869 l 406 869 l 406 726 q 546 680 490 722 q 632 571 601 638 l 568 539 q 503 622 543 592 q 404 657 464 653 l 404 54 q 513 90 468 58 q 585 176 557 122 l 643 138 q 552 30 611 71 q 406 -15 493 -11 l 406 -158 l 336 -158 m 157 306 q 203 137 157 204 q 338 58 250 69 l 338 654 q 203 575 250 642 q 157 406 157 508 l 157 306 z "},"€":{"ha":856,"x_min":89,"x_max":792,"o":"m 792 200 q 741 113 771 153 q 670 44 711 74 q 578 -1 629 15 q 465 -17 528 -17 q 188 113 286 -17 q 89 485 89 242 q 188 857 89 728 q 465 986 286 986 q 661 931 582 986 q 785 779 740 875 l 719 740 q 622 866 688 819 q 465 913 557 913 q 271 838 344 913 q 181 628 197 763 l 540 628 l 540 561 l 175 561 l 175 536 l 175 433 l 175 408 l 540 408 l 540 342 l 181 342 q 272 132 199 207 q 465 57 346 57 q 628 107 563 57 q 726 240 694 157 l 792 200 l 792 200 z "},"ƒ":{"ha":675,"x_min":-4,"x_max":642,"o":"m 3 -117 l 222 -117 l 276 424 l 61 424 l 69 496 l 283 496 l 319 854 q 356 938 325 907 q 444 969 386 969 l 642 969 l 635 900 l 404 900 l 364 496 l 621 496 l 613 424 l 356 424 l 307 -71 q 271 -155 301 -124 q 182 -186 240 -186 l -4 -186 l 3 -117 z "},"£":{"ha":818,"x_min":89,"x_max":742,"o":"m 114 0 l 114 99 q 200 190 172 131 q 228 319 228 249 q 224 367 228 344 q 217 411 221 390 l 89 411 l 89 481 l 197 481 q 163 585 179 533 q 146 699 146 636 q 167 817 146 764 q 229 907 189 869 q 326 965 269 944 q 453 986 382 986 q 624 945 553 986 q 742 825 694 904 l 678 781 q 583 879 639 846 q 450 913 528 913 q 290 856 350 913 q 231 692 231 800 q 247 581 231 632 q 281 481 264 531 l 582 481 l 582 411 l 299 411 q 306 372 303 392 q 308 328 308 351 q 276 181 308 247 q 194 79 244 115 l 194 75 l 722 75 l 722 0 l 114 0 z "},"$":{"ha":803,"x_min":67,"x_max":722,"o":"m 375 -114 l 375 0 q 192 50 265 6 q 67 163 118 94 l 126 214 q 233 115 174 153 q 375 71 292 78 l 375 468 l 358 471 q 235 506 285 483 q 153 562 185 529 q 107 636 121 594 q 93 726 93 678 q 113 827 93 783 q 171 901 133 871 q 260 949 208 932 q 375 969 313 965 l 375 1083 l 436 1083 l 436 971 q 599 926 532 964 q 711 824 667 888 l 650 778 q 562 860 614 829 q 436 899 510 892 l 436 533 l 460 529 q 583 493 533 517 q 665 436 633 469 q 709 361 696 403 q 722 269 722 319 q 645 78 722 147 q 436 0 568 10 l 436 -114 l 375 -114 m 643 265 q 592 399 643 354 q 446 457 542 443 l 436 458 l 436 71 q 588 129 533 79 q 643 265 643 179 m 172 731 q 185 657 172 688 q 223 604 199 626 q 282 568 247 582 q 361 546 317 554 l 375 543 l 375 899 q 226 850 281 892 q 172 731 172 808 z "},"¥":{"ha":826,"x_min":54,"x_max":772,"o":"m 454 214 l 454 0 l 372 0 l 372 214 l 115 214 l 115 281 l 372 281 l 372 438 l 115 438 l 115 504 l 332 504 l 54 969 l 149 969 l 414 513 l 419 513 l 681 969 l 772 969 l 494 504 l 711 504 l 711 438 l 454 438 l 454 281 l 711 281 l 711 214 l 454 214 z "},"฿":{"ha":874,"x_min":138,"x_max":785,"o":"m 458 -114 l 397 -114 l 397 29 l 138 29 l 138 940 l 397 940 l 397 1083 l 458 1083 l 458 940 l 504 940 q 682 878 618 940 q 746 710 746 817 q 703 574 746 619 q 594 513 660 528 l 594 506 q 667 485 633 500 q 728 444 701 469 q 769 379 754 418 q 785 286 785 340 q 767 183 785 229 q 717 101 749 136 q 639 48 685 67 q 538 29 593 29 l 458 29 l 458 -114 m 397 536 l 397 865 l 219 865 l 219 536 l 397 536 m 457 536 l 506 536 q 622 575 585 536 q 660 678 660 614 l 660 726 q 622 828 660 790 q 506 865 585 865 l 457 865 l 457 536 m 397 104 l 397 467 l 219 467 l 219 104 l 397 104 m 457 104 l 518 104 q 652 146 606 104 q 699 258 699 188 l 699 311 q 652 424 699 382 q 518 467 606 467 l 457 467 l 457 104 z "},"₡":{"ha":858,"x_min":89,"x_max":794,"o":"m 449 -1 q 390 4 417 0 q 336 19 363 8 l 321 -114 l 260 -114 l 278 40 q 137 201 185 92 q 89 483 89 311 q 164 818 89 699 q 381 965 239 938 l 393 1083 l 454 1083 l 442 971 q 456 972 451 972 q 467 972 461 972 q 556 961 511 972 l 569 1083 l 631 1083 l 615 944 q 718 873 676 918 q 788 765 760 828 l 719 725 q 673 806 700 771 q 604 864 646 840 l 515 76 q 647 135 596 89 q 726 256 699 182 l 794 214 q 687 68 756 125 q 510 0 618 11 l 497 -114 l 436 -114 l 449 -1 m 433 897 l 344 97 q 456 72 394 72 l 547 886 q 468 897 507 897 l 433 897 m 178 426 q 289 128 178 214 l 372 885 q 228 771 278 857 q 178 544 178 685 l 178 426 z "},"₤":{"ha":818,"x_min":89,"x_max":742,"o":"m 722 0 l 114 0 l 114 99 q 200 190 172 131 q 228 321 228 250 l 228 338 l 89 338 l 89 404 l 218 404 q 197 481 211 444 q 171 554 183 518 l 89 554 l 89 621 l 154 621 q 146 699 146 656 q 167 817 146 764 q 229 907 189 869 q 326 965 269 944 q 453 986 382 986 q 624 945 553 986 q 742 825 694 904 l 678 781 q 583 879 639 846 q 450 913 528 913 q 290 856 350 913 q 231 692 231 800 q 233 655 231 672 q 240 621 236 638 l 592 621 l 592 554 l 256 554 q 281 481 267 518 q 301 404 294 444 l 592 404 l 592 338 l 308 338 l 308 322 q 275 179 307 243 q 194 79 243 115 l 194 75 l 722 75 l 722 0 z "},"₦":{"ha":953,"x_min":22,"x_max":931,"o":"m 510 342 l 222 342 l 222 0 l 142 0 l 142 340 l 22 340 l 22 407 l 142 407 l 142 563 l 22 563 l 22 629 l 142 629 l 142 969 l 239 969 l 439 628 l 731 628 l 731 969 l 811 969 l 811 629 l 931 629 l 931 563 l 811 563 l 811 407 l 931 407 l 931 340 l 811 340 l 811 0 l 711 0 l 510 342 m 478 404 l 226 843 l 222 843 l 222 404 l 478 404 m 726 117 l 731 117 l 731 565 l 471 565 l 726 117 z "},"₨":{"ha":993,"x_min":138,"x_max":946,"o":"m 946 158 q 894 32 946 81 q 743 -17 842 -17 q 609 15 664 -17 q 518 122 554 47 l 356 454 q 340 453 346 453 q 328 453 335 453 l 217 453 l 217 0 l 138 0 l 138 969 l 346 969 q 532 902 472 969 q 592 713 592 835 q 553 552 592 615 q 435 467 515 489 l 589 163 q 654 78 618 106 q 749 51 690 51 q 838 80 804 51 q 871 158 871 108 q 867 190 871 176 q 856 218 864 204 q 831 248 847 232 q 790 286 815 264 l 753 318 q 667 415 692 372 q 643 508 643 457 q 653 567 643 539 q 684 615 664 594 q 734 648 704 636 q 804 660 764 660 q 876 650 842 660 q 942 617 911 640 l 907 560 q 862 586 886 576 q 808 596 838 596 q 741 572 764 596 q 718 510 718 549 q 738 440 718 469 q 806 369 758 411 l 840 340 q 891 291 871 313 q 924 249 911 269 q 941 208 936 229 q 946 158 946 186 m 217 522 l 339 522 q 464 563 419 522 q 508 679 508 603 l 508 742 q 464 857 508 818 q 339 896 419 896 l 217 896 l 217 522 z "},"₩":{"ha":1294,"x_min":54,"x_max":1240,"o":"m 788 340 l 499 340 l 406 0 l 313 0 l 228 338 l 54 338 l 54 404 l 213 404 l 174 561 l 54 561 l 54 628 l 157 628 l 71 969 l 154 969 l 238 625 l 504 625 l 597 969 l 696 969 l 786 625 l 1057 625 l 1142 969 l 1225 969 l 1136 628 l 1240 628 l 1240 561 l 1119 561 l 1079 404 l 1240 404 l 1240 338 l 1061 338 l 974 0 l 879 0 l 788 340 m 365 101 l 486 563 l 251 563 l 363 101 l 365 101 m 928 103 l 1042 563 l 803 563 l 924 103 l 928 103 m 515 403 l 772 403 l 646 883 l 643 883 l 515 403 z "},"₪":{"ha":1067,"x_min":138,"x_max":929,"o":"m 375 767 l 454 767 l 454 69 l 701 69 q 757 78 731 69 q 804 106 783 86 q 838 158 825 125 q 850 239 850 190 l 850 969 l 929 969 l 929 253 q 867 62 929 124 q 701 0 804 0 l 375 0 l 375 767 m 138 0 l 138 969 l 460 969 q 553 954 511 969 q 626 908 596 939 q 674 828 657 876 q 692 717 692 781 l 692 203 l 613 203 l 613 731 q 599 812 613 779 q 565 864 586 844 q 516 892 543 883 q 460 900 489 900 l 217 900 l 217 0 l 138 0 z "},"₫":{"ha":796,"x_min":97,"x_max":738,"o":"m 564 276 l 560 276 q 483 196 533 228 q 356 164 432 164 q 166 242 235 164 q 97 468 97 319 q 166 694 97 617 q 356 772 235 772 q 483 740 432 772 q 560 658 533 707 l 564 658 l 564 874 l 349 874 l 349 936 l 564 936 l 564 1028 l 640 1028 l 640 936 l 738 936 l 738 874 l 640 874 l 640 178 l 564 178 l 564 276 m 379 229 q 451 240 418 229 q 510 270 485 250 q 549 317 535 290 q 564 378 564 344 l 564 557 q 549 618 564 590 q 510 666 535 646 q 451 697 485 686 q 379 707 418 707 q 233 654 286 707 q 179 511 179 601 l 179 426 q 233 283 179 336 q 379 229 286 229 m 97 0 l 97 68 l 685 68 l 685 0 l 97 0 z "},"₭":{"ha":832,"x_min":18,"x_max":792,"o":"m 225 0 l 142 0 l 142 471 l 18 471 l 18 540 l 142 540 l 142 969 l 225 969 l 225 540 l 343 540 l 676 969 l 769 969 l 432 540 l 749 540 l 749 471 l 438 471 l 792 0 l 693 0 l 344 471 l 225 471 l 225 0 z "},"₮":{"ha":819,"x_min":43,"x_max":776,"o":"m 451 321 l 451 0 l 368 0 l 368 282 l 171 186 l 171 256 l 368 351 l 368 497 l 171 403 l 171 472 l 368 568 l 368 896 l 43 896 l 43 969 l 776 969 l 776 896 l 451 896 l 451 607 l 649 703 l 649 633 l 451 538 l 451 390 l 649 488 l 649 417 l 451 321 z "},"₱":{"ha":850,"x_min":24,"x_max":826,"o":"m 225 0 l 142 0 l 142 494 l 24 494 l 24 561 l 142 561 l 142 711 l 24 711 l 24 778 l 142 778 l 142 969 l 460 969 q 619 918 560 969 q 701 778 679 867 l 826 778 l 826 711 l 713 711 q 714 674 714 700 q 714 636 714 647 q 714 620 714 631 q 714 598 714 610 q 713 576 714 586 q 713 561 713 565 l 826 561 l 826 494 l 701 494 q 619 355 679 406 q 460 304 560 304 l 225 304 l 225 0 m 225 775 l 625 775 q 568 862 610 826 q 460 897 526 897 l 225 897 l 225 775 m 632 558 l 632 714 l 225 714 l 225 558 l 632 558 m 460 376 q 570 410 528 376 q 626 497 613 444 l 225 497 l 225 376 l 460 376 z "},"₲":{"ha":924,"x_min":89,"x_max":819,"o":"m 329 -114 l 353 11 q 156 167 224 49 q 89 488 89 286 q 188 851 89 731 q 469 972 288 972 q 488 972 479 972 q 510 969 496 971 l 529 1083 l 592 1083 l 571 961 q 708 892 651 940 q 797 769 765 843 l 731 731 q 663 829 707 789 q 557 888 619 869 l 490 483 l 819 483 l 819 332 q 789 177 819 240 q 708 74 758 114 q 596 15 658 33 q 469 -3 533 -3 q 439 -2 454 -3 q 411 0 424 -1 l 392 -114 l 329 -114 m 178 426 q 226 208 178 293 q 367 90 274 124 l 499 897 q 485 899 494 899 q 469 899 476 899 q 254 808 331 899 q 178 544 178 717 l 178 426 m 478 408 l 422 74 q 451 72 436 72 q 479 71 465 71 q 667 135 596 71 q 739 315 739 199 l 739 408 l 478 408 z "},"₴":{"ha":863,"x_min":67,"x_max":796,"o":"m 438 -17 q 322 1 374 -17 q 233 52 269 19 q 176 131 196 85 q 156 235 156 178 q 165 303 156 274 q 189 357 175 332 l 67 357 l 67 424 l 240 424 l 506 579 l 67 579 l 67 646 l 589 646 q 610 691 604 667 q 615 746 615 715 q 565 870 615 828 q 426 913 514 913 q 316 890 368 913 q 215 813 264 867 l 163 867 q 290 958 221 931 q 432 986 358 986 q 540 970 490 986 q 624 924 589 954 q 679 849 660 893 q 699 751 699 806 q 692 692 699 718 q 674 646 685 665 l 796 646 l 796 579 l 624 579 l 360 424 l 796 424 l 796 357 l 276 357 q 249 304 258 332 q 239 240 239 276 q 293 103 239 150 q 442 57 347 57 q 561 84 504 57 q 678 174 618 111 l 729 118 q 595 17 669 50 q 438 -17 521 -17 z "},"₵":{"ha":858,"x_min":89,"x_max":794,"o":"m 325 -114 l 347 13 q 155 169 221 50 q 89 485 89 288 q 188 849 89 726 q 465 972 286 972 q 481 972 474 972 q 506 971 489 972 l 524 1083 l 585 1083 l 565 960 q 699 890 644 939 q 788 767 754 840 l 719 728 q 653 826 694 788 q 551 886 613 865 l 418 75 q 444 72 433 72 q 465 72 454 72 q 629 122 564 72 q 726 254 694 171 l 794 214 q 743 127 774 167 q 672 58 713 88 q 581 13 632 29 q 465 -3 529 -3 q 407 1 436 -3 l 386 -114 l 325 -114 m 178 426 q 224 207 178 292 q 361 90 271 122 l 494 897 q 475 899 481 899 q 465 899 469 899 q 253 806 329 899 q 178 544 178 714 l 178 426 z "},"₸":{"ha":842,"x_min":54,"x_max":788,"o":"m 54 900 l 54 969 l 788 969 l 788 900 l 54 900 m 463 683 l 463 0 l 379 0 l 379 683 l 54 683 l 54 753 l 788 753 l 788 683 l 463 683 z "},"₹":{"ha":811,"x_min":51,"x_max":767,"o":"m 567 0 l 249 426 l 51 426 l 51 496 l 360 496 q 492 541 444 496 q 540 663 540 586 l 540 669 l 51 669 l 51 739 l 540 739 q 490 856 538 813 q 361 900 443 900 l 51 900 l 51 969 l 767 969 l 767 900 l 514 900 l 514 894 q 548 879 531 889 q 581 851 565 869 q 606 806 596 833 q 621 739 617 778 l 767 739 l 767 669 l 621 669 l 621 665 q 602 572 621 615 q 549 495 583 528 q 467 444 515 463 q 358 426 418 426 l 344 426 l 667 0 l 567 0 z "},"₺":{"ha":844,"x_min":24,"x_max":776,"o":"m 176 375 l 24 301 l 24 371 l 176 444 l 176 592 l 24 517 l 24 588 l 176 661 l 176 969 l 260 969 l 260 700 l 556 843 l 556 772 l 260 629 l 260 483 l 556 626 l 556 557 l 260 414 l 260 72 l 425 72 q 539 98 489 72 q 624 170 589 124 q 676 281 658 217 q 694 424 694 346 l 776 424 q 754 258 776 335 q 688 123 732 181 q 580 33 644 65 q 431 0 515 0 l 176 0 l 176 375 z "},"₽":{"ha":839,"x_min":24,"x_max":782,"o":"m 225 204 l 225 0 l 142 0 l 142 204 l 24 204 l 24 274 l 142 274 l 142 428 l 24 428 l 24 497 l 142 497 l 142 969 l 522 969 q 715 897 649 969 q 782 699 782 824 q 715 501 782 574 q 522 428 649 428 l 225 428 l 225 274 l 592 274 l 592 204 l 225 204 m 225 497 l 522 497 q 650 544 607 497 q 693 661 693 590 l 693 731 q 650 849 693 803 q 522 894 607 894 l 225 894 l 225 497 z "},"₿":{"ha":874,"x_min":138,"x_max":785,"o":"m 471 29 l 361 29 l 361 -114 l 292 -114 l 292 29 l 138 29 l 138 940 l 292 940 l 292 1083 l 361 1083 l 361 940 l 471 940 l 471 1083 l 540 1083 l 540 939 q 692 869 638 929 q 746 710 746 810 q 703 574 746 619 q 594 513 661 528 l 594 506 q 667 485 633 500 q 728 444 701 469 q 769 379 754 418 q 785 286 785 340 q 767 183 785 229 q 718 101 750 136 q 641 48 686 67 q 540 29 596 29 l 540 -114 l 471 -114 l 471 29 m 219 538 l 506 538 q 623 576 586 538 q 660 678 660 615 l 660 725 q 623 827 660 789 q 506 865 586 865 l 219 865 l 219 538 m 219 104 l 518 104 q 652 147 606 104 q 699 260 699 190 l 699 311 q 652 424 699 381 q 518 467 606 467 l 219 467 l 219 104 z "},"ﬁ":{"ha":758,"x_min":40,"x_max":643,"o":"m 163 642 l 40 642 l 40 711 l 163 711 l 163 910 q 190 996 163 964 q 274 1028 217 1028 l 399 1028 l 399 958 l 242 958 l 242 711 l 628 711 l 628 0 l 549 0 l 549 642 l 242 642 l 242 0 l 163 0 l 163 642 m 589 904 q 547 918 560 904 q 535 954 535 932 l 535 968 q 547 1004 535 990 q 589 1018 560 1018 q 630 1004 617 1018 q 643 968 643 990 l 643 954 q 630 918 643 932 q 589 904 617 904 z "},"ﬂ":{"ha":796,"x_min":40,"x_max":747,"o":"m 163 642 l 40 642 l 40 711 l 163 711 l 163 910 q 190 996 163 964 q 274 1028 217 1028 l 399 1028 l 399 958 l 242 958 l 242 711 l 399 711 l 399 642 l 242 642 l 242 0 l 163 0 l 163 642 m 646 0 q 581 24 603 0 q 558 86 558 47 l 558 1028 l 638 1028 l 638 69 l 747 69 l 747 0 l 646 0 z "},"á":{"ha":733,"x_min":71,"x_max":699,"o":"m 618 0 q 551 24 572 0 q 528 88 531 47 l 528 113 l 521 113 q 443 18 497 53 q 306 -17 389 -17 q 132 38 193 -17 q 71 193 71 93 q 138 343 71 288 q 360 399 206 399 l 524 399 l 524 482 q 342 658 524 658 q 224 628 271 658 q 147 543 176 599 l 97 585 q 187 688 126 647 q 344 728 247 728 q 536 665 469 728 q 603 490 603 603 l 603 69 l 699 69 l 699 0 l 618 0 m 317 51 q 397 63 360 51 q 463 94 435 74 q 508 142 492 114 q 524 207 524 171 l 524 339 l 357 339 q 202 305 250 339 q 154 211 154 271 l 154 178 q 199 83 154 115 q 317 51 243 51 m 346 814 l 294 839 l 426 1067 l 499 1031 l 346 814 z "},"â":{"ha":733,"x_min":71,"x_max":699,"o":"m 618 0 q 551 24 572 0 q 528 88 531 47 l 528 113 l 521 113 q 443 18 497 53 q 306 -17 389 -17 q 132 38 193 -17 q 71 193 71 93 q 138 343 71 288 q 360 399 206 399 l 524 399 l 524 482 q 342 658 524 658 q 224 628 271 658 q 147 543 176 599 l 97 585 q 187 688 126 647 q 344 728 247 728 q 536 665 469 728 q 603 490 603 603 l 603 69 l 699 69 l 699 0 l 618 0 m 317 51 q 397 63 360 51 q 463 94 435 74 q 508 142 492 114 q 524 207 524 171 l 524 339 l 357 339 q 202 305 250 339 q 154 211 154 271 l 154 178 q 199 83 154 115 q 317 51 243 51 m 399 1050 l 563 857 l 518 825 l 350 993 l 182 825 l 138 857 l 301 1050 l 399 1050 z "},"ä":{"ha":733,"x_min":71,"x_max":699,"o":"m 618 0 q 551 24 572 0 q 528 88 531 47 l 528 113 l 521 113 q 443 18 497 53 q 306 -17 389 -17 q 132 38 193 -17 q 71 193 71 93 q 138 343 71 288 q 360 399 206 399 l 524 399 l 524 482 q 342 658 524 658 q 224 628 271 658 q 147 543 176 599 l 97 585 q 187 688 126 647 q 344 728 247 728 q 536 665 469 728 q 603 490 603 603 l 603 69 l 699 69 l 699 0 l 618 0 m 317 51 q 397 63 360 51 q 463 94 435 74 q 508 142 492 114 q 524 207 524 171 l 524 339 l 357 339 q 202 305 250 339 q 154 211 154 271 l 154 178 q 199 83 154 115 q 317 51 243 51 m 222 871 q 181 885 193 871 q 168 921 168 899 l 168 935 q 181 971 168 957 q 222 985 193 985 q 263 971 250 985 q 276 935 276 957 l 276 921 q 263 885 276 899 q 222 871 250 871 m 478 871 q 437 885 450 871 q 424 921 424 899 l 424 935 q 437 971 424 957 q 478 985 450 985 q 519 971 507 985 q 532 935 532 957 l 532 921 q 519 885 532 899 q 478 871 507 871 z "},"à":{"ha":733,"x_min":71,"x_max":699,"o":"m 618 0 q 551 24 572 0 q 528 88 531 47 l 528 113 l 521 113 q 443 18 497 53 q 306 -17 389 -17 q 132 38 193 -17 q 71 193 71 93 q 138 343 71 288 q 360 399 206 399 l 524 399 l 524 482 q 342 658 524 658 q 224 628 271 658 q 147 543 176 599 l 97 585 q 187 688 126 647 q 344 728 247 728 q 536 665 469 728 q 603 490 603 603 l 603 69 l 699 69 l 699 0 l 618 0 m 317 51 q 397 63 360 51 q 463 94 435 74 q 508 142 492 114 q 524 207 524 171 l 524 339 l 357 339 q 202 305 250 339 q 154 211 154 271 l 154 178 q 199 83 154 115 q 317 51 243 51 m 201 1031 l 274 1067 l 406 839 l 353 814 l 201 1031 z "},"å":{"ha":733,"x_min":71,"x_max":699,"o":"m 618 0 q 551 24 572 0 q 528 88 531 47 l 528 113 l 521 113 q 443 18 497 53 q 306 -17 389 -17 q 132 38 193 -17 q 71 193 71 93 q 138 343 71 288 q 360 399 206 399 l 524 399 l 524 482 q 342 658 524 658 q 224 628 271 658 q 147 543 176 599 l 97 585 q 187 688 126 647 q 344 728 247 728 q 536 665 469 728 q 603 490 603 603 l 603 69 l 699 69 l 699 0 l 618 0 m 317 51 q 397 63 360 51 q 463 94 435 74 q 508 142 492 114 q 524 207 524 171 l 524 339 l 357 339 q 202 305 250 339 q 154 211 154 271 l 154 178 q 199 83 154 115 q 317 51 243 51 m 350 807 q 244 848 286 807 q 203 954 203 889 q 244 1059 203 1018 q 350 1100 286 1100 q 456 1059 414 1100 q 497 954 497 1018 q 456 848 497 889 q 350 807 414 807 m 350 858 q 414 881 390 858 q 438 942 438 903 l 438 965 q 414 1027 438 1006 q 350 1049 390 1049 q 286 1027 310 1049 q 263 965 263 1006 l 263 942 q 286 881 263 903 q 350 858 310 858 z "},"ã":{"ha":733,"x_min":71,"x_max":699,"o":"m 618 0 q 551 24 572 0 q 528 88 531 47 l 528 113 l 521 113 q 443 18 497 53 q 306 -17 389 -17 q 132 38 193 -17 q 71 193 71 93 q 138 343 71 288 q 360 399 206 399 l 524 399 l 524 482 q 342 658 524 658 q 224 628 271 658 q 147 543 176 599 l 97 585 q 187 688 126 647 q 344 728 247 728 q 536 665 469 728 q 603 490 603 603 l 603 69 l 699 69 l 699 0 l 618 0 m 317 51 q 397 63 360 51 q 463 94 435 74 q 508 142 492 114 q 524 207 524 171 l 524 339 l 357 339 q 202 305 250 339 q 154 211 154 271 l 154 178 q 199 83 154 115 q 317 51 243 51 m 450 858 q 393 869 418 858 q 340 897 368 881 q 287 924 308 917 q 246 932 265 932 q 203 921 222 932 q 161 890 183 910 l 126 931 q 179 978 149 958 q 250 997 210 997 q 307 986 282 997 q 360 958 332 975 q 413 931 392 939 q 454 924 435 924 q 497 935 478 924 q 539 965 517 946 l 574 925 q 521 878 551 897 q 450 858 490 858 z "},"æ":{"ha":1199,"x_min":68,"x_max":1126,"o":"m 354 340 q 199 305 247 339 q 151 211 151 271 l 151 178 q 195 83 151 115 q 314 51 239 51 q 394 63 357 51 q 460 94 432 74 q 504 142 488 114 q 521 207 521 171 l 521 340 l 354 340 m 1040 401 l 1040 413 q 1025 515 1040 468 q 981 593 1010 561 q 913 643 953 625 q 826 661 874 661 q 733 642 775 661 q 662 590 692 624 q 616 510 632 557 q 600 408 600 464 l 600 401 l 1040 401 m 832 53 q 1047 194 986 53 l 1106 157 q 1002 31 1072 78 q 836 -17 932 -17 q 738 -2 782 -17 q 659 36 693 13 q 602 90 625 60 q 569 154 579 121 l 564 154 q 536 91 557 122 q 481 36 515 60 q 402 -2 447 13 q 301 -17 357 -17 q 131 38 193 -17 q 68 190 68 93 q 136 344 68 288 q 357 401 204 401 l 521 401 l 521 482 q 475 615 521 571 q 342 660 429 660 q 222 631 268 660 q 144 543 175 601 l 94 585 q 184 687 124 646 q 343 728 244 728 q 440 713 400 728 q 508 673 481 697 q 549 618 535 649 q 568 557 563 588 l 574 557 q 606 619 583 589 q 663 674 629 650 q 739 713 696 699 q 833 728 782 728 q 954 702 900 728 q 1047 631 1008 676 q 1106 520 1085 585 q 1126 378 1126 456 l 1126 340 l 600 340 l 600 306 q 616 203 600 250 q 662 124 632 157 q 735 72 692 90 q 832 53 778 53 z "},"ç":{"ha":689,"x_min":72,"x_max":642,"o":"m 379 728 q 539 685 478 728 q 632 572 600 642 l 565 538 q 495 626 540 596 q 379 657 450 657 q 214 588 271 657 q 157 406 157 518 l 157 306 q 214 124 157 193 q 379 54 271 54 q 503 86 453 54 q 583 178 553 118 l 642 139 q 551 31 610 72 q 403 -15 492 -11 l 386 -92 l 389 -94 q 439 -87 417 -87 q 506 -110 479 -87 q 533 -176 533 -133 q 493 -256 533 -228 q 394 -285 453 -285 q 313 -269 344 -285 q 267 -233 281 -253 l 306 -190 q 341 -218 319 -207 q 394 -229 363 -229 q 445 -216 425 -229 q 465 -175 465 -203 q 447 -137 465 -153 q 374 -115 428 -122 l 331 -111 l 350 -15 q 144 91 215 -6 q 72 356 72 188 q 152 631 72 533 q 379 728 232 728 z "},"ð":{"ha":765,"x_min":72,"x_max":688,"o":"m 574 1003 l 449 914 q 538 812 494 869 q 614 685 581 754 q 667 535 647 615 q 688 364 688 454 q 665 199 688 271 q 601 81 642 128 q 505 8 561 33 q 381 -17 449 -17 q 253 9 310 -17 q 156 81 196 35 q 94 194 115 128 q 72 343 72 261 q 94 489 72 424 q 156 601 115 554 q 253 672 196 647 q 381 697 310 697 q 501 667 450 697 q 579 575 551 636 l 585 578 q 508 738 560 665 q 392 874 457 811 l 267 783 l 235 826 l 351 910 q 268 972 313 942 q 179 1028 224 1003 l 303 1028 q 354 994 331 1011 q 407 950 378 976 l 540 1046 l 574 1003 m 381 51 q 471 69 431 51 q 541 118 511 86 q 587 196 571 150 q 603 299 603 242 l 603 382 q 587 485 603 439 q 542 563 571 531 q 472 612 513 594 q 381 629 431 629 q 220 563 282 629 q 158 382 158 496 l 158 299 q 174 196 158 242 q 219 118 190 150 q 290 69 249 86 q 381 51 331 51 z "},"é":{"ha":754,"x_min":72,"x_max":682,"o":"m 383 -17 q 255 8 313 -17 q 156 81 197 33 q 94 199 115 129 q 72 356 72 268 q 94 512 72 443 q 156 628 115 581 q 254 702 197 676 q 382 728 311 728 q 506 702 450 728 q 600 631 561 676 q 660 520 639 585 q 682 378 682 456 l 682 340 l 156 340 l 156 306 q 172 203 156 250 q 217 124 188 157 q 290 72 247 90 q 388 53 333 53 q 603 196 543 53 l 661 157 q 556 31 628 78 q 383 -17 485 -17 m 382 661 q 289 642 331 661 q 217 590 247 624 q 172 510 188 557 q 156 408 156 464 l 156 401 l 596 401 l 596 413 q 581 515 596 468 q 537 593 565 561 q 469 643 508 625 q 382 661 429 661 m 379 814 l 328 839 l 460 1067 l 532 1031 l 379 814 z "},"ê":{"ha":754,"x_min":72,"x_max":682,"o":"m 383 -17 q 255 8 313 -17 q 156 81 197 33 q 94 199 115 129 q 72 356 72 268 q 94 512 72 443 q 156 628 115 581 q 254 702 197 676 q 382 728 311 728 q 506 702 450 728 q 600 631 561 676 q 660 520 639 585 q 682 378 682 456 l 682 340 l 156 340 l 156 306 q 172 203 156 250 q 217 124 188 157 q 290 72 247 90 q 388 53 333 53 q 603 196 543 53 l 661 157 q 556 31 628 78 q 383 -17 485 -17 m 382 661 q 289 642 331 661 q 217 590 247 624 q 172 510 188 557 q 156 408 156 464 l 156 401 l 596 401 l 596 413 q 581 515 596 468 q 537 593 565 561 q 469 643 508 625 q 382 661 429 661 m 432 1050 l 596 857 l 551 825 l 383 993 l 215 825 l 171 857 l 335 1050 l 432 1050 z "},"ë":{"ha":754,"x_min":72,"x_max":682,"o":"m 383 -17 q 255 8 313 -17 q 156 81 197 33 q 94 199 115 129 q 72 356 72 268 q 94 512 72 443 q 156 628 115 581 q 254 702 197 676 q 382 728 311 728 q 506 702 450 728 q 600 631 561 676 q 660 520 639 585 q 682 378 682 456 l 682 340 l 156 340 l 156 306 q 172 203 156 250 q 217 124 188 157 q 290 72 247 90 q 388 53 333 53 q 603 196 543 53 l 661 157 q 556 31 628 78 q 383 -17 485 -17 m 382 661 q 289 642 331 661 q 217 590 247 624 q 172 510 188 557 q 156 408 156 464 l 156 401 l 596 401 l 596 413 q 581 515 596 468 q 537 593 565 561 q 469 643 508 625 q 382 661 429 661 m 256 871 q 214 885 226 871 q 201 921 201 899 l 201 935 q 214 971 201 957 q 256 985 226 985 q 297 971 283 985 q 310 935 310 957 l 310 921 q 297 885 310 899 q 256 871 283 871 m 511 871 q 470 885 483 871 q 457 921 457 899 l 457 935 q 470 971 457 957 q 511 985 483 985 q 553 971 540 985 q 565 935 565 957 l 565 921 q 553 885 565 899 q 511 871 540 871 z "},"è":{"ha":754,"x_min":72,"x_max":682,"o":"m 383 -17 q 255 8 313 -17 q 156 81 197 33 q 94 199 115 129 q 72 356 72 268 q 94 512 72 443 q 156 628 115 581 q 254 702 197 676 q 382 728 311 728 q 506 702 450 728 q 600 631 561 676 q 660 520 639 585 q 682 378 682 456 l 682 340 l 156 340 l 156 306 q 172 203 156 250 q 217 124 188 157 q 290 72 247 90 q 388 53 333 53 q 603 196 543 53 l 661 157 q 556 31 628 78 q 383 -17 485 -17 m 382 661 q 289 642 331 661 q 217 590 247 624 q 172 510 188 557 q 156 408 156 464 l 156 401 l 596 401 l 596 413 q 581 515 596 468 q 537 593 565 561 q 469 643 508 625 q 382 661 429 661 m 235 1031 l 307 1067 l 439 839 l 386 814 l 235 1031 z "},"ı":{"ha":338,"x_min":129,"x_max":208,"o":"m 129 0 l 129 711 l 208 711 l 208 0 l 129 0 z "},"í":{"ha":338,"x_min":114,"x_max":318,"o":"m 129 0 l 129 711 l 208 711 l 208 0 l 129 0 m 165 814 l 114 839 l 246 1067 l 318 1031 l 165 814 z "},"î":{"ha":338,"x_min":-43,"x_max":382,"o":"m 129 0 l 129 711 l 208 711 l 208 0 l 129 0 m 218 1050 l 382 857 l 338 825 l 169 993 l 1 825 l -43 857 l 121 1050 l 218 1050 z "},"ï":{"ha":338,"x_min":-12,"x_max":351,"o":"m 129 0 l 129 711 l 208 711 l 208 0 l 129 0 m 42 871 q 0 885 13 871 q -12 921 -12 899 l -12 935 q 0 971 -12 957 q 42 985 13 985 q 83 971 69 985 q 96 935 96 957 l 96 921 q 83 885 96 899 q 42 871 69 871 m 297 871 q 256 885 269 871 q 243 921 243 899 l 243 935 q 256 971 243 957 q 297 985 269 985 q 339 971 326 985 q 351 935 351 957 l 351 921 q 339 885 351 899 q 297 871 326 871 z "},"ì":{"ha":338,"x_min":21,"x_max":225,"o":"m 129 0 l 129 711 l 208 711 l 208 0 l 129 0 m 21 1031 l 93 1067 l 225 839 l 172 814 l 21 1031 z "},"ĳ":{"ha":675,"x_min":114,"x_max":560,"o":"m 168 904 q 127 918 140 904 q 114 954 114 932 l 114 968 q 127 1004 114 990 q 168 1018 140 1018 q 209 1004 196 1018 q 222 968 222 990 l 222 954 q 209 918 222 932 q 168 904 196 904 m 129 711 l 208 711 l 208 0 l 129 0 l 129 711 m 467 711 l 546 711 l 546 -160 q 519 -246 546 -214 q 435 -278 493 -278 l 349 -278 l 349 -208 l 467 -208 l 467 711 m 506 904 q 465 918 478 904 q 451 954 451 932 l 451 968 q 465 1004 451 990 q 506 1018 478 1018 q 547 1004 533 1018 q 560 968 560 990 l 560 954 q 547 918 560 932 q 506 904 533 904 z "},"ȷ":{"ha":338,"x_min":11,"x_max":208,"o":"m 11 -208 l 129 -208 l 129 711 l 208 711 l 208 -160 q 182 -246 208 -214 q 97 -278 156 -278 l 11 -278 l 11 -208 z "},"ĵ":{"ha":338,"x_min":-43,"x_max":382,"o":"m 11 -208 l 129 -208 l 129 711 l 208 711 l 208 -160 q 182 -246 208 -214 q 97 -278 156 -278 l 11 -278 l 11 -208 m 218 1050 l 382 857 l 338 825 l 169 993 l 1 825 l -43 857 l 121 1050 l 218 1050 z "},"ŀ":{"ha":453,"x_min":129,"x_max":450,"o":"m 217 0 q 151 24 174 0 q 129 86 129 47 l 129 1028 l 208 1028 l 208 69 l 318 69 l 318 0 l 217 0 m 394 344 q 353 358 367 344 q 339 394 339 372 l 339 408 q 353 444 339 431 q 394 458 367 458 q 436 444 422 458 q 450 408 450 431 l 450 394 q 436 358 450 372 q 394 344 422 344 z "},"ł":{"ha":375,"x_min":33,"x_max":350,"o":"m 322 0 l 221 0 q 156 24 178 0 q 133 86 133 47 l 133 465 l 33 433 l 33 501 l 133 533 l 133 1028 l 213 1028 l 213 561 l 350 606 l 350 538 l 213 492 l 213 69 l 322 69 l 322 0 z "},"ñ":{"ha":782,"x_min":129,"x_max":663,"o":"m 129 0 l 129 711 l 208 711 l 208 599 l 213 599 q 286 691 236 654 q 422 728 336 728 q 599 658 536 728 q 663 457 663 588 l 663 0 l 583 0 l 583 443 q 537 604 583 551 q 401 657 490 657 q 329 647 364 657 q 267 618 294 638 q 224 569 240 599 q 208 500 208 539 l 208 0 l 129 0 m 499 858 q 442 869 467 858 q 389 897 417 881 q 335 924 357 917 q 294 932 314 932 q 251 921 271 932 q 210 890 232 910 l 175 931 q 228 978 197 958 q 299 997 258 997 q 356 986 331 997 q 408 958 381 975 q 462 931 440 939 q 503 924 483 924 q 546 935 526 924 q 588 965 565 946 l 622 925 q 569 878 600 897 q 499 858 539 858 z "},"ó":{"ha":764,"x_min":72,"x_max":692,"o":"m 382 -17 q 254 8 311 -17 q 157 81 197 33 q 94 199 117 129 q 72 356 72 268 q 94 512 72 443 q 157 628 117 581 q 254 702 197 676 q 382 728 311 728 q 510 702 453 728 q 607 628 567 676 q 669 512 647 581 q 692 356 692 443 q 669 199 692 268 q 607 81 647 129 q 510 8 567 33 q 382 -17 453 -17 m 382 54 q 547 119 486 54 q 607 311 607 185 l 607 400 q 547 591 607 525 q 382 657 486 657 q 217 592 278 657 q 157 400 157 526 l 157 311 q 217 120 157 186 q 382 54 278 54 m 379 814 l 328 839 l 460 1067 l 532 1031 l 379 814 z "},"ô":{"ha":764,"x_min":72,"x_max":692,"o":"m 382 -17 q 254 8 311 -17 q 157 81 197 33 q 94 199 117 129 q 72 356 72 268 q 94 512 72 443 q 157 628 117 581 q 254 702 197 676 q 382 728 311 728 q 510 702 453 728 q 607 628 567 676 q 669 512 647 581 q 692 356 692 443 q 669 199 692 268 q 607 81 647 129 q 510 8 567 33 q 382 -17 453 -17 m 382 54 q 547 119 486 54 q 607 311 607 185 l 607 400 q 547 591 607 525 q 382 657 486 657 q 217 592 278 657 q 157 400 157 526 l 157 311 q 217 120 157 186 q 382 54 278 54 m 432 1050 l 596 857 l 551 825 l 383 993 l 215 825 l 171 857 l 335 1050 l 432 1050 z "},"ö":{"ha":764,"x_min":72,"x_max":692,"o":"m 382 -17 q 254 8 311 -17 q 157 81 197 33 q 94 199 117 129 q 72 356 72 268 q 94 512 72 443 q 157 628 117 581 q 254 702 197 676 q 382 728 311 728 q 510 702 453 728 q 607 628 567 676 q 669 512 647 581 q 692 356 692 443 q 669 199 692 268 q 607 81 647 129 q 510 8 567 33 q 382 -17 453 -17 m 382 54 q 547 119 486 54 q 607 311 607 185 l 607 400 q 547 591 607 525 q 382 657 486 657 q 217 592 278 657 q 157 400 157 526 l 157 311 q 217 120 157 186 q 382 54 278 54 m 256 871 q 214 885 226 871 q 201 921 201 899 l 201 935 q 214 971 201 957 q 256 985 226 985 q 297 971 283 985 q 310 935 310 957 l 310 921 q 297 885 310 899 q 256 871 283 871 m 511 871 q 470 885 483 871 q 457 921 457 899 l 457 935 q 470 971 457 957 q 511 985 483 985 q 553 971 540 985 q 565 935 565 957 l 565 921 q 553 885 565 899 q 511 871 540 871 z "},"ò":{"ha":764,"x_min":72,"x_max":692,"o":"m 382 -17 q 254 8 311 -17 q 157 81 197 33 q 94 199 117 129 q 72 356 72 268 q 94 512 72 443 q 157 628 117 581 q 254 702 197 676 q 382 728 311 728 q 510 702 453 728 q 607 628 567 676 q 669 512 647 581 q 692 356 692 443 q 669 199 692 268 q 607 81 647 129 q 510 8 567 33 q 382 -17 453 -17 m 382 54 q 547 119 486 54 q 607 311 607 185 l 607 400 q 547 591 607 525 q 382 657 486 657 q 217 592 278 657 q 157 400 157 526 l 157 311 q 217 120 157 186 q 382 54 278 54 m 235 1031 l 307 1067 l 439 839 l 386 814 l 235 1031 z "},"ø":{"ha":772,"x_min":50,"x_max":724,"o":"m 50 -14 l 144 103 q 94 213 113 150 q 76 356 76 276 q 99 512 76 443 q 161 628 121 581 q 258 702 201 676 q 386 728 315 728 q 589 653 507 728 l 679 765 l 724 731 l 626 610 q 678 499 660 563 q 696 356 696 435 q 674 199 696 268 q 611 81 651 129 q 514 8 571 33 q 386 -17 457 -17 q 182 60 263 -17 l 96 -49 l 50 -14 m 386 54 q 551 119 490 54 q 611 311 611 185 l 611 400 q 578 550 611 492 l 228 115 q 386 54 286 54 m 161 311 q 193 163 161 224 l 543 597 q 386 657 486 657 q 222 592 282 657 q 161 400 161 526 l 161 311 z "},"õ":{"ha":764,"x_min":72,"x_max":692,"o":"m 382 -17 q 254 8 311 -17 q 157 81 197 33 q 94 199 117 129 q 72 356 72 268 q 94 512 72 443 q 157 628 117 581 q 254 702 197 676 q 382 728 311 728 q 510 702 453 728 q 607 628 567 676 q 669 512 647 581 q 692 356 692 443 q 669 199 692 268 q 607 81 647 129 q 510 8 567 33 q 382 -17 453 -17 m 382 54 q 547 119 486 54 q 607 311 607 185 l 607 400 q 547 591 607 525 q 382 657 486 657 q 217 592 278 657 q 157 400 157 526 l 157 311 q 217 120 157 186 q 382 54 278 54 m 483 858 q 426 869 451 858 q 374 897 401 881 q 320 924 342 917 q 279 932 299 932 q 236 921 256 932 q 194 890 217 910 l 160 931 q 213 978 182 958 q 283 997 243 997 q 340 986 315 997 q 393 958 365 975 q 447 931 425 939 q 488 924 468 924 q 531 935 511 924 q 572 965 550 946 l 607 925 q 554 878 585 897 q 483 858 524 858 z "},"œ":{"ha":1290,"x_min":72,"x_max":1218,"o":"m 383 54 q 547 120 486 54 q 608 311 608 186 l 608 400 q 547 592 608 526 q 383 657 486 657 q 218 592 279 657 q 157 400 157 526 l 157 311 q 218 120 157 186 q 383 54 279 54 m 1132 401 l 1132 413 q 1117 515 1132 468 q 1074 593 1101 561 q 1006 643 1046 625 q 919 661 967 661 q 825 642 867 661 q 753 590 783 624 q 708 510 724 557 q 692 408 692 464 l 692 401 l 1132 401 m 926 -17 q 753 32 822 -17 q 654 167 685 81 l 649 167 q 549 33 619 82 q 383 -17 479 -17 q 255 8 313 -17 q 157 81 197 33 q 94 199 117 129 q 72 356 72 268 q 94 512 72 443 q 157 628 117 581 q 255 702 197 676 q 383 728 313 728 q 549 681 481 728 q 650 546 618 635 l 656 546 q 753 680 686 632 q 919 728 821 728 q 1042 702 988 728 q 1136 631 1097 676 q 1197 520 1175 585 q 1218 378 1218 456 l 1218 340 l 692 340 l 692 306 q 753 122 692 192 q 926 53 814 53 q 1055 89 1001 53 q 1139 196 1108 125 l 1197 157 q 1097 33 1167 83 q 926 -17 1026 -17 z "},"š":{"ha":663,"x_min":57,"x_max":583,"o":"m 331 -17 q 172 18 238 -17 q 57 119 106 53 l 115 165 q 213 79 160 107 q 336 51 265 51 q 463 86 418 51 q 507 186 507 121 q 473 276 507 243 q 361 319 439 308 l 303 329 q 214 350 254 336 q 145 388 174 364 q 101 445 117 411 q 85 528 85 479 q 103 615 85 578 q 154 678 122 653 q 231 715 186 703 q 326 728 275 728 q 472 697 415 728 q 569 618 529 667 l 517 569 q 442 631 489 603 q 322 660 396 660 q 203 626 246 660 q 161 532 161 593 q 199 442 161 469 q 314 401 238 414 l 371 393 q 531 328 479 376 q 583 194 583 281 q 516 39 583 94 q 331 -17 449 -17 m 275 835 l 111 1028 l 156 1060 l 324 892 l 492 1060 l 536 1028 l 372 835 l 275 835 z "},"ß":{"ha":892,"x_min":46,"x_max":842,"o":"m 842 194 q 778 39 842 94 q 601 -17 714 -17 q 453 13 515 -17 q 347 106 392 43 l 403 151 q 492 75 444 99 q 606 51 540 51 q 724 86 683 51 q 765 186 765 121 q 738 272 765 242 q 647 318 711 303 l 597 329 q 521 353 556 339 q 461 389 486 367 q 422 444 436 411 q 407 522 407 476 q 478 667 407 618 q 668 717 550 715 l 668 729 q 615 914 668 851 q 457 976 563 976 q 299 914 351 976 q 247 729 247 851 l 247 0 l 168 0 l 168 642 l 46 642 l 46 711 l 168 711 l 168 724 q 188 856 168 796 q 244 957 207 915 q 334 1022 281 999 q 457 1044 388 1044 q 579 1022 525 1044 q 670 957 633 999 q 726 856 707 915 q 746 724 746 796 l 746 654 l 697 654 q 542 624 600 654 q 483 526 483 594 q 515 442 483 468 q 608 400 546 415 l 657 389 q 796 322 750 365 q 842 194 842 278 z "},"þ":{"ha":797,"x_min":129,"x_max":722,"o":"m 129 1028 l 208 1028 l 208 597 l 213 597 q 293 692 239 657 q 429 728 347 728 q 644 631 567 728 q 722 356 722 533 q 644 81 722 178 q 429 -17 567 -17 q 294 19 347 -17 q 213 114 242 54 l 208 114 l 208 -278 l 129 -278 l 129 1028 m 411 54 q 578 122 518 54 q 638 306 638 190 l 638 406 q 578 589 638 521 q 411 657 518 657 q 333 645 369 657 q 268 613 296 633 q 224 563 240 592 q 208 499 208 533 l 208 217 q 224 149 208 179 q 268 98 240 119 q 333 65 296 76 q 411 54 369 54 z "},"ú":{"ha":782,"x_min":119,"x_max":653,"o":"m 574 113 l 568 113 q 542 64 558 88 q 500 23 525 40 q 441 -6 475 6 q 361 -17 407 -17 q 183 53 247 -17 q 119 254 119 124 l 119 711 l 199 711 l 199 269 q 246 107 199 160 q 382 54 293 54 q 453 64 419 54 q 515 93 488 74 q 558 142 542 113 q 574 213 574 172 l 574 711 l 653 711 l 653 0 l 574 0 l 574 113 m 383 814 l 332 839 l 464 1067 l 536 1031 l 383 814 z "},"û":{"ha":782,"x_min":119,"x_max":653,"o":"m 574 113 l 568 113 q 542 64 558 88 q 500 23 525 40 q 441 -6 475 6 q 361 -17 407 -17 q 183 53 247 -17 q 119 254 119 124 l 119 711 l 199 711 l 199 269 q 246 107 199 160 q 382 54 293 54 q 453 64 419 54 q 515 93 488 74 q 558 142 542 113 q 574 213 574 172 l 574 711 l 653 711 l 653 0 l 574 0 l 574 113 m 436 1050 l 600 857 l 556 825 l 388 993 l 219 825 l 175 857 l 339 1050 l 436 1050 z "},"ü":{"ha":782,"x_min":119,"x_max":653,"o":"m 574 113 l 568 113 q 542 64 558 88 q 500 23 525 40 q 441 -6 475 6 q 361 -17 407 -17 q 183 53 247 -17 q 119 254 119 124 l 119 711 l 199 711 l 199 269 q 246 107 199 160 q 382 54 293 54 q 453 64 419 54 q 515 93 488 74 q 558 142 542 113 q 574 213 574 172 l 574 711 l 653 711 l 653 0 l 574 0 l 574 113 m 260 871 q 218 885 231 871 q 206 921 206 899 l 206 935 q 218 971 206 957 q 260 985 231 985 q 301 971 288 985 q 314 935 314 957 l 314 921 q 301 885 314 899 q 260 871 288 871 m 515 871 q 474 885 488 871 q 461 921 461 899 l 461 935 q 474 971 461 957 q 515 985 488 985 q 557 971 544 985 q 569 935 569 957 l 569 921 q 557 885 569 899 q 515 871 544 871 z "},"ù":{"ha":782,"x_min":119,"x_max":653,"o":"m 574 113 l 568 113 q 542 64 558 88 q 500 23 525 40 q 441 -6 475 6 q 361 -17 407 -17 q 183 53 247 -17 q 119 254 119 124 l 119 711 l 199 711 l 199 269 q 246 107 199 160 q 382 54 293 54 q 453 64 419 54 q 515 93 488 74 q 558 142 542 113 q 574 213 574 172 l 574 711 l 653 711 l 653 0 l 574 0 l 574 113 m 239 1031 l 311 1067 l 443 839 l 390 814 l 239 1031 z "},"ý":{"ha":668,"x_min":31,"x_max":635,"o":"m 554 711 l 635 711 l 306 -200 q 265 -261 289 -244 q 188 -278 242 -278 l 107 -278 l 107 -208 l 226 -208 l 294 -21 l 31 711 l 114 711 l 332 85 l 338 85 l 554 711 m 332 814 l 281 839 l 413 1067 l 485 1031 l 332 814 z "},"ÿ":{"ha":668,"x_min":31,"x_max":635,"o":"m 554 711 l 635 711 l 306 -200 q 265 -261 289 -244 q 188 -278 242 -278 l 107 -278 l 107 -208 l 226 -208 l 294 -21 l 31 711 l 114 711 l 332 85 l 338 85 l 554 711 m 208 871 q 167 885 179 871 q 154 921 154 899 l 154 935 q 167 971 154 957 q 208 985 179 985 q 249 971 236 985 q 263 935 263 957 l 263 921 q 249 885 263 899 q 208 871 236 871 m 464 871 q 423 885 436 871 q 410 921 410 899 l 410 935 q 423 971 410 957 q 464 985 436 985 q 506 971 493 985 q 518 935 518 957 l 518 921 q 506 885 518 899 q 464 871 493 871 z "},"ž":{"ha":619,"x_min":43,"x_max":579,"o":"m 43 0 l 43 68 l 474 642 l 56 642 l 56 711 l 568 711 l 568 649 l 132 69 l 579 69 l 579 0 l 43 0 m 263 835 l 99 1028 l 143 1060 l 311 892 l 479 1060 l 524 1028 l 360 835 l 263 835 z "},"Á":{"ha":868,"x_min":38,"x_max":832,"o":"m 744 0 l 639 301 l 226 301 l 121 0 l 38 0 l 381 969 l 488 969 l 832 0 l 744 0 m 435 890 l 429 890 l 247 374 l 617 374 l 435 890 m 431 1056 l 379 1081 l 511 1308 l 583 1272 l 431 1056 z "},"Â":{"ha":868,"x_min":38,"x_max":832,"o":"m 744 0 l 639 301 l 226 301 l 121 0 l 38 0 l 381 969 l 488 969 l 832 0 l 744 0 m 435 890 l 429 890 l 247 374 l 617 374 l 435 890 m 483 1292 l 647 1099 l 603 1067 l 435 1233 l 267 1067 l 222 1099 l 386 1292 l 483 1292 z "},"Ä":{"ha":868,"x_min":38,"x_max":832,"o":"m 744 0 l 639 301 l 226 301 l 121 0 l 38 0 l 381 969 l 488 969 l 832 0 l 744 0 m 435 890 l 429 890 l 247 374 l 617 374 l 435 890 m 307 1111 q 265 1126 278 1111 q 251 1163 251 1140 l 251 1176 q 265 1213 251 1199 q 307 1228 278 1228 q 348 1213 335 1228 q 361 1176 361 1199 l 361 1163 q 348 1126 361 1140 q 307 1111 335 1111 m 563 1111 q 522 1126 535 1111 q 508 1163 508 1140 l 508 1176 q 522 1213 508 1199 q 563 1228 535 1228 q 605 1213 592 1228 q 618 1176 618 1199 l 618 1163 q 605 1126 618 1140 q 563 1111 592 1111 z "},"À":{"ha":868,"x_min":38,"x_max":832,"o":"m 744 0 l 639 301 l 226 301 l 121 0 l 38 0 l 381 969 l 488 969 l 832 0 l 744 0 m 435 890 l 429 890 l 247 374 l 617 374 l 435 890 m 286 1272 l 358 1308 l 490 1081 l 438 1056 l 286 1272 z "},"Å":{"ha":868,"x_min":38,"x_max":832,"o":"m 744 0 l 639 301 l 226 301 l 121 0 l 38 0 l 381 969 l 488 969 l 832 0 l 744 0 m 435 890 l 429 890 l 247 374 l 617 374 l 435 890 m 435 1049 q 329 1090 371 1049 q 288 1196 288 1131 q 329 1301 288 1260 q 435 1342 371 1342 q 540 1301 499 1342 q 582 1196 582 1260 q 540 1090 582 1131 q 435 1049 499 1049 m 435 1100 q 499 1122 475 1100 q 522 1183 522 1144 l 522 1207 q 499 1269 522 1247 q 435 1290 475 1290 q 371 1269 394 1290 q 347 1207 347 1247 l 347 1183 q 371 1122 347 1144 q 435 1100 394 1100 z "},"Ã":{"ha":868,"x_min":38,"x_max":832,"o":"m 744 0 l 639 301 l 226 301 l 121 0 l 38 0 l 381 969 l 488 969 l 832 0 l 744 0 m 435 890 l 429 890 l 247 374 l 617 374 l 435 890 m 535 1100 q 478 1112 503 1100 q 425 1139 453 1124 q 372 1165 393 1157 q 331 1172 350 1172 q 288 1162 307 1172 q 246 1132 268 1151 l 211 1172 q 264 1219 233 1200 q 335 1239 294 1239 q 392 1227 367 1239 q 444 1200 417 1215 q 498 1174 476 1182 q 539 1167 519 1167 q 582 1177 563 1167 q 624 1207 601 1188 l 658 1167 q 606 1119 636 1139 q 535 1100 575 1100 z "},"Æ":{"ha":1233,"x_min":4,"x_max":1142,"o":"m 574 300 l 247 300 l 90 0 l 4 0 l 514 969 l 1142 969 l 1142 896 l 657 896 l 657 529 l 1118 529 l 1118 456 l 657 456 l 657 74 l 1142 74 l 1142 0 l 574 0 l 574 300 m 557 896 l 282 374 l 574 374 l 574 896 l 557 896 z "},"Ç":{"ha":857,"x_min":88,"x_max":793,"o":"m 465 911 q 253 814 329 911 q 176 536 176 717 l 176 426 q 253 153 176 247 q 465 58 329 58 q 628 108 563 58 q 725 240 693 157 l 793 200 q 676 48 753 106 q 490 -15 599 -10 l 474 -92 l 476 -94 q 526 -87 504 -87 q 594 -110 567 -87 q 621 -176 621 -133 q 581 -256 621 -228 q 482 -285 540 -285 q 400 -269 432 -285 q 354 -233 368 -253 l 393 -190 q 428 -218 407 -207 q 482 -229 450 -229 q 533 -216 513 -229 q 553 -175 553 -203 q 534 -137 553 -153 q 461 -115 515 -122 l 418 -111 l 438 -15 q 179 118 271 -7 q 88 482 88 243 q 186 857 88 728 q 465 986 285 986 q 662 931 582 986 q 786 779 742 875 l 718 739 q 622 865 686 818 q 465 911 557 911 z "},"Đ":{"ha":929,"x_min":29,"x_max":842,"o":"m 142 481 l 29 481 l 29 544 l 142 544 l 142 969 l 450 969 q 740 849 638 969 q 842 485 842 728 q 740 121 842 242 q 450 0 638 0 l 142 0 l 142 481 m 451 74 q 674 166 594 74 q 753 421 753 258 l 753 549 q 674 803 753 711 q 451 896 594 896 l 225 896 l 225 544 l 433 544 l 433 481 l 225 481 l 225 74 l 451 74 z "},"Ð":{"ha":929,"x_min":29,"x_max":842,"o":"m 142 481 l 29 481 l 29 544 l 142 544 l 142 969 l 450 969 q 740 849 638 969 q 842 485 842 728 q 740 121 842 242 q 450 0 638 0 l 142 0 l 142 481 m 451 74 q 674 166 594 74 q 753 421 753 258 l 753 549 q 674 803 753 711 q 451 896 594 896 l 225 896 l 225 544 l 433 544 l 433 481 l 225 481 l 225 74 l 451 74 z "},"É":{"ha":797,"x_min":138,"x_max":704,"o":"m 138 0 l 138 969 l 704 969 l 704 896 l 221 896 l 221 529 l 681 529 l 681 456 l 221 456 l 221 74 l 704 74 l 704 0 l 138 0 m 415 1056 l 364 1081 l 496 1308 l 568 1272 l 415 1056 z "},"Ê":{"ha":797,"x_min":138,"x_max":704,"o":"m 138 0 l 138 969 l 704 969 l 704 896 l 221 896 l 221 529 l 681 529 l 681 456 l 221 456 l 221 74 l 704 74 l 704 0 l 138 0 m 468 1292 l 632 1099 l 588 1067 l 419 1233 l 251 1067 l 207 1099 l 371 1292 l 468 1292 z "},"Ë":{"ha":797,"x_min":138,"x_max":704,"o":"m 138 0 l 138 969 l 704 969 l 704 896 l 221 896 l 221 529 l 681 529 l 681 456 l 221 456 l 221 74 l 704 74 l 704 0 l 138 0 m 292 1111 q 249 1126 263 1111 q 236 1163 236 1140 l 236 1176 q 249 1213 236 1199 q 292 1228 263 1228 q 333 1213 319 1228 q 346 1176 346 1199 l 346 1163 q 333 1126 346 1140 q 292 1111 319 1111 m 547 1111 q 506 1126 519 1111 q 493 1163 493 1140 l 493 1176 q 506 1213 493 1199 q 547 1228 519 1228 q 590 1213 576 1228 q 603 1176 603 1199 l 603 1163 q 590 1126 603 1140 q 547 1111 576 1111 z "},"È":{"ha":797,"x_min":138,"x_max":704,"o":"m 138 0 l 138 969 l 704 969 l 704 896 l 221 896 l 221 529 l 681 529 l 681 456 l 221 456 l 221 74 l 704 74 l 704 0 l 138 0 m 271 1272 l 343 1308 l 475 1081 l 422 1056 l 271 1272 z "},"Í":{"ha":542,"x_min":88,"x_max":454,"o":"m 88 0 l 88 69 l 229 69 l 229 900 l 88 900 l 88 969 l 454 969 l 454 900 l 313 900 l 313 69 l 454 69 l 454 0 l 88 0 m 267 1056 l 215 1081 l 347 1308 l 419 1272 l 267 1056 z "},"Î":{"ha":542,"x_min":58,"x_max":483,"o":"m 88 0 l 88 69 l 229 69 l 229 900 l 88 900 l 88 969 l 454 969 l 454 900 l 313 900 l 313 69 l 454 69 l 454 0 l 88 0 m 319 1292 l 483 1099 l 439 1067 l 271 1233 l 103 1067 l 58 1099 l 222 1292 l 319 1292 z "},"Ï":{"ha":542,"x_min":88,"x_max":454,"o":"m 88 0 l 88 69 l 229 69 l 229 900 l 88 900 l 88 969 l 454 969 l 454 900 l 313 900 l 313 69 l 454 69 l 454 0 l 88 0 m 143 1111 q 101 1126 114 1111 q 88 1163 88 1140 l 88 1176 q 101 1213 88 1199 q 143 1228 114 1228 q 184 1213 171 1228 q 197 1176 197 1199 l 197 1163 q 184 1126 197 1140 q 143 1111 171 1111 m 399 1111 q 358 1126 371 1111 q 344 1163 344 1140 l 344 1176 q 358 1213 344 1199 q 399 1228 371 1228 q 441 1213 428 1228 q 454 1176 454 1199 l 454 1163 q 441 1126 454 1140 q 399 1111 428 1111 z "},"Ì":{"ha":542,"x_min":88,"x_max":454,"o":"m 88 0 l 88 69 l 229 69 l 229 900 l 88 900 l 88 969 l 454 969 l 454 900 l 313 900 l 313 69 l 454 69 l 454 0 l 88 0 m 122 1272 l 194 1308 l 326 1081 l 274 1056 l 122 1272 z "},"Ĳ":{"ha":889,"x_min":129,"x_max":760,"o":"m 760 969 l 760 300 q 676 66 760 149 q 439 -17 592 -17 q 230 42 304 -17 q 133 203 156 100 l 208 221 q 283 101 228 143 q 442 58 338 58 q 615 115 554 58 q 676 286 676 171 l 676 894 l 442 894 l 442 969 l 760 969 m 129 969 l 213 969 l 213 403 l 129 403 l 129 969 z "},"Ł":{"ha":686,"x_min":1,"x_max":653,"o":"m 653 0 l 142 0 l 142 393 l 1 349 l 1 415 l 142 463 l 142 969 l 225 969 l 225 490 l 489 576 l 489 506 l 225 421 l 225 75 l 653 75 l 653 0 z "},"Ñ":{"ha":974,"x_min":138,"x_max":836,"o":"m 222 856 l 218 856 l 218 0 l 138 0 l 138 969 l 242 969 l 751 114 l 756 114 l 756 969 l 836 969 l 836 0 l 732 0 l 222 856 m 586 1100 q 529 1112 554 1100 q 476 1139 504 1124 q 423 1165 444 1157 q 382 1172 401 1172 q 339 1162 358 1172 q 297 1132 319 1151 l 263 1172 q 315 1219 285 1200 q 386 1239 346 1239 q 443 1227 418 1239 q 496 1200 468 1215 q 549 1174 528 1182 q 590 1167 571 1167 q 633 1177 614 1167 q 675 1207 653 1188 l 710 1167 q 657 1119 688 1139 q 586 1100 626 1100 z "},"Ó":{"ha":968,"x_min":88,"x_max":881,"o":"m 485 -17 q 193 110 299 -17 q 88 485 88 238 q 193 859 88 732 q 485 986 299 986 q 775 858 669 986 q 881 485 881 731 q 775 111 881 239 q 485 -17 669 -17 m 485 58 q 610 83 554 58 q 707 154 667 107 q 769 269 747 201 q 792 424 792 338 l 792 546 q 769 700 792 632 q 707 815 747 768 q 610 886 667 861 q 485 911 554 911 q 358 886 415 911 q 261 815 301 861 q 199 700 221 768 q 176 546 176 632 l 176 424 q 199 269 176 338 q 261 154 221 201 q 358 83 301 107 q 485 58 415 58 m 481 1056 l 429 1081 l 561 1308 l 633 1272 l 481 1056 z "},"Ô":{"ha":968,"x_min":88,"x_max":881,"o":"m 485 -17 q 193 110 299 -17 q 88 485 88 238 q 193 859 88 732 q 485 986 299 986 q 775 858 669 986 q 881 485 881 731 q 775 111 881 239 q 485 -17 669 -17 m 485 58 q 610 83 554 58 q 707 154 667 107 q 769 269 747 201 q 792 424 792 338 l 792 546 q 769 700 792 632 q 707 815 747 768 q 610 886 667 861 q 485 911 554 911 q 358 886 415 911 q 261 815 301 861 q 199 700 221 768 q 176 546 176 632 l 176 424 q 199 269 176 338 q 261 154 221 201 q 358 83 301 107 q 485 58 415 58 m 533 1292 l 697 1099 l 653 1067 l 485 1233 l 317 1067 l 272 1099 l 436 1292 l 533 1292 z "},"Ö":{"ha":968,"x_min":88,"x_max":881,"o":"m 485 -17 q 193 110 299 -17 q 88 485 88 238 q 193 859 88 732 q 485 986 299 986 q 775 858 669 986 q 881 485 881 731 q 775 111 881 239 q 485 -17 669 -17 m 485 58 q 610 83 554 58 q 707 154 667 107 q 769 269 747 201 q 792 424 792 338 l 792 546 q 769 700 792 632 q 707 815 747 768 q 610 886 667 861 q 485 911 554 911 q 358 886 415 911 q 261 815 301 861 q 199 700 221 768 q 176 546 176 632 l 176 424 q 199 269 176 338 q 261 154 221 201 q 358 83 301 107 q 485 58 415 58 m 357 1111 q 315 1126 328 1111 q 301 1163 301 1140 l 301 1176 q 315 1213 301 1199 q 357 1228 328 1228 q 398 1213 385 1228 q 411 1176 411 1199 l 411 1163 q 398 1126 411 1140 q 357 1111 385 1111 m 613 1111 q 572 1126 585 1111 q 558 1163 558 1140 l 558 1176 q 572 1213 558 1199 q 613 1228 585 1228 q 655 1213 642 1228 q 668 1176 668 1199 l 668 1163 q 655 1126 668 1140 q 613 1111 642 1111 z "},"Ò":{"ha":968,"x_min":88,"x_max":881,"o":"m 485 -17 q 193 110 299 -17 q 88 485 88 238 q 193 859 88 732 q 485 986 299 986 q 775 858 669 986 q 881 485 881 731 q 775 111 881 239 q 485 -17 669 -17 m 485 58 q 610 83 554 58 q 707 154 667 107 q 769 269 747 201 q 792 424 792 338 l 792 546 q 769 700 792 632 q 707 815 747 768 q 610 886 667 861 q 485 911 554 911 q 358 886 415 911 q 261 815 301 861 q 199 700 221 768 q 176 546 176 632 l 176 424 q 199 269 176 338 q 261 154 221 201 q 358 83 301 107 q 485 58 415 58 m 336 1272 l 408 1308 l 540 1081 l 488 1056 l 336 1272 z "},"Ø":{"ha":968,"x_min":88,"x_max":881,"o":"m 485 -17 q 236 69 333 -17 l 150 -56 l 92 -18 l 188 118 q 88 485 88 247 q 193 859 88 732 q 485 986 299 986 q 732 901 632 986 l 818 1025 l 876 988 l 781 851 q 881 485 881 722 q 775 111 881 239 q 485 -17 669 -17 m 176 424 q 192 292 176 351 q 235 189 207 233 l 686 836 q 485 911 608 911 q 358 886 415 911 q 261 815 301 861 q 199 700 221 768 q 176 546 176 632 l 176 424 m 792 546 q 733 781 792 690 l 282 133 q 485 58 358 58 q 610 83 554 58 q 707 154 667 107 q 769 269 747 201 q 792 424 792 338 l 792 546 z "},"Õ":{"ha":968,"x_min":88,"x_max":881,"o":"m 485 -17 q 193 110 299 -17 q 88 485 88 238 q 193 859 88 732 q 485 986 299 986 q 775 858 669 986 q 881 485 881 731 q 775 111 881 239 q 485 -17 669 -17 m 485 58 q 610 83 554 58 q 707 154 667 107 q 769 269 747 201 q 792 424 792 338 l 792 546 q 769 700 792 632 q 707 815 747 768 q 610 886 667 861 q 485 911 554 911 q 358 886 415 911 q 261 815 301 861 q 199 700 221 768 q 176 546 176 632 l 176 424 q 199 269 176 338 q 261 154 221 201 q 358 83 301 107 q 485 58 415 58 m 585 1100 q 528 1112 553 1100 q 475 1139 503 1124 q 422 1165 443 1157 q 381 1172 400 1172 q 338 1162 357 1172 q 296 1132 318 1151 l 261 1172 q 314 1219 283 1200 q 385 1239 344 1239 q 442 1227 417 1239 q 494 1200 467 1215 q 548 1174 526 1182 q 589 1167 569 1167 q 632 1177 613 1167 q 674 1207 651 1188 l 708 1167 q 656 1119 686 1139 q 585 1100 625 1100 z "},"Œ":{"ha":1357,"x_min":88,"x_max":1265,"o":"m 697 0 q 610 -12 661 -7 q 511 -17 560 -17 q 198 110 308 -17 q 88 485 88 236 q 198 860 88 733 q 511 986 308 986 q 610 981 560 986 q 697 969 661 976 l 1265 969 l 1265 896 l 781 896 l 781 529 l 1242 529 l 1242 456 l 781 456 l 781 74 l 1265 74 l 1265 0 l 697 0 m 519 58 q 615 64 568 58 q 697 81 661 69 l 697 889 q 615 906 661 900 q 519 911 568 911 q 263 815 350 911 q 176 546 176 719 l 176 424 q 263 154 176 250 q 519 58 350 58 z "},"Š":{"ha":789,"x_min":58,"x_max":713,"o":"m 394 -17 q 195 28 275 -17 q 58 149 115 74 l 121 200 q 237 94 172 132 q 397 57 301 57 q 570 110 510 57 q 631 260 631 164 q 579 390 631 349 q 435 451 528 432 l 349 469 q 147 563 210 497 q 85 729 85 628 q 107 841 85 793 q 170 921 129 889 q 269 969 211 953 q 396 986 326 986 q 579 947 504 986 q 703 838 654 908 l 640 792 q 540 881 600 850 q 392 913 479 913 q 227 867 288 913 q 167 732 167 822 q 221 606 167 646 q 365 547 275 565 l 451 529 q 654 431 596 497 q 713 264 713 364 q 628 57 713 131 q 394 -17 543 -17 m 342 1075 l 178 1269 l 222 1301 l 390 1133 l 558 1301 l 603 1269 l 439 1075 l 342 1075 z "},"ẞ":{"ha":961,"x_min":138,"x_max":888,"o":"m 888 269 q 808 57 888 131 q 594 -17 728 -17 q 435 16 500 -17 q 325 111 369 49 l 383 160 q 472 83 421 111 q 594 54 524 54 q 744 103 689 54 q 799 244 799 153 l 799 293 q 742 435 799 383 q 571 486 686 486 l 478 486 l 478 563 l 740 896 l 221 896 l 221 0 l 138 0 l 138 969 l 825 969 l 825 888 l 568 561 l 568 556 q 806 481 724 554 q 888 269 888 408 z "},"Þ":{"ha":835,"x_min":138,"x_max":778,"o":"m 138 0 l 138 969 l 221 969 l 221 763 l 518 763 q 711 690 644 763 q 778 492 778 617 q 711 294 778 367 q 518 221 644 221 l 221 221 l 221 0 l 138 0 m 221 294 l 518 294 q 645 341 601 294 q 689 460 689 388 l 689 524 q 645 642 689 596 q 518 689 601 689 l 221 689 l 221 294 z "},"Ú":{"ha":928,"x_min":129,"x_max":799,"o":"m 213 969 l 213 371 q 225 231 213 290 q 267 134 238 172 q 344 77 296 96 q 464 58 393 58 q 583 77 535 58 q 660 134 631 96 q 703 231 690 172 q 715 371 715 290 l 715 969 l 799 969 l 799 389 q 781 206 799 282 q 723 80 763 129 q 619 7 683 31 q 461 -17 554 -17 q 304 7 368 -17 q 201 80 240 31 q 146 206 163 129 q 129 389 129 282 l 129 969 l 213 969 m 457 1056 l 406 1081 l 538 1308 l 610 1272 l 457 1056 z "},"Û":{"ha":928,"x_min":129,"x_max":799,"o":"m 213 969 l 213 371 q 225 231 213 290 q 267 134 238 172 q 344 77 296 96 q 464 58 393 58 q 583 77 535 58 q 660 134 631 96 q 703 231 690 172 q 715 371 715 290 l 715 969 l 799 969 l 799 389 q 781 206 799 282 q 723 80 763 129 q 619 7 683 31 q 461 -17 554 -17 q 304 7 368 -17 q 201 80 240 31 q 146 206 163 129 q 129 389 129 282 l 129 969 l 213 969 m 510 1292 l 674 1099 l 629 1067 l 461 1233 l 293 1067 l 249 1099 l 413 1292 l 510 1292 z "},"Ü":{"ha":928,"x_min":129,"x_max":799,"o":"m 213 969 l 213 371 q 225 231 213 290 q 267 134 238 172 q 344 77 296 96 q 464 58 393 58 q 583 77 535 58 q 660 134 631 96 q 703 231 690 172 q 715 371 715 290 l 715 969 l 799 969 l 799 389 q 781 206 799 282 q 723 80 763 129 q 619 7 683 31 q 461 -17 554 -17 q 304 7 368 -17 q 201 80 240 31 q 146 206 163 129 q 129 389 129 282 l 129 969 l 213 969 m 333 1111 q 291 1126 304 1111 q 278 1163 278 1140 l 278 1176 q 291 1213 278 1199 q 333 1228 304 1228 q 374 1213 361 1228 q 388 1176 388 1199 l 388 1163 q 374 1126 388 1140 q 333 1111 361 1111 m 589 1111 q 548 1126 561 1111 q 535 1163 535 1140 l 535 1176 q 548 1213 535 1199 q 589 1228 561 1228 q 631 1213 618 1228 q 644 1176 644 1199 l 644 1163 q 631 1126 644 1140 q 589 1111 618 1111 z "},"Ù":{"ha":928,"x_min":129,"x_max":799,"o":"m 213 969 l 213 371 q 225 231 213 290 q 267 134 238 172 q 344 77 296 96 q 464 58 393 58 q 583 77 535 58 q 660 134 631 96 q 703 231 690 172 q 715 371 715 290 l 715 969 l 799 969 l 799 389 q 781 206 799 282 q 723 80 763 129 q 619 7 683 31 q 461 -17 554 -17 q 304 7 368 -17 q 201 80 240 31 q 146 206 163 129 q 129 389 129 282 l 129 969 l 213 969 m 313 1272 l 385 1308 l 517 1081 l 464 1056 l 313 1272 z "},"Ý":{"ha":799,"x_min":22,"x_max":776,"o":"m 357 0 l 357 393 l 22 969 l 117 969 l 397 481 l 401 481 l 682 969 l 776 969 l 440 397 l 440 0 l 357 0 m 396 1056 l 344 1081 l 476 1308 l 549 1272 l 396 1056 z "},"Ÿ":{"ha":799,"x_min":22,"x_max":776,"o":"m 357 0 l 357 393 l 22 969 l 117 969 l 397 481 l 401 481 l 682 969 l 776 969 l 440 397 l 440 0 l 357 0 m 272 1111 q 230 1126 243 1111 q 217 1163 217 1140 l 217 1176 q 230 1213 217 1199 q 272 1228 243 1228 q 313 1213 300 1228 q 326 1176 326 1199 l 326 1163 q 313 1126 326 1140 q 272 1111 300 1111 m 528 1111 q 487 1126 500 1111 q 474 1163 474 1140 l 474 1176 q 487 1213 474 1199 q 528 1228 500 1228 q 570 1213 557 1228 q 583 1176 583 1199 l 583 1163 q 570 1126 583 1140 q 528 1111 557 1111 z "},"Ž":{"ha":792,"x_min":51,"x_max":746,"o":"m 746 0 l 51 0 l 51 76 l 633 896 l 82 896 l 82 969 l 724 969 l 724 893 l 140 74 l 746 74 l 746 0 m 357 1075 l 193 1269 l 238 1301 l 406 1133 l 574 1301 l 618 1269 l 454 1075 l 357 1075 z "},"µ":{"ha":792,"x_min":129,"x_max":663,"o":"m 129 -278 l 129 711 l 208 711 l 208 269 q 256 107 208 160 q 392 54 303 54 q 463 64 429 54 q 524 93 497 74 q 567 143 551 113 q 583 214 583 174 l 583 711 l 663 711 l 663 0 l 583 0 l 583 113 l 579 113 q 553 64 569 88 q 511 23 536 40 q 452 -6 486 6 q 374 -17 418 -17 q 204 76 247 -17 l 200 76 l 208 -62 l 208 -278 l 129 -278 z "},"∆":{"ha":869,"x_min":58,"x_max":811,"o":"m 58 74 l 381 969 l 489 969 l 811 74 l 811 0 l 58 0 l 58 74 m 436 890 l 431 890 l 143 74 l 724 74 l 436 890 z "},"∏":{"ha":982,"x_min":79,"x_max":903,"o":"m 185 -278 l 185 896 l 79 896 l 79 969 l 903 969 l 903 896 l 797 896 l 797 -278 l 714 -278 l 714 896 l 268 896 l 268 -278 l 185 -278 z "},"∑":{"ha":688,"x_min":24,"x_max":638,"o":"m 638 -278 l 24 -278 l 24 -206 l 410 343 l 410 349 l 24 897 l 24 969 l 638 969 l 638 896 l 115 896 l 485 372 l 485 319 l 115 -204 l 638 -204 l 638 -278 z "},"Ω":{"ha":985,"x_min":93,"x_max":892,"o":"m 93 74 l 324 74 l 324 92 q 154 258 215 153 q 93 525 93 363 q 117 705 93 621 q 192 851 142 789 q 317 950 242 914 q 493 986 392 986 q 668 950 593 986 q 793 851 743 914 q 867 705 843 789 q 892 525 892 621 q 831 258 892 363 q 661 92 769 153 l 661 74 l 892 74 l 892 0 l 590 0 l 590 121 q 663 168 625 136 q 732 246 701 200 q 783 350 763 292 q 803 476 803 408 l 803 588 q 781 712 803 653 q 719 815 760 771 q 622 885 679 860 q 493 911 564 911 q 363 885 421 911 q 265 815 306 860 q 203 712 225 771 q 182 588 182 653 l 182 476 q 202 350 182 408 q 253 246 222 292 q 321 168 283 200 q 394 121 358 136 l 394 0 l 93 0 l 93 74 z "},"π":{"ha":847,"x_min":36,"x_max":799,"o":"m 654 69 l 749 69 l 749 0 l 663 0 q 597 24 618 0 q 575 85 575 47 l 575 642 l 247 642 l 247 0 l 168 0 l 168 642 l 36 642 l 36 711 l 799 711 l 799 642 l 654 642 l 654 69 z "},"⁰":{"ha":528,"x_min":71,"x_max":457,"o":"m 264 449 q 117 517 163 449 q 71 713 71 585 q 117 910 71 842 q 264 978 163 978 q 411 910 365 978 q 457 714 457 842 q 411 517 457 585 q 264 449 365 449 m 264 501 q 362 548 333 501 q 390 675 390 594 l 390 751 q 362 878 390 832 q 264 925 333 925 q 167 878 196 925 q 138 751 138 832 l 138 675 q 167 548 138 594 q 264 501 196 501 z "},"ء":{"ha":522,"x_min":44,"x_max":483,"o":"m 44 78 l 144 78 l 147 83 q 88 232 88 147 q 102 310 88 274 q 142 373 117 346 q 204 415 168 400 q 285 431 240 431 q 383 410 342 431 q 456 353 424 390 l 403 292 q 347 335 378 324 q 279 347 315 347 q 188 316 226 347 q 149 228 149 285 q 197 122 149 163 q 324 82 244 82 l 483 82 l 483 0 l 44 0 l 44 78 z "},"ﺀ":{"ha":522,"x_min":44,"x_max":483,"o":"m 44 78 l 144 78 l 147 83 q 88 232 88 147 q 102 310 88 274 q 142 373 117 346 q 204 415 168 400 q 285 431 240 431 q 383 410 342 431 q 456 353 424 390 l 403 292 q 347 335 378 324 q 279 347 315 347 q 188 316 226 347 q 149 228 149 285 q 197 122 149 163 q 324 82 244 82 l 483 82 l 483 0 l 44 0 l 44 78 z "},"۽":{"ha":522,"x_min":44,"x_max":483,"o":"m 44 78 l 144 78 l 147 83 q 88 232 88 147 q 102 310 88 274 q 142 373 117 346 q 204 415 168 400 q 285 431 240 431 q 383 410 342 431 q 456 353 424 390 l 403 292 q 347 335 378 324 q 279 347 315 347 q 188 316 226 347 q 149 228 149 285 q 197 122 149 163 q 324 82 244 82 l 483 82 l 483 0 l 44 0 l 44 78 m 215 -100 l 268 -100 l 268 -332 l 215 -332 l 215 -100 m 324 -100 l 376 -100 l 376 -332 l 324 -332 l 324 -100 z "},"ا":{"ha":299,"x_min":113,"x_max":186,"o":"m 113 1028 l 186 1028 l 186 0 l 113 0 l 113 1028 z "},"ﺍ":{"ha":299,"x_min":113,"x_max":186,"o":"m 113 1028 l 186 1028 l 186 0 l 113 0 l 113 1028 z "},"إ":{"ha":299,"x_min":15,"x_max":288,"o":"m 113 1028 l 186 1028 l 186 0 l 113 0 l 113 1028 m 15 -299 l 72 -299 l 74 -294 q 50 -258 58 -279 q 42 -214 42 -236 q 76 -127 42 -161 q 163 -93 110 -93 q 223 -108 193 -93 q 271 -147 253 -122 l 232 -193 q 201 -168 219 -178 q 163 -158 183 -158 q 113 -176 133 -158 q 93 -218 93 -193 q 122 -274 93 -253 q 200 -294 151 -294 l 288 -294 l 288 -360 l 15 -360 l 15 -299 z "},"ﺇ":{"ha":299,"x_min":15,"x_max":288,"o":"m 113 1028 l 186 1028 l 186 0 l 113 0 l 113 1028 m 15 -299 l 72 -299 l 74 -294 q 50 -258 58 -279 q 42 -214 42 -236 q 76 -127 42 -161 q 163 -93 110 -93 q 223 -108 193 -93 q 271 -147 253 -122 l 232 -193 q 201 -168 219 -178 q 163 -158 183 -158 q 113 -176 133 -158 q 93 -218 93 -193 q 122 -274 93 -253 q 200 -294 151 -294 l 288 -294 l 288 -360 l 15 -360 l 15 -299 z "},"ٳ":{"ha":299,"x_min":-26,"x_max":325,"o":"m 113 1028 l 186 1028 l 186 0 l 113 0 l 113 1028 m 25 -360 l 25 -410 l -26 -410 l -26 -361 q -14 -317 -26 -336 q 29 -299 -1 -299 l 111 -299 l 113 -294 q 88 -258 97 -279 q 79 -214 79 -236 q 114 -127 79 -161 q 201 -93 149 -93 q 262 -108 232 -93 q 308 -147 292 -122 l 271 -193 q 240 -168 258 -178 q 201 -158 221 -158 q 151 -176 171 -158 q 132 -218 132 -193 q 161 -274 132 -253 q 239 -294 190 -294 l 325 -294 l 325 -360 l 25 -360 z "},"ٵ":{"ha":299,"x_min":113,"x_max":526,"o":"m 113 1028 l 186 1028 l 186 0 l 113 0 l 113 1028 m 254 889 l 311 889 l 313 893 q 289 930 297 908 q 281 974 281 951 q 315 1060 281 1026 q 401 1094 349 1094 q 462 1080 432 1094 q 510 1040 492 1065 l 471 994 q 440 1019 458 1010 q 401 1029 422 1029 q 352 1012 372 1029 q 332 969 332 994 q 361 914 332 935 q 439 893 390 893 l 526 893 l 526 828 l 254 828 l 254 889 z "},"ﺎ":{"ha":392,"x_min":118,"x_max":392,"o":"m 346 0 q 239 11 282 0 q 169 48 196 22 q 130 115 142 74 q 118 217 118 157 l 118 1028 l 192 1028 l 192 217 q 224 114 192 143 q 329 85 256 85 l 392 85 l 392 22 l 369 0 l 346 0 z "},"ﺈ":{"ha":392,"x_min":39,"x_max":392,"o":"m 346 0 q 239 11 282 0 q 169 48 196 22 q 130 115 142 74 q 118 217 118 157 l 118 1028 l 192 1028 l 192 217 q 224 114 192 143 q 329 85 256 85 l 392 85 l 392 22 l 369 0 l 346 0 m 39 -299 l 96 -299 l 97 -294 q 74 -258 82 -279 q 65 -214 65 -236 q 99 -127 65 -161 q 186 -93 133 -93 q 247 -108 217 -93 q 294 -147 276 -122 l 256 -193 q 225 -168 243 -178 q 186 -158 207 -158 q 137 -176 157 -158 q 117 -218 117 -193 q 146 -274 117 -253 q 224 -294 175 -294 l 311 -294 l 311 -360 l 39 -360 l 39 -299 z "},"أ":{"ha":299,"x_min":14,"x_max":286,"o":"m 113 858 l 186 858 l 186 0 l 113 0 l 113 858 m 14 1031 l 71 1031 l 72 1035 q 49 1072 57 1050 q 40 1115 40 1093 q 74 1202 40 1168 q 161 1236 108 1236 q 222 1222 192 1236 q 269 1182 251 1207 l 231 1136 q 200 1161 218 1151 q 161 1171 182 1171 q 112 1153 132 1171 q 92 1111 92 1136 q 121 1056 92 1076 q 199 1035 150 1035 l 286 1035 l 286 969 l 14 969 l 14 1031 z "},"ﺃ":{"ha":299,"x_min":14,"x_max":286,"o":"m 113 858 l 186 858 l 186 0 l 113 0 l 113 858 m 14 1031 l 71 1031 l 72 1035 q 49 1072 57 1050 q 40 1115 40 1093 q 74 1202 40 1168 q 161 1236 108 1236 q 222 1222 192 1236 q 269 1182 251 1207 l 231 1136 q 200 1161 218 1151 q 161 1171 182 1171 q 112 1153 132 1171 q 92 1111 92 1136 q 121 1056 92 1076 q 199 1035 150 1035 l 286 1035 l 286 969 l 14 969 l 14 1031 z "},"ٲ":{"ha":299,"x_min":-40,"x_max":311,"o":"m 113 858 l 186 858 l 186 0 l 113 0 l 113 858 m 11 969 l 11 919 l -40 919 l -40 968 q -28 1012 -40 993 q 15 1031 -15 1031 l 97 1031 l 99 1035 q 74 1072 83 1050 q 65 1115 65 1093 q 100 1202 65 1168 q 188 1236 135 1236 q 248 1222 218 1236 q 294 1182 278 1207 l 257 1136 q 226 1161 244 1151 q 188 1171 207 1171 q 138 1153 157 1171 q 118 1111 118 1136 q 147 1056 118 1076 q 225 1035 176 1035 l 311 1035 l 311 969 l 11 969 z "},"آ":{"ha":299,"x_min":-32,"x_max":339,"o":"m 113 858 l 186 858 l 186 0 l 113 0 l 113 858 m -32 1003 q -15 1053 -32 1033 q 47 1063 3 1072 l 151 1042 q 199 1033 183 1035 q 228 1031 214 1031 q 269 1041 256 1029 q 292 1085 283 1053 l 339 1064 q 228 967 317 967 q 196 969 214 967 q 139 978 178 971 l 19 1000 l 19 956 l -32 956 l -32 1003 z "},"ﺁ":{"ha":299,"x_min":-32,"x_max":339,"o":"m 113 858 l 186 858 l 186 0 l 113 0 l 113 858 m -32 1003 q -15 1053 -32 1033 q 47 1063 3 1072 l 151 1042 q 199 1033 183 1035 q 228 1031 214 1031 q 269 1041 256 1029 q 292 1085 283 1053 l 339 1064 q 228 967 317 967 q 196 969 214 967 q 139 978 178 971 l 19 1000 l 19 956 l -32 956 l -32 1003 z "},"ٱ":{"ha":299,"x_min":-28,"x_max":338,"o":"m 113 858 l 186 858 l 186 0 l 113 0 l 113 858 m -28 1003 q -10 1053 -28 1033 q 51 1063 7 1072 l 63 1060 l 78 1089 q 226 1203 133 1203 q 308 1173 278 1203 q 338 1086 338 1143 q 308 998 338 1029 q 231 967 279 967 q 199 969 218 967 q 143 978 179 971 l 24 1000 l 24 956 l -28 956 l -28 1003 m 114 1050 l 156 1042 q 203 1033 188 1035 q 231 1032 218 1032 q 271 1045 256 1031 q 286 1083 286 1060 q 269 1123 286 1108 q 219 1138 251 1138 q 122 1067 158 1138 l 114 1050 z "},"ﴽ":{"ha":299,"x_min":-11,"x_max":310,"o":"m 113 858 l 186 858 l 186 0 l 113 0 l 113 858 m 310 1089 l 13 953 l -11 1004 l 286 1140 l 310 1089 m 310 1263 l 13 1126 l -11 1178 l 286 1314 l 310 1263 z "},"ݳ":{"ha":299,"x_min":61,"x_max":292,"o":"m 113 858 l 186 858 l 186 0 l 113 0 l 113 858 m 119 1208 l 182 1208 q 243 1256 243 1208 q 242 1274 243 1263 q 233 1313 240 1285 l 283 1322 q 290 1279 288 1296 q 292 1249 292 1263 q 182 1144 292 1144 l 124 1144 l 135 969 l 83 969 l 61 1317 l 113 1317 l 119 1208 z "},"ݴ":{"ha":299,"x_min":25,"x_max":331,"o":"m 113 858 l 186 858 l 186 0 l 113 0 l 113 858 m 82 1214 l 113 1214 q 149 1222 136 1214 q 163 1261 163 1231 l 163 1300 l 211 1300 l 211 1257 q 247 1208 211 1208 q 282 1254 282 1208 q 280 1279 282 1265 q 271 1318 278 1293 l 319 1328 q 328 1283 326 1300 q 331 1249 331 1265 q 247 1143 331 1143 q 197 1159 217 1143 q 169 1215 176 1175 l 167 1215 q 144 1163 163 1178 q 103 1149 126 1149 l 86 1149 l 99 969 l 47 969 l 25 1317 l 76 1317 l 82 1214 z "},"ﺄ":{"ha":369,"x_min":19,"x_max":369,"o":"m 347 0 q 240 11 283 0 q 169 48 196 22 q 130 115 142 74 q 118 217 118 157 l 118 858 l 192 858 l 192 217 q 224 114 192 143 q 329 85 256 85 l 369 85 l 369 22 l 347 0 m 19 1031 l 76 1031 l 78 1035 q 54 1072 63 1050 q 46 1115 46 1093 q 80 1202 46 1168 q 167 1236 114 1236 q 227 1222 197 1236 q 275 1182 257 1207 l 236 1136 q 206 1161 224 1151 q 167 1171 188 1171 q 117 1153 138 1171 q 97 1111 97 1136 q 126 1056 97 1076 q 204 1035 156 1035 l 292 1035 l 292 969 l 19 969 l 19 1031 z "},"ﺂ":{"ha":369,"x_min":-26,"x_max":369,"o":"m 347 0 q 240 11 283 0 q 169 48 196 22 q 130 115 142 74 q 118 217 118 157 l 118 858 l 192 858 l 192 217 q 224 114 192 143 q 329 85 256 85 l 369 85 l 369 22 l 347 0 m -26 1003 q -9 1053 -26 1033 q 53 1063 8 1072 l 157 1042 q 204 1033 189 1035 q 233 1031 219 1031 q 275 1041 261 1029 q 297 1085 289 1053 l 344 1064 q 233 967 322 967 q 201 969 219 967 q 144 978 183 971 l 25 1000 l 25 956 l -26 956 l -26 1003 z "},"ﭑ":{"ha":369,"x_min":-22,"x_max":369,"o":"m 347 0 q 240 11 283 0 q 169 48 196 22 q 130 115 142 74 q 118 217 118 157 l 118 858 l 192 858 l 192 217 q 224 114 192 143 q 329 85 256 85 l 369 85 l 369 22 l 347 0 m -22 1003 q -5 1053 -22 1033 q 57 1063 13 1072 l 68 1060 l 83 1089 q 232 1203 139 1203 q 313 1173 283 1203 q 343 1086 343 1143 q 314 998 343 1029 q 236 967 285 967 q 204 969 224 967 q 149 978 185 971 l 29 1000 l 29 956 l -22 956 l -22 1003 m 119 1050 l 161 1042 q 208 1033 193 1035 q 236 1032 224 1032 q 276 1045 261 1031 q 292 1083 292 1060 q 274 1123 292 1108 q 225 1138 257 1138 q 128 1067 164 1138 l 119 1050 z "},"ﴼ":{"ha":369,"x_min":-6,"x_max":369,"o":"m 347 0 q 240 11 283 0 q 169 48 196 22 q 130 115 142 74 q 118 217 118 157 l 118 858 l 192 858 l 192 217 q 224 114 192 143 q 329 85 256 85 l 369 85 l 369 22 l 347 0 m 315 1089 l 18 953 l -6 1004 l 292 1140 l 315 1089 m 315 1263 l 18 1126 l -6 1178 l 292 1314 l 315 1263 z "},"ﺒ":{"ha":425,"x_min":-22,"x_max":425,"o":"m -22 63 l 0 85 l 32 85 q 144 119 110 85 q 178 232 178 153 l 178 457 l 247 457 l 247 232 q 385 85 247 85 l 425 85 l 425 22 l 403 0 q 189 133 222 0 l 183 133 q 122 29 168 58 q -22 0 75 0 l -22 63 m 207 -278 q 172 -265 185 -278 q 158 -224 158 -251 q 172 -183 158 -196 q 207 -171 185 -171 l 218 -171 q 253 -183 240 -171 q 267 -224 267 -196 q 253 -265 267 -251 q 218 -278 240 -278 l 207 -278 z "},"ﭙ":{"ha":425,"x_min":-22,"x_max":425,"o":"m -22 63 l 0 85 l 32 85 q 144 119 110 85 q 178 232 178 153 l 178 457 l 247 457 l 247 232 q 385 85 247 85 l 425 85 l 425 22 l 403 0 q 189 133 222 0 l 183 133 q 122 29 168 58 q -22 0 75 0 l -22 63 m 293 -278 q 258 -265 271 -278 q 244 -225 244 -253 q 258 -185 244 -197 q 293 -172 271 -172 l 304 -172 q 340 -185 326 -172 q 353 -225 353 -197 q 340 -265 353 -253 q 304 -278 326 -278 l 293 -278 m 203 -443 q 170 -431 183 -443 q 157 -392 157 -418 q 170 -353 157 -365 q 203 -340 183 -340 l 215 -340 q 249 -353 236 -340 q 263 -392 263 -365 q 249 -431 263 -418 q 215 -443 236 -443 l 203 -443 m 115 -278 q 80 -265 93 -278 q 67 -225 67 -253 q 80 -185 67 -197 q 115 -172 93 -172 l 126 -172 q 162 -185 149 -172 q 175 -225 175 -197 q 162 -265 175 -253 q 126 -278 149 -278 l 115 -278 z "},"ﭕ":{"ha":425,"x_min":-22,"x_max":425,"o":"m -22 63 l 0 85 l 32 85 q 144 119 110 85 q 178 232 178 153 l 178 457 l 247 457 l 247 232 q 385 85 247 85 l 425 85 l 425 22 l 403 0 q 189 133 222 0 l 183 133 q 122 29 168 58 q -22 0 75 0 l -22 63 m 208 -368 q 173 -355 186 -368 q 160 -314 160 -342 q 173 -274 160 -286 q 208 -261 186 -261 l 219 -261 q 255 -274 242 -261 q 268 -314 268 -286 q 255 -355 268 -342 q 219 -368 242 -368 l 208 -368 m 208 -192 q 173 -179 186 -192 q 160 -139 160 -167 q 173 -98 160 -111 q 208 -85 186 -85 l 219 -85 q 255 -98 242 -85 q 268 -139 268 -111 q 255 -179 268 -167 q 219 -192 242 -192 l 208 -192 z "},"ﭝ":{"ha":425,"x_min":-22,"x_max":425,"o":"m -22 63 l 0 85 l 32 85 q 144 119 110 85 q 178 232 178 153 l 178 457 l 247 457 l 247 232 q 385 85 247 85 l 425 85 l 425 22 l 403 0 q 189 133 222 0 l 183 133 q 122 29 168 58 q -22 0 75 0 l -22 63 m 296 -379 q 260 -366 274 -379 q 247 -325 247 -353 q 260 -285 247 -297 q 296 -272 274 -272 l 307 -272 q 342 -285 329 -272 q 356 -325 356 -297 q 342 -366 356 -353 q 307 -379 329 -379 l 296 -379 m 296 -203 q 260 -190 274 -203 q 247 -150 247 -178 q 260 -109 247 -122 q 296 -96 274 -96 l 307 -96 q 342 -109 329 -96 q 356 -150 356 -122 q 342 -190 356 -178 q 307 -203 329 -203 l 296 -203 m 118 -379 q 83 -366 96 -379 q 69 -325 69 -353 q 83 -285 69 -297 q 118 -272 96 -272 l 129 -272 q 165 -285 151 -272 q 178 -325 178 -297 q 165 -366 178 -353 q 129 -379 151 -379 l 118 -379 m 118 -203 q 83 -190 96 -203 q 69 -150 69 -178 q 83 -109 69 -122 q 118 -96 96 -96 l 129 -96 q 165 -109 151 -96 q 178 -150 178 -122 q 165 -190 178 -178 q 129 -203 151 -203 l 118 -203 z "},"ﯩ":{"ha":425,"x_min":-22,"x_max":425,"o":"m -22 63 l 0 85 l 32 85 q 144 119 110 85 q 178 232 178 153 l 178 457 l 247 457 l 247 232 q 385 85 247 85 l 425 85 l 425 22 l 403 0 q 189 133 222 0 l 183 133 q 122 29 168 58 q -22 0 75 0 l -22 63 z "},"ﺘ":{"ha":425,"x_min":-22,"x_max":425,"o":"m -22 63 l 0 85 l 32 85 q 144 119 110 85 q 178 232 178 153 l 178 457 l 247 457 l 247 232 q 385 85 247 85 l 425 85 l 425 22 l 403 0 q 189 133 222 0 l 183 133 q 122 29 168 58 q -22 0 75 0 l -22 63 m 293 626 q 258 640 271 626 q 244 681 244 653 q 258 721 244 708 q 293 733 271 733 l 304 733 q 340 721 326 733 q 353 681 353 708 q 340 640 353 653 q 304 626 326 626 l 293 626 m 115 626 q 80 640 93 626 q 67 681 67 653 q 80 721 67 708 q 115 733 93 733 l 126 733 q 162 721 149 733 q 175 681 175 708 q 162 640 175 653 q 126 626 149 626 l 115 626 z "},"ﺜ":{"ha":425,"x_min":-22,"x_max":425,"o":"m -22 63 l 0 85 l 32 85 q 144 119 110 85 q 178 232 178 153 l 178 457 l 247 457 l 247 232 q 385 85 247 85 l 425 85 l 425 22 l 403 0 q 189 133 222 0 l 183 133 q 122 29 168 58 q -22 0 75 0 l -22 63 m 296 626 q 247 681 247 626 q 296 733 247 733 l 307 733 q 342 721 328 733 q 356 681 356 708 q 342 640 356 653 q 307 626 328 626 l 296 626 m 118 626 q 83 640 96 626 q 69 681 69 653 q 83 721 69 708 q 118 733 96 733 l 129 733 q 165 721 151 733 q 178 681 178 708 q 165 640 178 653 q 129 626 151 626 l 118 626 m 206 796 q 173 808 186 796 q 160 847 160 821 q 173 885 160 874 q 206 897 186 897 l 218 897 q 252 885 239 897 q 265 847 265 874 q 252 808 265 821 q 218 796 239 796 l 206 796 z "},"ﭩ":{"ha":425,"x_min":-22,"x_max":425,"o":"m -22 63 l 0 85 l 32 85 q 144 119 110 85 q 178 232 178 153 l 178 457 l 247 457 l 247 232 q 385 85 247 85 l 425 85 l 425 22 l 403 0 q 189 133 222 0 l 183 133 q 122 29 168 58 q -22 0 75 0 l -22 63 m 58 629 l 92 629 l 108 658 l 108 892 l 158 892 l 158 735 q 201 766 178 756 q 258 776 224 776 q 336 748 310 776 q 363 671 363 719 q 353 621 363 640 q 328 590 344 601 q 291 573 313 578 q 244 568 269 568 l 58 568 l 58 629 m 135 632 l 136 629 l 244 629 q 301 638 281 629 q 321 671 321 646 q 304 704 321 694 q 264 714 288 714 l 251 714 q 190 703 210 714 q 150 657 169 692 l 135 632 z "},"ﭡ":{"ha":425,"x_min":-22,"x_max":425,"o":"m -22 63 l 0 85 l 32 85 q 144 119 110 85 q 178 232 178 153 l 178 457 l 247 457 l 247 232 q 385 85 247 85 l 425 85 l 425 22 l 403 0 q 189 133 222 0 l 183 133 q 122 29 168 58 q -22 0 75 0 l -22 63 m 208 626 q 173 640 186 626 q 160 681 160 653 q 173 721 160 708 q 208 733 186 733 l 219 733 q 255 721 242 733 q 268 681 268 708 q 255 640 268 653 q 219 626 242 626 l 208 626 m 208 803 q 173 815 186 803 q 160 856 160 828 q 173 897 160 883 q 208 910 186 910 l 219 910 q 255 897 242 910 q 268 856 268 883 q 255 815 268 828 q 219 803 242 803 l 208 803 z "},"ﭥ":{"ha":425,"x_min":-22,"x_max":425,"o":"m -22 63 l 0 85 l 32 85 q 144 119 110 85 q 178 232 178 153 l 178 457 l 247 457 l 247 232 q 385 85 247 85 l 425 85 l 425 22 l 403 0 q 189 133 222 0 l 183 133 q 122 29 168 58 q -22 0 75 0 l -22 63 m 296 626 q 260 640 274 626 q 247 681 247 653 q 260 721 247 708 q 296 733 274 733 l 307 733 q 342 721 329 733 q 356 681 356 708 q 342 640 356 653 q 307 626 329 626 l 296 626 m 296 803 q 260 815 274 803 q 247 856 247 828 q 260 897 247 883 q 296 910 274 910 l 307 910 q 342 897 329 910 q 356 856 356 883 q 342 815 356 828 q 307 803 329 803 l 296 803 m 118 626 q 83 640 96 626 q 69 681 69 653 q 83 721 69 708 q 118 733 96 733 l 129 733 q 165 721 151 733 q 178 681 178 708 q 165 640 178 653 q 129 626 151 626 l 118 626 m 118 803 q 83 815 96 803 q 69 856 69 828 q 83 897 69 883 q 118 910 96 910 l 129 910 q 165 897 151 910 q 178 856 178 883 q 165 815 178 828 q 129 803 151 803 l 118 803 z "},"ﻨ":{"ha":425,"x_min":-22,"x_max":425,"o":"m -22 63 l 0 85 l 32 85 q 144 119 110 85 q 178 232 178 153 l 178 457 l 247 457 l 247 232 q 385 85 247 85 l 425 85 l 425 22 l 403 0 q 189 133 222 0 l 183 133 q 122 29 168 58 q -22 0 75 0 l -22 63 m 207 626 q 172 640 185 626 q 158 681 158 653 q 172 721 158 708 q 207 733 185 733 l 218 733 q 253 721 240 733 q 267 681 267 708 q 253 640 267 653 q 218 626 240 626 l 207 626 z "},"ﻴ":{"ha":425,"x_min":-22,"x_max":425,"o":"m -22 63 l 0 85 l 32 85 q 144 119 110 85 q 178 232 178 153 l 178 457 l 247 457 l 247 232 q 385 85 247 85 l 425 85 l 425 22 l 403 0 q 189 133 222 0 l 183 133 q 122 29 168 58 q -22 0 75 0 l -22 63 m 296 -278 q 260 -265 274 -278 q 247 -224 247 -251 q 260 -183 247 -196 q 296 -171 274 -171 l 307 -171 q 342 -183 329 -171 q 356 -224 356 -196 q 342 -265 356 -251 q 307 -278 329 -278 l 296 -278 m 118 -278 q 83 -265 96 -278 q 69 -224 69 -251 q 83 -183 69 -196 q 118 -171 96 -171 l 129 -171 q 165 -183 151 -171 q 178 -224 178 -196 q 165 -265 178 -251 q 129 -278 151 -278 l 118 -278 z "},"ﺌ":{"ha":425,"x_min":-22,"x_max":425,"o":"m -22 63 l 0 85 l 32 85 q 144 119 110 85 q 178 232 178 153 l 178 457 l 247 457 l 247 232 q 385 85 247 85 l 425 85 l 425 22 l 403 0 q 189 133 222 0 l 183 133 q 122 29 168 58 q -22 0 75 0 l -22 63 m 76 629 l 133 629 l 135 633 q 111 670 119 649 q 103 714 103 692 q 137 801 103 767 q 224 835 171 835 q 284 820 254 835 q 332 781 314 806 l 293 735 q 263 760 281 750 q 224 769 244 769 q 174 752 194 769 q 154 710 154 735 q 183 654 154 675 q 261 633 213 633 l 349 633 l 349 568 l 76 568 l 76 629 z "},"ﯿ":{"ha":425,"x_min":-22,"x_max":425,"o":"m -22 63 l 0 85 l 32 85 q 144 119 110 85 q 178 232 178 153 l 178 457 l 247 457 l 247 232 q 385 85 247 85 l 425 85 l 425 22 l 403 0 q 189 133 222 0 l 183 133 q 122 29 168 58 q -22 0 75 0 l -22 63 m 296 -278 q 260 -265 274 -278 q 247 -224 247 -251 q 260 -183 247 -196 q 296 -171 274 -171 l 307 -171 q 342 -183 329 -171 q 356 -224 356 -196 q 342 -265 356 -251 q 307 -278 329 -278 l 296 -278 m 118 -278 q 83 -265 96 -278 q 69 -224 69 -251 q 83 -183 69 -196 q 118 -171 96 -171 l 129 -171 q 165 -183 151 -171 q 178 -224 178 -196 q 165 -265 178 -251 q 129 -278 151 -278 l 118 -278 z "},"ﯧ":{"ha":425,"x_min":-22,"x_max":425,"o":"m -22 63 l 0 85 l 32 85 q 144 119 110 85 q 178 232 178 153 l 178 457 l 247 457 l 247 232 q 385 85 247 85 l 425 85 l 425 22 l 403 0 q 189 133 222 0 l 183 133 q 122 29 168 58 q -22 0 75 0 l -22 63 m 208 -368 q 173 -355 186 -368 q 160 -314 160 -342 q 173 -274 160 -286 q 208 -261 186 -261 l 219 -261 q 255 -274 242 -261 q 268 -314 268 -286 q 255 -355 268 -342 q 219 -368 242 -368 l 208 -368 m 208 -192 q 173 -179 186 -192 q 160 -139 160 -167 q 173 -98 160 -111 q 208 -85 186 -85 l 219 -85 q 255 -98 242 -85 q 268 -139 268 -111 q 255 -179 268 -167 q 219 -192 242 -192 l 208 -192 z "},"ﺴ":{"ha":1156,"x_min":-22,"x_max":1156,"o":"m -22 63 l 0 85 l 35 85 q 89 90 65 85 q 132 109 113 96 q 167 145 151 122 q 200 201 183 168 l 274 346 l 331 317 l 254 168 q 248 156 251 161 q 240 143 244 150 l 272 124 q 363 81 319 94 q 451 68 407 68 q 561 103 526 68 q 596 226 596 139 l 596 346 l 665 346 l 665 226 q 690 106 665 144 q 774 68 714 68 l 799 68 q 881 106 854 68 q 908 226 908 144 l 908 401 l 978 401 l 978 226 q 1115 85 978 85 l 1156 85 l 1156 22 l 1133 0 q 993 28 1043 0 q 924 119 943 57 l 918 119 q 872 16 907 49 q 772 -17 836 -17 q 661 18 701 -17 q 608 118 621 53 l 601 118 q 436 -17 575 -17 q 243 49 344 -17 l 196 78 q 107 17 157 33 q -22 0 57 0 l -22 63 z "},"ﺸ":{"ha":1156,"x_min":-22,"x_max":1156,"o":"m -22 63 l 0 85 l 35 85 q 89 90 65 85 q 132 109 113 96 q 167 145 151 122 q 200 201 183 168 l 274 346 l 331 317 l 254 168 q 248 156 251 161 q 240 143 244 150 l 272 124 q 363 81 319 94 q 451 68 407 68 q 561 103 526 68 q 596 226 596 139 l 596 346 l 665 346 l 665 226 q 690 106 665 144 q 774 68 714 68 l 799 68 q 881 106 854 68 q 908 226 908 144 l 908 401 l 978 401 l 978 226 q 1115 85 978 85 l 1156 85 l 1156 22 l 1133 0 q 993 28 1043 0 q 924 119 943 57 l 918 119 q 872 16 907 49 q 772 -17 836 -17 q 661 18 701 -17 q 608 118 621 53 l 601 118 q 436 -17 575 -17 q 243 49 344 -17 l 196 78 q 107 17 157 33 q -22 0 57 0 l -22 63 m 714 517 q 665 571 665 517 q 714 624 665 624 l 725 624 q 760 611 746 624 q 774 571 774 599 q 760 530 774 543 q 725 517 746 517 l 714 517 m 536 517 q 501 530 514 517 q 488 571 488 543 q 501 611 488 599 q 536 624 514 624 l 547 624 q 583 611 569 624 q 596 571 596 599 q 583 530 596 543 q 547 517 569 517 l 536 517 m 624 686 q 591 699 604 686 q 578 738 578 711 q 591 776 578 764 q 624 788 604 788 l 636 788 q 670 776 657 788 q 683 738 683 764 q 670 699 683 711 q 636 686 657 686 l 624 686 z "},"ﺳ":{"ha":1035,"x_min":-22,"x_max":972,"o":"m -22 63 l 0 85 l 35 85 q 89 90 65 85 q 132 109 113 96 q 167 145 151 122 q 200 201 183 168 l 274 346 l 331 317 l 254 168 q 248 156 251 161 q 240 143 244 150 l 272 124 q 363 81 319 93 q 451 68 407 68 q 561 103 526 68 q 596 226 596 139 l 596 346 l 665 346 l 665 226 q 692 106 665 144 q 779 68 719 68 l 801 68 q 877 97 850 68 q 904 189 904 126 q 901 249 904 213 q 893 325 899 285 l 882 400 l 951 408 l 961 336 q 969 256 967 294 q 972 189 972 217 q 924 36 972 89 q 790 -17 875 -17 q 667 18 713 -17 q 608 119 622 53 l 601 119 q 546 17 588 50 q 438 -17 504 -17 q 243 49 344 -17 l 196 78 q 107 17 157 33 q -22 0 57 0 l -22 63 z "},"ﺷ":{"ha":1035,"x_min":-22,"x_max":972,"o":"m -22 63 l 0 85 l 35 85 q 89 90 65 85 q 132 109 113 96 q 167 145 151 122 q 200 201 183 168 l 274 346 l 331 317 l 254 168 q 248 156 251 161 q 240 143 244 150 l 272 124 q 363 81 319 93 q 451 68 407 68 q 561 103 526 68 q 596 226 596 139 l 596 346 l 665 346 l 665 226 q 692 106 665 144 q 779 68 719 68 l 801 68 q 877 97 850 68 q 904 189 904 126 q 901 249 904 213 q 893 325 899 285 l 882 400 l 951 408 l 961 336 q 969 256 967 294 q 972 189 972 217 q 924 36 972 89 q 790 -17 875 -17 q 667 18 713 -17 q 608 119 622 53 l 601 119 q 546 17 588 50 q 438 -17 504 -17 q 243 49 344 -17 l 196 78 q 107 17 157 33 q -22 0 57 0 l -22 63 m 714 517 q 665 571 665 517 q 714 624 665 624 l 725 624 q 760 611 746 624 q 774 571 774 599 q 760 530 774 543 q 725 517 746 517 l 714 517 m 536 517 q 501 530 514 517 q 488 571 488 543 q 501 611 488 599 q 536 624 514 624 l 547 624 q 583 611 569 624 q 596 571 596 599 q 583 530 596 543 q 547 517 569 517 l 536 517 m 624 686 q 591 699 604 686 q 578 738 578 711 q 591 776 578 764 q 624 788 604 788 l 636 788 q 670 776 657 788 q 683 738 683 764 q 670 699 683 711 q 636 686 657 686 l 624 686 z "},"ﻠ":{"ha":429,"x_min":-22,"x_max":429,"o":"m -22 63 l 0 85 l 32 85 q 144 119 110 85 q 178 232 178 153 l 178 1028 l 251 1028 l 251 232 q 388 85 251 85 l 429 85 l 429 22 l 406 0 q 189 133 222 0 l 183 133 q 122 29 168 58 q -22 0 75 0 l -22 63 z "},"ﺑ":{"ha":346,"x_min":-22,"x_max":283,"o":"m -22 63 l 0 85 l 26 85 q 170 117 125 85 q 215 225 215 149 q 211 294 215 253 q 197 401 207 336 l 179 513 l 249 524 l 265 413 q 279 304 275 349 q 283 226 283 260 q 26 0 283 0 l -22 0 l -22 63 m 186 -278 q 151 -265 164 -278 q 138 -224 138 -251 q 151 -183 138 -196 q 186 -171 164 -171 l 197 -171 q 233 -183 219 -171 q 246 -224 246 -196 q 233 -265 246 -251 q 197 -278 219 -278 l 186 -278 z "},"ﭘ":{"ha":346,"x_min":-22,"x_max":332,"o":"m -22 63 l 0 85 l 26 85 q 170 117 125 85 q 215 225 215 149 q 211 294 215 253 q 197 401 207 336 l 179 513 l 249 524 l 265 413 q 279 304 275 349 q 283 226 283 260 q 26 0 283 0 l -22 0 l -22 63 m 272 -278 q 237 -265 250 -278 q 224 -225 224 -253 q 237 -185 224 -197 q 272 -172 250 -172 l 283 -172 q 319 -185 306 -172 q 332 -225 332 -197 q 319 -265 332 -253 q 283 -278 306 -278 l 272 -278 m 182 -443 q 149 -431 163 -443 q 136 -392 136 -418 q 149 -353 136 -365 q 182 -340 163 -340 l 194 -340 q 228 -353 215 -340 q 242 -392 242 -365 q 228 -431 242 -418 q 194 -443 215 -443 l 182 -443 m 94 -278 q 59 -265 72 -278 q 46 -225 46 -253 q 59 -185 46 -197 q 94 -172 72 -172 l 106 -172 q 141 -185 128 -172 q 154 -225 154 -197 q 141 -265 154 -253 q 106 -278 128 -278 l 94 -278 z "},"ﭔ":{"ha":346,"x_min":-22,"x_max":283,"o":"m -22 63 l 0 85 l 26 85 q 170 117 125 85 q 215 225 215 149 q 211 294 215 253 q 197 401 207 336 l 179 513 l 249 524 l 265 413 q 279 304 275 349 q 283 226 283 260 q 26 0 283 0 l -22 0 l -22 63 m 188 -368 q 152 -355 165 -368 q 139 -314 139 -342 q 152 -274 139 -286 q 188 -261 165 -261 l 199 -261 q 234 -274 221 -261 q 247 -314 247 -286 q 234 -355 247 -342 q 199 -368 221 -368 l 188 -368 m 188 -192 q 152 -179 165 -192 q 139 -139 139 -167 q 152 -98 139 -111 q 188 -85 165 -85 l 199 -85 q 234 -98 221 -85 q 247 -139 247 -111 q 234 -179 247 -167 q 199 -192 221 -192 l 188 -192 z "},"ﭜ":{"ha":346,"x_min":-22,"x_max":335,"o":"m -22 63 l 0 85 l 26 85 q 170 117 125 85 q 215 225 215 149 q 211 294 215 253 q 197 401 207 336 l 179 513 l 249 524 l 265 413 q 279 304 275 349 q 283 226 283 260 q 26 0 283 0 l -22 0 l -22 63 m 275 -379 q 240 -366 253 -379 q 226 -325 226 -353 q 240 -285 226 -297 q 275 -272 253 -272 l 286 -272 q 322 -285 308 -272 q 335 -325 335 -297 q 322 -366 335 -353 q 286 -379 308 -379 l 275 -379 m 275 -203 q 240 -190 253 -203 q 226 -150 226 -178 q 240 -109 226 -122 q 275 -96 253 -96 l 286 -96 q 322 -109 308 -96 q 335 -150 335 -122 q 322 -190 335 -178 q 286 -203 308 -203 l 275 -203 m 97 -379 q 62 -366 75 -379 q 49 -325 49 -353 q 62 -285 49 -297 q 97 -272 75 -272 l 108 -272 q 144 -285 131 -272 q 157 -325 157 -297 q 144 -366 157 -353 q 108 -379 131 -379 l 97 -379 m 97 -203 q 62 -190 75 -203 q 49 -150 49 -178 q 62 -109 49 -122 q 97 -96 75 -96 l 108 -96 q 144 -109 131 -96 q 157 -150 157 -122 q 144 -190 157 -178 q 108 -203 131 -203 l 97 -203 z "},"ﯨ":{"ha":346,"x_min":-22,"x_max":283,"o":"m -22 63 l 0 85 l 26 85 q 170 117 125 85 q 215 225 215 149 q 211 294 215 253 q 197 401 207 336 l 179 513 l 249 524 l 265 413 q 279 304 275 349 q 283 226 283 260 q 26 0 283 0 l -22 0 l -22 63 z "},"ﺗ":{"ha":346,"x_min":-22,"x_max":335,"o":"m -22 63 l 0 85 l 26 85 q 170 117 125 85 q 215 225 215 149 q 211 294 215 253 q 197 401 207 336 l 179 513 l 249 524 l 265 413 q 279 304 275 349 q 283 226 283 260 q 26 0 283 0 l -22 0 l -22 63 m 275 692 q 240 705 253 692 q 226 746 226 718 q 240 786 226 774 q 275 799 253 799 l 286 799 q 322 786 308 799 q 335 746 335 774 q 322 705 335 718 q 286 692 308 692 l 275 692 m 97 692 q 62 705 75 692 q 49 746 49 718 q 62 786 49 774 q 97 799 75 799 l 108 799 q 144 786 131 799 q 157 746 157 774 q 144 705 157 718 q 108 692 131 692 l 97 692 z "},"ﺛ":{"ha":346,"x_min":-22,"x_max":338,"o":"m -22 63 l 0 85 l 26 85 q 170 117 125 85 q 215 225 215 149 q 211 294 215 253 q 197 401 207 336 l 179 513 l 249 524 l 265 413 q 279 304 275 349 q 283 226 283 260 q 26 0 283 0 l -22 0 l -22 63 m 278 692 q 229 746 229 692 q 278 799 229 799 l 289 799 q 324 786 310 799 q 338 746 338 774 q 324 705 338 718 q 289 692 310 692 l 278 692 m 100 692 q 65 705 78 692 q 51 746 51 718 q 65 786 51 774 q 100 799 78 799 l 111 799 q 147 786 133 799 q 160 746 160 774 q 147 705 160 718 q 111 692 133 692 l 100 692 m 188 861 q 155 874 168 861 q 142 913 142 886 q 155 951 142 939 q 188 963 168 963 l 200 963 q 234 951 221 963 q 247 913 247 939 q 234 874 247 886 q 200 861 221 861 l 188 861 z "},"ﭨ":{"ha":346,"x_min":-22,"x_max":344,"o":"m -22 63 l 0 85 l 26 85 q 170 117 125 85 q 215 225 215 149 q 211 294 215 253 q 197 401 207 336 l 179 513 l 249 524 l 265 413 q 279 304 275 349 q 283 226 283 260 q 26 0 283 0 l -22 0 l -22 63 m 40 694 l 74 694 l 90 724 l 90 957 l 140 957 l 140 800 q 183 831 160 821 q 240 842 206 842 q 318 813 292 842 q 344 736 344 785 q 335 686 344 706 q 310 655 326 667 q 273 638 294 643 q 226 633 251 633 l 40 633 l 40 694 m 117 697 l 118 694 l 226 694 q 283 703 263 694 q 303 736 303 711 q 286 769 303 760 q 246 779 269 779 l 233 779 q 172 768 192 779 q 132 722 151 757 l 117 697 z "},"ﭠ":{"ha":346,"x_min":-22,"x_max":283,"o":"m -22 63 l 0 85 l 26 85 q 170 117 125 85 q 215 225 215 149 q 211 294 215 253 q 197 401 207 336 l 179 513 l 249 524 l 265 413 q 279 304 275 349 q 283 226 283 260 q 26 0 283 0 l -22 0 l -22 63 m 190 692 q 155 705 168 692 q 142 746 142 718 q 155 786 142 774 q 190 799 168 799 l 201 799 q 237 786 224 799 q 250 746 250 774 q 237 705 250 718 q 201 692 224 692 l 190 692 m 190 868 q 155 881 168 868 q 142 921 142 893 q 155 962 142 949 q 190 975 168 975 l 201 975 q 237 962 224 975 q 250 921 250 949 q 237 881 250 893 q 201 868 224 868 l 190 868 z "},"ﭤ":{"ha":346,"x_min":-22,"x_max":338,"o":"m -22 63 l 0 85 l 26 85 q 170 117 125 85 q 215 225 215 149 q 211 294 215 253 q 197 401 207 336 l 179 513 l 249 524 l 265 413 q 279 304 275 349 q 283 226 283 260 q 26 0 283 0 l -22 0 l -22 63 m 278 692 q 242 705 256 692 q 229 746 229 718 q 242 786 229 774 q 278 799 256 799 l 289 799 q 324 786 311 799 q 338 746 338 774 q 324 705 338 718 q 289 692 311 692 l 278 692 m 278 868 q 242 881 256 868 q 229 921 229 893 q 242 962 229 949 q 278 975 256 975 l 289 975 q 324 962 311 975 q 338 921 338 949 q 324 881 338 893 q 289 868 311 868 l 278 868 m 100 692 q 65 705 78 692 q 51 746 51 718 q 65 786 51 774 q 100 799 78 799 l 111 799 q 147 786 133 799 q 160 746 160 774 q 147 705 160 718 q 111 692 133 692 l 100 692 m 100 868 q 65 881 78 868 q 51 921 51 893 q 65 962 51 949 q 100 975 78 975 l 111 975 q 147 962 133 975 q 160 921 160 949 q 147 881 160 893 q 111 868 133 868 l 100 868 z "},"ﻧ":{"ha":346,"x_min":-22,"x_max":283,"o":"m -22 63 l 0 85 l 26 85 q 170 117 125 85 q 215 225 215 149 q 211 294 215 253 q 197 401 207 336 l 179 513 l 249 524 l 265 413 q 279 304 275 349 q 283 226 283 260 q 26 0 283 0 l -22 0 l -22 63 m 189 692 q 153 705 167 692 q 140 746 140 718 q 153 786 140 774 q 189 799 167 799 l 200 799 q 235 786 222 799 q 249 746 249 774 q 235 705 249 718 q 200 692 222 692 l 189 692 z "},"ﻳ":{"ha":346,"x_min":-22,"x_max":335,"o":"m -22 63 l 0 85 l 26 85 q 170 117 125 85 q 215 225 215 149 q 211 294 215 253 q 197 401 207 336 l 179 513 l 249 524 l 265 413 q 279 304 275 349 q 283 226 283 260 q 26 0 283 0 l -22 0 l -22 63 m 275 -278 q 240 -265 253 -278 q 226 -224 226 -251 q 240 -183 226 -196 q 275 -171 253 -171 l 286 -171 q 322 -183 308 -171 q 335 -224 335 -196 q 322 -265 335 -251 q 286 -278 308 -278 l 275 -278 m 97 -278 q 62 -265 75 -278 q 49 -224 49 -251 q 62 -183 49 -196 q 97 -171 75 -171 l 108 -171 q 144 -183 131 -171 q 157 -224 157 -196 q 144 -265 157 -251 q 108 -278 131 -278 l 97 -278 z "},"ﺋ":{"ha":346,"x_min":-22,"x_max":331,"o":"m -22 63 l 0 85 l 26 85 q 170 117 125 85 q 215 225 215 149 q 211 294 215 253 q 197 401 207 336 l 179 513 l 249 524 l 265 413 q 279 304 275 349 q 283 226 283 260 q 26 0 283 0 l -22 0 l -22 63 m 58 694 l 115 694 l 117 699 q 93 735 101 714 q 85 779 85 757 q 119 866 85 832 q 206 900 153 900 q 266 885 236 900 q 314 846 296 871 l 275 800 q 244 825 263 815 q 206 835 226 835 q 156 817 176 835 q 136 775 136 800 q 165 719 136 740 q 243 699 194 699 l 331 699 l 331 633 l 58 633 l 58 694 z "},"ﯾ":{"ha":346,"x_min":-22,"x_max":335,"o":"m -22 63 l 0 85 l 26 85 q 170 117 125 85 q 215 225 215 149 q 211 294 215 253 q 197 401 207 336 l 179 513 l 249 524 l 265 413 q 279 304 275 349 q 283 226 283 260 q 26 0 283 0 l -22 0 l -22 63 m 275 -278 q 240 -265 253 -278 q 226 -224 226 -251 q 240 -183 226 -196 q 275 -171 253 -171 l 286 -171 q 322 -183 308 -171 q 335 -224 335 -196 q 322 -265 335 -251 q 286 -278 308 -278 l 275 -278 m 97 -278 q 62 -265 75 -278 q 49 -224 49 -251 q 62 -183 49 -196 q 97 -171 75 -171 l 108 -171 q 144 -183 131 -171 q 157 -224 157 -196 q 144 -265 157 -251 q 108 -278 131 -278 l 97 -278 z "},"ﯦ":{"ha":346,"x_min":-22,"x_max":283,"o":"m -22 63 l 0 85 l 26 85 q 170 117 125 85 q 215 225 215 149 q 211 294 215 253 q 197 401 207 336 l 179 513 l 249 524 l 265 413 q 279 304 275 349 q 283 226 283 260 q 26 0 283 0 l -22 0 l -22 63 m 188 -368 q 152 -355 165 -368 q 139 -314 139 -342 q 152 -274 139 -286 q 188 -261 165 -261 l 199 -261 q 234 -274 221 -261 q 247 -314 247 -286 q 234 -355 247 -342 q 199 -368 221 -368 l 188 -368 m 188 -192 q 152 -179 165 -192 q 139 -139 139 -167 q 152 -98 139 -111 q 188 -85 165 -85 l 199 -85 q 234 -98 221 -85 q 247 -139 247 -111 q 234 -179 247 -167 q 199 -192 221 -192 l 188 -192 z "},"ر":{"ha":363,"x_min":-89,"x_max":306,"o":"m -89 -249 l -44 -249 q 91 -226 36 -249 q 178 -162 146 -203 q 224 -67 210 -122 q 238 51 238 -12 q 234 135 238 90 q 224 219 231 181 l 194 388 l 265 401 l 286 264 q 301 155 296 210 q 306 50 306 100 q 288 -101 306 -31 q 228 -222 269 -171 q 121 -303 188 -274 q -44 -333 54 -333 l -89 -333 l -89 -249 z "},"ﺭ":{"ha":363,"x_min":-89,"x_max":306,"o":"m -89 -249 l -44 -249 q 91 -226 36 -249 q 178 -162 146 -203 q 224 -67 210 -122 q 238 51 238 -12 q 234 135 238 90 q 224 219 231 181 l 194 388 l 265 401 l 286 264 q 301 155 296 210 q 306 50 306 100 q 288 -101 306 -31 q 228 -222 269 -171 q 121 -303 188 -274 q -44 -333 54 -333 l -89 -333 l -89 -249 z "},"ز":{"ha":363,"x_min":-89,"x_max":306,"o":"m -89 -249 l -44 -249 q 91 -226 36 -249 q 178 -162 146 -203 q 224 -67 210 -122 q 238 51 238 -12 q 234 135 238 90 q 224 219 231 181 l 194 388 l 265 401 l 286 264 q 301 155 296 210 q 306 50 306 100 q 288 -101 306 -31 q 228 -222 269 -171 q 121 -303 188 -274 q -44 -333 54 -333 l -89 -333 l -89 -249 m 200 569 q 165 583 178 569 q 151 624 151 596 q 165 664 151 651 q 200 676 178 676 l 211 676 q 247 664 233 676 q 260 624 260 651 q 247 583 260 596 q 211 569 233 569 l 200 569 z "},"ﺯ":{"ha":363,"x_min":-89,"x_max":306,"o":"m -89 -249 l -44 -249 q 91 -226 36 -249 q 178 -162 146 -203 q 224 -67 210 -122 q 238 51 238 -12 q 234 135 238 90 q 224 219 231 181 l 194 388 l 265 401 l 286 264 q 301 155 296 210 q 306 50 306 100 q 288 -101 306 -31 q 228 -222 269 -171 q 121 -303 188 -274 q -44 -333 54 -333 l -89 -333 l -89 -249 m 200 569 q 165 583 178 569 q 151 624 151 596 q 165 664 151 651 q 200 676 178 676 l 211 676 q 247 664 233 676 q 260 624 260 651 q 247 583 260 596 q 211 569 233 569 l 200 569 z "},"ڑ":{"ha":363,"x_min":-89,"x_max":356,"o":"m -89 -249 l -44 -249 q 91 -226 36 -249 q 178 -162 146 -203 q 224 -67 210 -122 q 238 51 238 -12 q 234 135 238 90 q 224 219 231 181 l 194 388 l 265 401 l 286 264 q 301 155 296 210 q 306 50 306 100 q 288 -101 306 -31 q 228 -222 269 -171 q 121 -303 188 -274 q -44 -333 54 -333 l -89 -333 l -89 -249 m 51 574 l 85 574 l 101 603 l 101 836 l 151 836 l 151 679 q 194 710 171 700 q 251 721 217 721 q 329 692 303 721 q 356 615 356 664 q 347 565 356 585 q 322 534 338 546 q 284 517 306 522 q 238 513 263 513 l 51 513 l 51 574 m 128 576 l 129 574 l 238 574 q 294 582 274 574 q 314 615 314 590 q 297 649 314 639 q 257 658 281 658 l 244 658 q 183 647 203 658 q 143 601 163 636 l 128 576 z "},"ڒ":{"ha":363,"x_min":-89,"x_max":349,"o":"m -89 -249 l -44 -249 q 91 -226 36 -249 q 178 -162 146 -203 q 224 -67 210 -122 q 238 51 238 -12 q 234 135 238 90 q 224 219 231 181 l 194 388 l 265 401 l 286 264 q 301 155 296 210 q 306 50 306 100 q 288 -101 306 -31 q 228 -222 269 -171 q 121 -303 188 -274 q -44 -333 54 -333 l -89 -333 l -89 -249 m 63 765 l 133 765 l 210 574 l 211 574 l 286 765 l 349 765 l 244 513 l 167 513 l 63 765 z "},"ڔ":{"ha":363,"x_min":-89,"x_max":306,"o":"m -89 -249 l -44 -249 q 91 -226 36 -249 q 178 -162 146 -203 q 224 -67 210 -122 q 238 51 238 -12 q 234 135 238 90 q 224 219 231 181 l 194 388 l 265 401 l 286 264 q 301 155 296 210 q 306 50 306 100 q 288 -101 306 -31 q 228 -222 269 -171 q 121 -303 188 -274 q -44 -333 54 -333 l -89 -333 l -89 -249 m 31 -611 q -5 -598 8 -611 q -18 -557 -18 -585 q -5 -517 -18 -529 q 31 -504 8 -504 l 42 -504 q 77 -517 64 -504 q 90 -557 90 -529 q 77 -598 90 -585 q 42 -611 64 -611 l 31 -611 z "},"ڕ":{"ha":363,"x_min":-107,"x_max":306,"o":"m -89 -249 l -44 -249 q 91 -226 36 -249 q 178 -162 146 -203 q 224 -67 210 -122 q 238 51 238 -12 q 234 135 238 90 q 224 219 231 181 l 194 388 l 265 401 l 286 264 q 301 155 296 210 q 306 50 306 100 q 288 -101 306 -31 q 228 -222 269 -171 q 121 -303 188 -274 q -44 -333 54 -333 l -89 -333 l -89 -249 m -107 -431 l -36 -431 l 40 -622 l 42 -622 l 117 -431 l 179 -431 l 75 -683 l -3 -683 l -107 -431 z "},"ږ":{"ha":363,"x_min":-89,"x_max":306,"o":"m -89 -249 l -44 -249 q 91 -226 36 -249 q 178 -162 146 -203 q 224 -67 210 -122 q 238 51 238 -12 q 234 135 238 90 q 224 219 231 181 l 194 388 l 265 401 l 286 264 q 301 155 296 210 q 306 50 306 100 q 288 -101 306 -31 q 228 -222 269 -171 q 121 -303 188 -274 q -44 -333 54 -333 l -89 -333 l -89 -249 m 200 569 q 165 583 178 569 q 151 624 151 596 q 165 664 151 651 q 200 676 178 676 l 211 676 q 247 664 233 676 q 260 624 260 651 q 247 583 260 596 q 211 569 233 569 l 200 569 m 31 -611 q -5 -598 8 -611 q -18 -557 -18 -585 q -5 -517 -18 -529 q 31 -504 8 -504 l 42 -504 q 77 -517 64 -504 q 90 -557 90 -529 q 77 -598 90 -585 q 42 -611 64 -611 l 31 -611 z "},"ڗ":{"ha":363,"x_min":-89,"x_max":346,"o":"m -89 -249 l -44 -249 q 91 -226 36 -249 q 178 -162 146 -203 q 224 -67 210 -122 q 238 51 238 -12 q 234 135 238 90 q 224 219 231 181 l 194 388 l 265 401 l 286 264 q 301 155 296 210 q 306 50 306 100 q 288 -101 306 -31 q 228 -222 269 -171 q 121 -303 188 -274 q -44 -333 54 -333 l -89 -333 l -89 -249 m 286 569 q 251 583 264 569 q 238 624 238 596 q 251 664 238 651 q 286 676 264 676 l 297 676 q 333 664 319 676 q 346 624 346 651 q 333 583 346 596 q 297 569 319 569 l 286 569 m 108 569 q 73 583 86 569 q 60 624 60 596 q 73 664 60 651 q 108 676 86 676 l 119 676 q 155 664 142 676 q 168 624 168 651 q 155 583 168 596 q 119 569 142 569 l 108 569 z "},"ژ":{"ha":363,"x_min":-89,"x_max":349,"o":"m -89 -249 l -44 -249 q 91 -226 36 -249 q 178 -162 146 -203 q 224 -67 210 -122 q 238 51 238 -12 q 234 135 238 90 q 224 219 231 181 l 194 388 l 265 401 l 286 264 q 301 155 296 210 q 306 50 306 100 q 288 -101 306 -31 q 228 -222 269 -171 q 121 -303 188 -274 q -44 -333 54 -333 l -89 -333 l -89 -249 m 289 569 q 240 624 240 569 q 289 676 240 676 l 300 676 q 335 664 321 676 q 349 624 349 651 q 335 583 349 596 q 300 569 321 569 l 289 569 m 111 569 q 76 583 89 569 q 63 624 63 596 q 76 664 63 651 q 111 676 89 676 l 122 676 q 158 664 144 676 q 171 624 171 651 q 158 583 171 596 q 122 569 144 569 l 111 569 m 199 739 q 166 751 179 739 q 153 790 153 764 q 166 828 153 817 q 199 840 179 840 l 211 840 q 245 828 232 840 q 258 790 258 817 q 245 751 258 764 q 211 739 232 739 l 199 739 z "},"ڙ":{"ha":363,"x_min":-89,"x_max":349,"o":"m -89 -249 l -44 -249 q 91 -226 36 -249 q 178 -162 146 -203 q 224 -67 210 -122 q 238 51 238 -12 q 234 135 238 90 q 224 219 231 181 l 194 388 l 265 401 l 286 264 q 301 155 296 210 q 306 50 306 100 q 288 -101 306 -31 q 228 -222 269 -171 q 121 -303 188 -274 q -44 -333 54 -333 l -89 -333 l -89 -249 m 289 569 q 253 583 267 569 q 240 624 240 596 q 253 664 240 651 q 289 676 267 676 l 300 676 q 335 664 322 676 q 349 624 349 651 q 335 583 349 596 q 300 569 322 569 l 289 569 m 289 746 q 253 758 267 746 q 240 799 240 771 q 253 840 240 826 q 289 853 267 853 l 300 853 q 335 840 322 853 q 349 799 349 826 q 335 758 349 771 q 300 746 322 746 l 289 746 m 111 569 q 76 583 89 569 q 63 624 63 596 q 76 664 63 651 q 111 676 89 676 l 122 676 q 158 664 144 676 q 171 624 171 651 q 158 583 171 596 q 122 569 144 569 l 111 569 m 111 746 q 76 758 89 746 q 63 799 63 771 q 76 840 63 826 q 111 853 89 853 l 122 853 q 158 840 144 853 q 171 799 171 826 q 158 758 171 771 q 122 746 144 746 l 111 746 z "},"ۯ":{"ha":363,"x_min":-89,"x_max":349,"o":"m -89 -249 l -44 -249 q 91 -226 36 -249 q 178 -162 146 -203 q 224 -67 210 -122 q 238 51 238 -12 q 234 135 238 90 q 224 219 231 181 l 194 388 l 265 401 l 286 264 q 301 155 296 210 q 306 50 306 100 q 288 -101 306 -31 q 228 -222 269 -171 q 121 -303 188 -274 q -44 -333 54 -333 l -89 -333 l -89 -249 m 349 567 l 278 567 l 201 758 l 200 758 l 126 567 l 63 567 l 168 819 l 244 819 l 349 567 z "},"ݫ":{"ha":363,"x_min":-89,"x_max":306,"o":"m -89 -249 l -44 -249 q 91 -226 36 -249 q 178 -162 146 -203 q 224 -67 210 -122 q 238 51 238 -12 q 234 135 238 90 q 224 219 231 181 l 194 388 l 265 401 l 286 264 q 301 155 296 210 q 306 50 306 100 q 288 -101 306 -31 q 228 -222 269 -171 q 121 -303 188 -274 q -44 -333 54 -333 l -89 -333 l -89 -249 m 201 569 q 166 583 179 569 q 153 624 153 596 q 166 664 153 651 q 201 676 179 676 l 213 676 q 248 664 235 676 q 261 624 261 651 q 248 583 261 596 q 213 569 235 569 l 201 569 m 201 746 q 166 758 179 746 q 153 799 153 771 q 166 840 153 826 q 201 853 179 853 l 213 853 q 248 840 235 853 q 261 799 261 826 q 248 758 261 771 q 213 746 235 746 l 201 746 z "},"ݬ":{"ha":363,"x_min":-89,"x_max":342,"o":"m -89 -249 l -44 -249 q 91 -226 36 -249 q 178 -162 146 -203 q 224 -67 210 -122 q 238 51 238 -12 q 234 135 238 90 q 224 219 231 181 l 194 388 l 265 401 l 286 264 q 301 155 296 210 q 306 50 306 100 q 288 -101 306 -31 q 228 -222 269 -171 q 121 -303 188 -274 q -44 -333 54 -333 l -89 -333 l -89 -249 m 69 574 l 126 574 l 128 578 q 104 615 113 593 q 96 658 96 636 q 130 745 96 711 q 217 779 164 779 q 277 765 247 779 q 325 725 307 750 l 286 679 q 256 704 274 694 q 217 714 238 714 q 167 697 188 714 q 147 654 147 679 q 176 599 147 619 q 254 578 206 578 l 342 578 l 342 513 l 69 513 l 69 574 z "},"ݱ":{"ha":363,"x_min":-89,"x_max":353,"o":"m -89 -249 l -44 -249 q 91 -226 36 -249 q 178 -162 146 -203 q 224 -67 210 -122 q 238 51 238 -12 q 234 135 238 90 q 224 219 231 181 l 194 388 l 265 401 l 286 264 q 301 155 296 210 q 306 50 306 100 q 288 -101 306 -31 q 228 -222 269 -171 q 121 -303 188 -274 q -44 -333 54 -333 l -89 -333 l -89 -249 m 286 569 q 251 583 264 569 q 238 624 238 596 q 251 664 238 651 q 286 676 264 676 l 297 676 q 333 664 319 676 q 346 624 346 651 q 333 583 346 596 q 297 569 319 569 l 286 569 m 108 569 q 73 583 86 569 q 60 624 60 596 q 73 664 60 651 q 108 676 86 676 l 119 676 q 155 664 142 676 q 168 624 168 651 q 155 583 168 596 q 119 569 142 569 l 108 569 m 49 851 l 82 851 l 99 881 l 99 1114 l 149 1114 l 149 957 q 191 988 168 978 q 249 999 214 999 q 326 970 300 999 q 353 893 353 942 q 344 843 353 863 q 319 812 335 824 q 281 795 303 800 q 235 790 260 790 l 49 790 l 49 851 m 125 854 l 126 851 l 235 851 q 291 860 271 851 q 311 893 311 868 q 294 926 311 917 q 254 936 278 936 l 242 936 q 180 925 200 936 q 140 879 160 914 l 125 854 z "},"ﱜ":{"ha":363,"x_min":-89,"x_max":306,"o":"m -89 -249 l -44 -249 q 91 -226 36 -249 q 178 -162 146 -203 q 224 -67 210 -122 q 238 51 238 -12 q 234 135 238 90 q 224 219 231 181 l 194 388 l 265 401 l 286 264 q 301 155 296 210 q 306 50 306 100 q 288 -101 306 -31 q 228 -222 269 -171 q 121 -303 188 -274 q -44 -333 54 -333 l -89 -333 l -89 -249 m 179 744 l 232 744 l 232 513 l 179 513 l 179 744 z "},"ړ":{"ha":363,"x_min":-89,"x_max":306,"o":"m 110 -518 q 19 -481 56 -518 q -18 -386 -18 -443 q -7 -332 -18 -357 q -26 -333 -17 -332 q -44 -333 -35 -333 l -89 -333 l -89 -249 l -44 -249 q 91 -226 36 -249 q 178 -162 146 -203 q 224 -67 210 -122 q 238 51 238 -12 q 234 135 238 90 q 224 219 231 181 l 194 388 l 265 401 l 286 264 q 301 155 296 210 q 306 50 306 100 q 276 -138 306 -54 q 175 -274 246 -222 q 219 -319 203 -290 q 235 -386 235 -349 q 199 -481 235 -443 q 110 -518 164 -518 m 110 -458 q 163 -438 142 -458 q 183 -386 183 -418 q 163 -335 183 -356 q 110 -315 142 -315 q 56 -335 78 -315 q 35 -386 35 -356 q 56 -438 35 -418 q 110 -458 78 -458 z "},"ݛ":{"ha":363,"x_min":-89,"x_max":306,"o":"m -89 -79 l 221 -79 q 238 51 238 -21 q 234 135 238 90 q 224 219 231 181 l 194 388 l 265 401 l 286 264 q 300 155 294 210 q 306 50 306 100 q 288 -101 306 -31 q 228 -222 269 -171 q 121 -303 188 -274 q -44 -333 54 -333 l -89 -333 l -89 -249 l -44 -249 q 102 -221 46 -249 q 190 -144 158 -193 l -89 -144 l -89 -79 z "},"ﺮ":{"ha":428,"x_min":-89,"x_max":428,"o":"m -89 -249 l -44 -249 q 91 -226 36 -249 q 178 -162 146 -203 q 224 -67 210 -122 q 238 51 238 -12 q 234 135 238 90 q 224 219 231 181 l 194 388 l 265 401 l 286 264 q 298 174 293 219 q 306 85 303 128 l 428 85 l 428 22 l 406 0 l 304 0 q 278 -132 299 -71 q 215 -238 257 -193 q 110 -308 174 -283 q -44 -333 46 -333 l -89 -333 l -89 -249 z "},"ﺰ":{"ha":428,"x_min":-89,"x_max":428,"o":"m -89 -249 l -44 -249 q 91 -226 36 -249 q 178 -162 146 -203 q 224 -67 210 -122 q 238 51 238 -12 q 234 135 238 90 q 224 219 231 181 l 194 388 l 265 401 l 286 264 q 298 174 293 219 q 306 85 303 128 l 428 85 l 428 22 l 406 0 l 304 0 q 278 -132 299 -71 q 215 -238 257 -193 q 110 -308 174 -283 q -44 -333 46 -333 l -89 -333 l -89 -249 m 200 569 q 165 583 178 569 q 151 624 151 596 q 165 664 151 651 q 200 676 178 676 l 211 676 q 247 664 233 676 q 260 624 260 651 q 247 583 260 596 q 211 569 233 569 l 200 569 z "},"ﮍ":{"ha":428,"x_min":-89,"x_max":428,"o":"m -89 -249 l -44 -249 q 91 -226 36 -249 q 178 -162 146 -203 q 224 -67 210 -122 q 238 51 238 -12 q 234 135 238 90 q 224 219 231 181 l 194 388 l 265 401 l 286 264 q 298 174 293 219 q 306 85 303 128 l 428 85 l 428 22 l 406 0 l 304 0 q 278 -132 299 -71 q 215 -238 257 -193 q 110 -308 174 -283 q -44 -333 46 -333 l -89 -333 l -89 -249 m 51 574 l 85 574 l 101 603 l 101 836 l 151 836 l 151 679 q 194 710 171 700 q 251 721 217 721 q 329 692 303 721 q 356 615 356 664 q 347 565 356 585 q 322 534 338 546 q 284 517 306 522 q 238 513 263 513 l 51 513 l 51 574 m 128 576 l 129 574 l 238 574 q 294 582 274 574 q 314 615 314 590 q 297 649 314 639 q 257 658 281 658 l 244 658 q 183 647 203 658 q 143 601 163 636 l 128 576 z "},"ﮋ":{"ha":428,"x_min":-89,"x_max":428,"o":"m -89 -249 l -44 -249 q 91 -226 36 -249 q 178 -162 146 -203 q 224 -67 210 -122 q 238 51 238 -12 q 234 135 238 90 q 224 219 231 181 l 194 388 l 265 401 l 286 264 q 298 174 293 219 q 306 85 303 128 l 428 85 l 428 22 l 406 0 l 304 0 q 278 -132 299 -71 q 215 -238 257 -193 q 110 -308 174 -283 q -44 -333 46 -333 l -89 -333 l -89 -249 m 289 569 q 240 624 240 569 q 289 676 240 676 l 300 676 q 335 664 321 676 q 349 624 349 651 q 335 583 349 596 q 300 569 321 569 l 289 569 m 111 569 q 76 583 89 569 q 63 624 63 596 q 76 664 63 651 q 111 676 89 676 l 122 676 q 158 664 144 676 q 171 624 171 651 q 158 583 171 596 q 122 569 144 569 l 111 569 m 199 739 q 166 751 179 739 q 153 790 153 764 q 166 828 153 817 q 199 840 179 840 l 211 840 q 245 828 232 840 q 258 790 258 817 q 245 751 258 764 q 211 739 232 739 l 199 739 z "},"ࢪ":{"ha":728,"x_min":36,"x_max":669,"o":"m 274 -422 q 100 -370 164 -422 q 36 -218 36 -318 q 100 -67 36 -118 q 272 -17 164 -17 q 353 -26 318 -17 q 419 -56 389 -35 q 478 -110 450 -76 q 540 -193 507 -143 l 544 -199 q 588 -87 572 -150 q 603 51 603 -25 q 599 135 603 90 q 589 219 596 181 l 560 388 l 631 401 l 651 264 q 665 155 661 210 q 669 50 669 100 q 647 -119 669 -42 q 583 -256 624 -196 l 669 -381 l 608 -422 l 535 -315 q 417 -394 483 -367 q 274 -422 351 -422 m 288 -337 q 497 -258 415 -337 l 481 -235 q 435 -170 454 -196 q 394 -129 415 -144 q 349 -108 374 -114 q 286 -101 324 -101 l 249 -101 q 139 -129 174 -101 q 104 -218 104 -157 q 140 -309 104 -281 q 251 -337 175 -337 l 288 -337 z "},"ﻟ":{"ha":364,"x_min":-22,"x_max":251,"o":"m -22 63 l 0 85 l 26 85 q 142 121 106 85 q 178 235 178 157 l 178 1028 l 251 1028 l 251 235 q 198 56 251 113 q 26 0 144 0 l -22 0 l -22 63 z "},"ﱂ":{"ha":525,"x_min":83,"x_max":547,"o":"m 83 11 q 130 179 83 124 q 276 239 176 235 l 276 1028 l 350 1028 l 350 235 q 414 217 379 228 q 486 189 449 206 l 547 163 l 511 85 l 438 118 q 361 144 399 135 q 296 154 324 154 q 188 119 222 154 q 154 8 154 85 l 154 -425 l 83 -425 l 83 11 z "},"ﳌ":{"ha":329,"x_min":-22,"x_max":378,"o":"m 257 -40 q 220 -22 238 -29 q 185 -9 203 -14 q 146 -2 167 -4 q 99 0 125 0 l -22 0 l -22 63 l 0 85 l 118 85 l 118 1028 l 192 1028 l 192 76 q 299 35 243 67 l 378 -11 l 335 -85 l 257 -40 z "},"ل":{"ha":908,"x_min":61,"x_max":796,"o":"m 419 -333 q 156 -242 250 -333 q 61 14 61 -150 q 78 149 61 78 q 126 292 96 221 l 189 271 q 144 144 161 208 q 128 21 128 79 q 197 -175 128 -106 q 390 -244 267 -244 l 450 -244 q 657 -174 592 -244 q 722 51 722 -104 l 722 1028 l 796 1028 l 796 51 q 419 -333 796 -333 z "},"ﻝ":{"ha":908,"x_min":61,"x_max":796,"o":"m 419 -333 q 156 -242 250 -333 q 61 14 61 -150 q 78 149 61 78 q 126 292 96 221 l 189 271 q 144 144 161 208 q 128 21 128 79 q 197 -175 128 -106 q 390 -244 267 -244 l 450 -244 q 657 -174 592 -244 q 722 51 722 -104 l 722 1028 l 796 1028 l 796 51 q 419 -333 796 -333 z "},"ڵ":{"ha":908,"x_min":61,"x_max":796,"o":"m 419 -333 q 156 -242 250 -333 q 61 14 61 -150 q 78 149 61 78 q 126 292 96 221 l 189 271 q 144 144 161 208 q 128 21 128 79 q 197 -175 128 -106 q 390 -244 267 -244 l 450 -244 q 657 -174 592 -244 q 722 51 722 -104 l 722 1028 l 796 1028 l 796 51 q 419 -333 796 -333 m 240 1075 l 311 1075 l 388 883 l 389 883 l 464 1075 l 526 1075 l 422 822 l 344 822 l 240 1075 z "},"ڶ":{"ha":908,"x_min":61,"x_max":796,"o":"m 419 -333 q 156 -242 250 -333 q 61 14 61 -150 q 78 149 61 78 q 126 292 96 221 l 189 271 q 144 144 161 208 q 128 21 128 79 q 197 -175 128 -106 q 390 -244 267 -244 l 450 -244 q 657 -174 592 -244 q 722 51 722 -104 l 722 1028 l 796 1028 l 796 51 q 419 -333 796 -333 m 378 881 q 342 894 356 881 q 329 935 329 907 q 342 975 329 963 q 378 988 356 988 l 389 988 q 424 975 411 988 q 438 935 438 963 q 424 894 438 907 q 389 881 411 881 l 378 881 z "},"ڷ":{"ha":908,"x_min":61,"x_max":796,"o":"m 419 -333 q 156 -242 250 -333 q 61 14 61 -150 q 78 149 61 78 q 126 292 96 221 l 189 271 q 144 144 161 208 q 128 21 128 79 q 197 -175 128 -106 q 390 -244 267 -244 l 450 -244 q 657 -174 592 -244 q 722 51 722 -104 l 722 1028 l 796 1028 l 796 51 q 419 -333 796 -333 m 467 881 q 418 935 418 881 q 467 988 418 988 l 478 988 q 513 975 499 988 q 526 935 526 963 q 513 894 526 907 q 478 881 499 881 l 467 881 m 289 881 q 253 894 267 881 q 240 935 240 907 q 253 975 240 963 q 289 988 267 988 l 300 988 q 335 975 322 988 q 349 935 349 963 q 335 894 349 907 q 300 881 322 881 l 289 881 m 376 1050 q 344 1063 357 1050 q 331 1101 331 1075 q 344 1140 331 1128 q 376 1151 357 1151 l 389 1151 q 423 1140 410 1151 q 436 1101 436 1128 q 423 1063 436 1075 q 389 1050 410 1050 l 376 1050 z "},"ڸ":{"ha":908,"x_min":61,"x_max":796,"o":"m 419 -333 q 156 -242 250 -333 q 61 14 61 -150 q 78 149 61 78 q 126 292 96 221 l 189 271 q 144 144 161 208 q 128 21 128 79 q 197 -175 128 -106 q 390 -244 267 -244 l 450 -244 q 657 -174 592 -244 q 722 51 722 -104 l 722 1028 l 796 1028 l 796 51 q 419 -333 796 -333 m 500 -611 q 465 -599 478 -611 q 451 -558 451 -586 q 465 -518 451 -531 q 500 -506 478 -506 l 511 -506 q 547 -518 533 -506 q 560 -558 560 -531 q 547 -599 560 -586 q 511 -611 533 -611 l 500 -611 m 410 -776 q 377 -764 390 -776 q 364 -725 364 -751 q 377 -686 364 -699 q 410 -674 390 -674 l 422 -674 q 456 -686 443 -674 q 469 -725 469 -699 q 456 -764 469 -751 q 422 -776 443 -776 l 410 -776 m 322 -611 q 287 -599 300 -611 q 274 -558 274 -586 q 287 -518 274 -531 q 322 -506 300 -506 l 333 -506 q 369 -518 356 -506 q 382 -558 382 -531 q 369 -599 382 -586 q 333 -611 356 -611 l 322 -611 z "},"ݪ":{"ha":908,"x_min":61,"x_max":915,"o":"m 604 622 l 722 622 l 722 1028 l 796 1028 l 796 622 l 915 622 l 915 557 l 796 557 l 796 51 q 419 -333 796 -333 q 156 -242 250 -333 q 61 14 61 -150 q 78 149 61 78 q 126 292 96 221 l 189 271 q 144 144 161 208 q 128 21 128 79 q 197 -175 128 -106 q 390 -244 267 -244 l 450 -244 q 657 -174 592 -244 q 722 51 722 -104 l 722 557 l 604 557 l 604 622 z "},"ࢦ":{"ha":908,"x_min":61,"x_max":915,"o":"m 604 697 l 722 697 l 722 1028 l 796 1028 l 796 697 l 915 697 l 915 633 l 796 633 l 796 546 l 915 546 l 915 481 l 796 481 l 796 51 q 419 -333 796 -333 q 156 -242 250 -333 q 61 14 61 -150 q 78 149 61 78 q 126 292 96 221 l 189 271 q 144 144 161 208 q 128 21 128 79 q 197 -175 128 -106 q 390 -244 267 -244 l 450 -244 q 657 -174 592 -244 q 722 51 722 -104 l 722 481 l 604 481 l 604 546 l 722 546 l 722 633 l 604 633 l 604 697 z "},"ﻞ":{"ha":976,"x_min":61,"x_max":976,"o":"m 419 -333 q 156 -242 250 -333 q 61 14 61 -150 q 78 149 61 78 q 126 292 96 221 l 189 271 q 144 144 161 208 q 128 21 128 79 q 197 -175 128 -106 q 390 -244 267 -244 l 450 -244 q 657 -174 592 -244 q 722 51 722 -104 l 722 1028 l 796 1028 l 796 85 l 976 85 l 976 22 l 954 0 l 793 0 q 419 -333 769 -333 z "},"ں":{"ha":910,"x_min":61,"x_max":851,"o":"m 440 -222 q 160 -131 260 -222 q 61 125 61 -39 q 78 260 61 189 q 126 403 96 332 l 189 382 q 144 258 161 321 q 128 142 128 196 q 202 -61 128 11 q 411 -133 276 -133 l 469 -133 q 783 147 783 -133 q 782 192 783 169 q 777 242 781 215 q 769 303 774 269 q 756 382 764 338 l 735 497 l 804 511 l 824 396 q 837 314 832 350 q 845 249 842 278 q 850 194 849 219 q 851 147 851 169 q 440 -222 851 -222 z "},"ن":{"ha":910,"x_min":61,"x_max":851,"o":"m 440 -222 q 160 -131 260 -222 q 61 125 61 -39 q 78 260 61 189 q 126 403 96 332 l 189 382 q 144 258 161 321 q 128 142 128 196 q 202 -61 128 11 q 411 -133 276 -133 l 469 -133 q 783 147 783 -133 q 782 192 783 169 q 777 242 781 215 q 769 303 774 269 q 756 382 764 338 l 735 497 l 804 511 l 824 396 q 837 314 832 350 q 845 249 842 278 q 850 194 849 219 q 851 147 851 169 q 440 -222 851 -222 m 463 535 q 427 548 440 535 q 414 589 414 561 q 427 629 414 617 q 463 642 440 642 l 474 642 q 509 629 496 642 q 522 589 522 617 q 509 548 522 561 q 474 535 496 535 l 463 535 z "},"ﻥ":{"ha":910,"x_min":61,"x_max":851,"o":"m 440 -222 q 160 -131 260 -222 q 61 125 61 -39 q 78 260 61 189 q 126 403 96 332 l 189 382 q 144 258 161 321 q 128 142 128 196 q 202 -61 128 11 q 411 -133 276 -133 l 469 -133 q 783 147 783 -133 q 782 192 783 169 q 777 242 781 215 q 769 303 774 269 q 756 382 764 338 l 735 497 l 804 511 l 824 396 q 837 314 832 350 q 845 249 842 278 q 850 194 849 219 q 851 147 851 169 q 440 -222 851 -222 m 463 535 q 427 548 440 535 q 414 589 414 561 q 427 629 414 617 q 463 642 440 642 l 474 642 q 509 629 496 642 q 522 589 522 617 q 509 548 522 561 q 474 535 496 535 l 463 535 z "},"ڹ":{"ha":910,"x_min":61,"x_max":851,"o":"m 440 -222 q 160 -131 260 -222 q 61 125 61 -39 q 78 260 61 189 q 126 403 96 332 l 189 382 q 144 258 161 321 q 128 142 128 196 q 202 -61 128 11 q 411 -133 276 -133 l 469 -133 q 783 147 783 -133 q 782 192 783 169 q 777 242 781 215 q 769 303 774 269 q 756 382 764 338 l 735 497 l 804 511 l 824 396 q 837 314 832 350 q 845 249 842 278 q 850 194 849 219 q 851 147 851 169 q 440 -222 851 -222 m 463 535 q 427 548 440 535 q 414 589 414 561 q 427 629 414 617 q 463 642 440 642 l 474 642 q 509 629 496 642 q 522 589 522 617 q 509 548 522 561 q 474 535 496 535 l 463 535 m 435 -500 q 399 -487 413 -500 q 386 -446 386 -474 q 399 -406 386 -418 q 435 -393 413 -393 l 446 -393 q 481 -406 468 -393 q 494 -446 494 -418 q 481 -487 494 -474 q 446 -500 468 -500 l 435 -500 z "},"ڻ":{"ha":910,"x_min":61,"x_max":851,"o":"m 440 -222 q 160 -131 260 -222 q 61 125 61 -39 q 78 260 61 189 q 126 403 96 332 l 189 382 q 144 258 161 321 q 128 142 128 196 q 202 -61 128 11 q 411 -133 276 -133 l 469 -133 q 783 147 783 -133 q 782 192 783 169 q 777 242 781 215 q 769 303 774 269 q 756 382 764 338 l 735 497 l 804 511 l 824 396 q 837 314 832 350 q 845 249 842 278 q 850 194 849 219 q 851 147 851 169 q 440 -222 851 -222 m 314 538 l 347 538 l 364 567 l 364 800 l 414 800 l 414 643 q 456 674 433 664 q 514 685 479 685 q 592 656 565 685 q 618 579 618 628 q 609 529 618 549 q 584 498 600 510 q 547 481 568 486 q 500 476 525 476 l 314 476 l 314 538 m 390 540 l 392 538 l 500 538 q 556 546 536 538 q 576 579 576 554 q 560 613 576 603 q 519 622 543 622 l 507 622 q 445 611 465 622 q 406 565 425 600 l 390 540 z "},"ڽ":{"ha":910,"x_min":61,"x_max":851,"o":"m 440 -222 q 160 -131 260 -222 q 61 125 61 -39 q 78 260 61 189 q 126 403 96 332 l 189 382 q 144 258 161 321 q 128 142 128 196 q 202 -61 128 11 q 411 -133 276 -133 l 469 -133 q 783 147 783 -133 q 782 192 783 169 q 777 242 781 215 q 769 303 774 269 q 756 382 764 338 l 735 497 l 804 511 l 824 396 q 837 314 832 350 q 845 249 842 278 q 850 194 849 219 q 851 147 851 169 q 440 -222 851 -222 m 551 535 q 503 589 503 535 q 551 642 503 642 l 563 642 q 597 629 583 642 q 611 589 611 617 q 597 548 611 561 q 563 535 583 535 l 551 535 m 374 535 q 338 548 351 535 q 325 589 325 561 q 338 629 325 617 q 374 642 351 642 l 385 642 q 420 629 407 642 q 433 589 433 617 q 420 548 433 561 q 385 535 407 535 l 374 535 m 461 704 q 428 717 442 704 q 415 756 415 729 q 428 794 415 782 q 461 806 442 806 l 474 806 q 508 794 494 806 q 521 756 521 782 q 508 717 521 729 q 474 704 494 704 l 461 704 z "},"ݧ":{"ha":910,"x_min":61,"x_max":851,"o":"m 440 -222 q 160 -131 260 -222 q 61 125 61 -39 q 78 260 61 189 q 126 403 96 332 l 189 382 q 144 258 161 321 q 128 142 128 196 q 202 -61 128 11 q 411 -133 276 -133 l 469 -133 q 783 147 783 -133 q 782 192 783 169 q 777 242 781 215 q 769 303 774 269 q 756 382 764 338 l 735 497 l 804 511 l 824 396 q 837 314 832 350 q 845 249 842 278 q 850 194 849 219 q 851 147 851 169 q 440 -222 851 -222 m 463 535 q 427 548 440 535 q 414 589 414 561 q 427 629 414 617 q 463 642 440 642 l 474 642 q 509 629 496 642 q 522 589 522 617 q 509 548 522 561 q 474 535 496 535 l 463 535 m 524 -500 q 488 -487 501 -500 q 475 -446 475 -474 q 488 -406 475 -418 q 524 -393 501 -393 l 535 -393 q 570 -406 557 -393 q 583 -446 583 -418 q 570 -487 583 -474 q 535 -500 557 -500 l 524 -500 m 346 -500 q 310 -487 324 -500 q 297 -446 297 -474 q 310 -406 297 -418 q 346 -393 324 -393 l 357 -393 q 392 -406 379 -393 q 406 -446 406 -418 q 392 -487 406 -474 q 357 -500 379 -500 l 346 -500 z "},"ݨ":{"ha":910,"x_min":61,"x_max":851,"o":"m 440 -222 q 160 -131 260 -222 q 61 125 61 -39 q 78 260 61 189 q 126 403 96 332 l 189 382 q 144 258 161 321 q 128 142 128 196 q 202 -61 128 11 q 411 -133 276 -133 l 469 -133 q 783 147 783 -133 q 782 192 783 169 q 777 242 781 215 q 769 303 774 269 q 756 382 764 338 l 735 497 l 804 511 l 824 396 q 837 314 832 350 q 845 249 842 278 q 850 194 849 219 q 851 147 851 169 q 440 -222 851 -222 m 463 535 q 427 548 440 535 q 414 589 414 561 q 427 629 414 617 q 463 642 440 642 l 474 642 q 509 629 496 642 q 522 589 522 617 q 509 548 522 561 q 474 535 496 535 l 463 535 m 314 813 l 347 813 l 364 842 l 364 1075 l 414 1075 l 414 918 q 456 949 433 939 q 514 960 479 960 q 592 931 565 960 q 618 854 618 903 q 609 804 618 824 q 584 773 600 785 q 547 756 568 761 q 500 751 525 751 l 314 751 l 314 813 m 390 815 l 392 813 l 500 813 q 556 821 536 813 q 576 854 576 829 q 560 888 576 878 q 519 897 543 897 l 507 897 q 445 886 465 897 q 406 840 425 875 l 390 815 z "},"ݩ":{"ha":910,"x_min":61,"x_max":851,"o":"m 440 -222 q 160 -131 260 -222 q 61 125 61 -39 q 78 260 61 189 q 126 403 96 332 l 189 382 q 144 258 161 321 q 128 142 128 196 q 202 -61 128 11 q 411 -133 276 -133 l 469 -133 q 783 147 783 -133 q 782 192 783 169 q 777 242 781 215 q 769 303 774 269 q 756 382 764 338 l 735 497 l 804 511 l 824 396 q 837 314 832 350 q 845 249 842 278 q 850 194 849 219 q 851 147 851 169 q 440 -222 851 -222 m 463 535 q 427 548 440 535 q 414 589 414 561 q 427 629 414 617 q 463 642 440 642 l 474 642 q 509 629 496 642 q 522 589 522 617 q 509 548 522 561 q 474 535 496 535 l 463 535 m 325 1004 l 396 1004 l 472 813 l 474 813 l 549 1004 l 611 1004 l 507 751 l 429 751 l 325 1004 z "},"ڼ":{"ha":910,"x_min":61,"x_max":851,"o":"m 440 -425 q 349 -387 386 -425 q 313 -293 313 -350 q 338 -212 313 -246 q 133 -101 204 -189 q 61 125 61 -14 q 78 260 61 189 q 126 403 96 332 l 189 382 q 144 258 161 321 q 128 142 128 196 q 202 -61 128 11 q 411 -133 276 -133 l 469 -133 q 783 147 783 -133 q 782 192 783 169 q 777 242 781 215 q 769 303 774 269 q 756 382 764 338 l 735 497 l 804 511 l 824 396 q 837 314 832 350 q 845 249 842 278 q 850 194 849 219 q 851 147 851 169 q 543 -215 851 -171 q 565 -293 565 -251 q 530 -387 565 -350 q 440 -425 494 -425 m 440 -222 q 387 -242 408 -222 q 365 -293 365 -262 q 387 -345 365 -325 q 440 -365 408 -365 q 493 -345 472 -365 q 514 -293 514 -325 q 493 -242 514 -262 q 440 -222 472 -222 m 463 533 q 427 547 440 533 q 414 588 414 560 q 427 628 414 615 q 463 640 440 640 l 474 640 q 509 628 496 640 q 522 588 522 615 q 509 547 522 560 q 474 533 496 533 l 463 533 z "},"ٮ":{"ha":1158,"x_min":64,"x_max":1096,"o":"m 579 -17 q 337 -1 435 -17 q 178 47 239 14 q 90 135 117 81 q 64 269 64 190 q 78 386 64 328 q 124 513 93 444 l 186 492 q 142 378 156 429 q 128 278 128 326 q 149 187 128 225 q 217 125 171 149 q 335 90 263 101 q 508 79 407 79 l 649 79 q 831 87 758 79 q 948 113 904 94 q 1010 161 992 131 q 1028 238 1028 192 q 1025 297 1028 261 q 1011 401 1022 332 l 992 513 l 1063 524 l 1079 413 q 1092 305 1089 343 q 1096 239 1096 267 q 1069 119 1096 168 q 981 40 1042 71 q 822 -3 921 10 q 579 -17 722 -17 z "},"ب":{"ha":1158,"x_min":64,"x_max":1096,"o":"m 579 -17 q 337 -1 435 -17 q 178 47 239 14 q 90 135 117 81 q 64 269 64 190 q 78 386 64 328 q 124 513 93 444 l 186 492 q 142 378 156 429 q 128 278 128 326 q 149 187 128 225 q 217 125 171 149 q 335 90 263 101 q 508 79 407 79 l 649 79 q 831 87 758 79 q 948 113 904 94 q 1010 161 992 131 q 1028 238 1028 192 q 1025 297 1028 261 q 1011 401 1022 332 l 992 513 l 1063 524 l 1079 413 q 1092 305 1089 343 q 1096 239 1096 267 q 1069 119 1096 168 q 981 40 1042 71 q 822 -3 921 10 q 579 -17 722 -17 m 574 -278 q 538 -265 551 -278 q 525 -224 525 -251 q 538 -183 525 -196 q 574 -171 551 -171 l 585 -171 q 620 -183 607 -171 q 633 -224 633 -196 q 620 -265 633 -251 q 585 -278 607 -278 l 574 -278 z "},"ﺏ":{"ha":1158,"x_min":64,"x_max":1096,"o":"m 579 -17 q 337 -1 435 -17 q 178 47 239 14 q 90 135 117 81 q 64 269 64 190 q 78 386 64 328 q 124 513 93 444 l 186 492 q 142 378 156 429 q 128 278 128 326 q 149 187 128 225 q 217 125 171 149 q 335 90 263 101 q 508 79 407 79 l 649 79 q 831 87 758 79 q 948 113 904 94 q 1010 161 992 131 q 1028 238 1028 192 q 1025 297 1028 261 q 1011 401 1022 332 l 992 513 l 1063 524 l 1079 413 q 1092 305 1089 343 q 1096 239 1096 267 q 1069 119 1096 168 q 981 40 1042 71 q 822 -3 921 10 q 579 -17 722 -17 m 574 -278 q 538 -265 551 -278 q 525 -224 525 -251 q 538 -183 525 -196 q 574 -171 551 -171 l 585 -171 q 620 -183 607 -171 q 633 -224 633 -196 q 620 -265 633 -251 q 585 -278 607 -278 l 574 -278 z "},"پ":{"ha":1158,"x_min":64,"x_max":1096,"o":"m 579 -17 q 337 -1 435 -17 q 178 47 239 14 q 90 135 117 81 q 64 269 64 190 q 78 386 64 328 q 124 513 93 444 l 186 492 q 142 378 156 429 q 128 278 128 326 q 149 187 128 225 q 217 125 171 149 q 335 90 263 101 q 508 79 407 79 l 649 79 q 831 87 758 79 q 948 113 904 94 q 1010 161 992 131 q 1028 238 1028 192 q 1025 297 1028 261 q 1011 401 1022 332 l 992 513 l 1063 524 l 1079 413 q 1092 305 1089 343 q 1096 239 1096 267 q 1069 119 1096 168 q 981 40 1042 71 q 822 -3 921 10 q 579 -17 722 -17 m 660 -278 q 624 -265 638 -278 q 611 -225 611 -253 q 624 -185 611 -197 q 660 -172 638 -172 l 671 -172 q 706 -185 693 -172 q 719 -225 719 -197 q 706 -265 719 -253 q 671 -278 693 -278 l 660 -278 m 569 -443 q 537 -431 550 -443 q 524 -392 524 -418 q 537 -353 524 -365 q 569 -340 550 -340 l 582 -340 q 616 -353 603 -340 q 629 -392 629 -365 q 616 -431 629 -418 q 582 -443 603 -443 l 569 -443 m 482 -278 q 447 -265 460 -278 q 433 -225 433 -253 q 447 -185 433 -197 q 482 -172 460 -172 l 493 -172 q 528 -185 515 -172 q 542 -225 542 -197 q 528 -265 542 -253 q 493 -278 515 -278 l 482 -278 z "},"ٻ":{"ha":1158,"x_min":64,"x_max":1096,"o":"m 579 -17 q 337 -1 435 -17 q 178 47 239 14 q 90 135 117 81 q 64 269 64 190 q 78 386 64 328 q 124 513 93 444 l 186 492 q 142 378 156 429 q 128 278 128 326 q 149 187 128 225 q 217 125 171 149 q 335 90 263 101 q 508 79 407 79 l 649 79 q 831 87 758 79 q 948 113 904 94 q 1010 161 992 131 q 1028 238 1028 192 q 1025 297 1028 261 q 1011 401 1022 332 l 992 513 l 1063 524 l 1079 413 q 1092 305 1089 343 q 1096 239 1096 267 q 1069 119 1096 168 q 981 40 1042 71 q 822 -3 921 10 q 579 -17 722 -17 m 574 -368 q 538 -355 551 -368 q 525 -314 525 -342 q 538 -274 525 -286 q 574 -261 551 -261 l 585 -261 q 620 -274 607 -261 q 633 -314 633 -286 q 620 -355 633 -342 q 585 -368 607 -368 l 574 -368 m 574 -192 q 538 -179 551 -192 q 525 -139 525 -167 q 538 -98 525 -111 q 574 -85 551 -85 l 585 -85 q 620 -98 607 -85 q 633 -139 633 -111 q 620 -179 633 -167 q 585 -192 607 -192 l 574 -192 z "},"ڀ":{"ha":1158,"x_min":64,"x_max":1096,"o":"m 579 -17 q 337 -1 435 -17 q 178 47 239 14 q 90 135 117 81 q 64 269 64 190 q 78 386 64 328 q 124 513 93 444 l 186 492 q 142 378 156 429 q 128 278 128 326 q 149 187 128 225 q 217 125 171 149 q 335 90 263 101 q 508 79 407 79 l 649 79 q 831 87 758 79 q 948 113 904 94 q 1010 161 992 131 q 1028 238 1028 192 q 1025 297 1028 261 q 1011 401 1022 332 l 992 513 l 1063 524 l 1079 413 q 1092 305 1089 343 q 1096 239 1096 267 q 1069 119 1096 168 q 981 40 1042 71 q 822 -3 921 10 q 579 -17 722 -17 m 663 -379 q 627 -366 640 -379 q 614 -325 614 -353 q 627 -285 614 -297 q 663 -272 640 -272 l 674 -272 q 709 -285 696 -272 q 722 -325 722 -297 q 709 -366 722 -353 q 674 -379 696 -379 l 663 -379 m 663 -203 q 627 -190 640 -203 q 614 -150 614 -178 q 627 -109 614 -122 q 663 -96 640 -96 l 674 -96 q 709 -109 696 -96 q 722 -150 722 -122 q 709 -190 722 -178 q 674 -203 696 -203 l 663 -203 m 485 -379 q 449 -366 463 -379 q 436 -325 436 -353 q 449 -285 436 -297 q 485 -272 463 -272 l 496 -272 q 531 -285 518 -272 q 544 -325 544 -297 q 531 -366 544 -353 q 496 -379 518 -379 l 485 -379 m 485 -203 q 449 -190 463 -203 q 436 -150 436 -178 q 449 -109 436 -122 q 485 -96 463 -96 l 496 -96 q 531 -109 518 -96 q 544 -150 544 -122 q 531 -190 544 -178 q 496 -203 518 -203 l 485 -203 z "},"ت":{"ha":1158,"x_min":64,"x_max":1096,"o":"m 579 -17 q 337 -1 435 -17 q 178 47 239 14 q 90 135 117 81 q 64 269 64 190 q 78 386 64 328 q 124 513 93 444 l 186 492 q 142 378 156 429 q 128 278 128 326 q 149 187 128 225 q 217 125 171 149 q 335 90 263 101 q 508 79 407 79 l 649 79 q 831 87 758 79 q 948 113 904 94 q 1010 161 992 131 q 1028 238 1028 192 q 1025 297 1028 261 q 1011 401 1022 332 l 992 513 l 1063 524 l 1079 413 q 1092 305 1089 343 q 1096 239 1096 267 q 1069 119 1096 168 q 981 40 1042 71 q 822 -3 921 10 q 579 -17 722 -17 m 660 517 q 624 530 638 517 q 611 571 611 543 q 624 611 611 599 q 660 624 638 624 l 671 624 q 706 611 693 624 q 719 571 719 599 q 706 530 719 543 q 671 517 693 517 l 660 517 m 482 517 q 447 530 460 517 q 433 571 433 543 q 447 611 433 599 q 482 624 460 624 l 493 624 q 528 611 515 624 q 542 571 542 599 q 528 530 542 543 q 493 517 515 517 l 482 517 z "},"ﺕ":{"ha":1158,"x_min":64,"x_max":1096,"o":"m 579 -17 q 337 -1 435 -17 q 178 47 239 14 q 90 135 117 81 q 64 269 64 190 q 78 386 64 328 q 124 513 93 444 l 186 492 q 142 378 156 429 q 128 278 128 326 q 149 187 128 225 q 217 125 171 149 q 335 90 263 101 q 508 79 407 79 l 649 79 q 831 87 758 79 q 948 113 904 94 q 1010 161 992 131 q 1028 238 1028 192 q 1025 297 1028 261 q 1011 401 1022 332 l 992 513 l 1063 524 l 1079 413 q 1092 305 1089 343 q 1096 239 1096 267 q 1069 119 1096 168 q 981 40 1042 71 q 822 -3 921 10 q 579 -17 722 -17 m 660 517 q 624 530 638 517 q 611 571 611 543 q 624 611 611 599 q 660 624 638 624 l 671 624 q 706 611 693 624 q 719 571 719 599 q 706 530 719 543 q 671 517 693 517 l 660 517 m 482 517 q 447 530 460 517 q 433 571 433 543 q 447 611 433 599 q 482 624 460 624 l 493 624 q 528 611 515 624 q 542 571 542 599 q 528 530 542 543 q 493 517 515 517 l 482 517 z "},"ٽ":{"ha":1158,"x_min":64,"x_max":1096,"o":"m 579 -17 q 337 -1 435 -17 q 178 47 239 14 q 90 135 117 81 q 64 269 64 190 q 78 386 64 328 q 124 513 93 444 l 186 492 q 142 378 156 429 q 128 278 128 326 q 149 187 128 225 q 217 125 171 149 q 335 90 263 101 q 508 79 407 79 l 649 79 q 831 87 758 79 q 948 113 904 94 q 1010 161 992 131 q 1028 238 1028 192 q 1025 297 1028 261 q 1011 401 1022 332 l 992 513 l 1063 524 l 1079 413 q 1092 305 1089 343 q 1096 239 1096 267 q 1069 119 1096 168 q 981 40 1042 71 q 822 -3 921 10 q 579 -17 722 -17 m 665 682 q 630 694 643 682 q 617 735 617 707 q 630 775 617 763 q 665 788 643 788 l 676 788 q 712 775 699 788 q 725 735 725 763 q 712 694 725 707 q 676 682 699 682 l 665 682 m 575 517 q 542 529 556 517 q 529 568 529 542 q 542 607 529 594 q 575 619 556 619 l 588 619 q 622 607 608 619 q 635 568 635 594 q 622 529 635 542 q 588 517 608 517 l 575 517 m 488 682 q 452 694 465 682 q 439 735 439 707 q 452 775 439 763 q 488 788 465 788 l 499 788 q 534 775 521 788 q 547 735 547 763 q 534 694 547 707 q 499 682 521 682 l 488 682 z "},"ث":{"ha":1158,"x_min":64,"x_max":1096,"o":"m 579 -17 q 337 -1 435 -17 q 178 47 239 14 q 90 135 117 81 q 64 269 64 190 q 78 386 64 328 q 124 513 93 444 l 186 492 q 142 378 156 429 q 128 278 128 326 q 149 187 128 225 q 217 125 171 149 q 335 90 263 101 q 508 79 407 79 l 649 79 q 831 87 758 79 q 948 113 904 94 q 1010 161 992 131 q 1028 238 1028 192 q 1025 297 1028 261 q 1011 401 1022 332 l 992 513 l 1063 524 l 1079 413 q 1092 305 1089 343 q 1096 239 1096 267 q 1069 119 1096 168 q 981 40 1042 71 q 822 -3 921 10 q 579 -17 722 -17 m 663 517 q 614 571 614 517 q 663 624 614 624 l 674 624 q 708 611 694 624 q 722 571 722 599 q 708 530 722 543 q 674 517 694 517 l 663 517 m 485 517 q 449 530 463 517 q 436 571 436 543 q 449 611 436 599 q 485 624 463 624 l 496 624 q 531 611 518 624 q 544 571 544 599 q 531 530 544 543 q 496 517 518 517 l 485 517 m 572 686 q 540 699 553 686 q 526 738 526 711 q 540 776 526 764 q 572 788 553 788 l 585 788 q 619 776 606 788 q 632 738 632 764 q 619 699 632 711 q 585 686 606 686 l 572 686 z "},"ﺙ":{"ha":1158,"x_min":64,"x_max":1096,"o":"m 579 -17 q 337 -1 435 -17 q 178 47 239 14 q 90 135 117 81 q 64 269 64 190 q 78 386 64 328 q 124 513 93 444 l 186 492 q 142 378 156 429 q 128 278 128 326 q 149 187 128 225 q 217 125 171 149 q 335 90 263 101 q 508 79 407 79 l 649 79 q 831 87 758 79 q 948 113 904 94 q 1010 161 992 131 q 1028 238 1028 192 q 1025 297 1028 261 q 1011 401 1022 332 l 992 513 l 1063 524 l 1079 413 q 1092 305 1089 343 q 1096 239 1096 267 q 1069 119 1096 168 q 981 40 1042 71 q 822 -3 921 10 q 579 -17 722 -17 m 663 517 q 614 571 614 517 q 663 624 614 624 l 674 624 q 708 611 694 624 q 722 571 722 599 q 708 530 722 543 q 674 517 694 517 l 663 517 m 485 517 q 449 530 463 517 q 436 571 436 543 q 449 611 436 599 q 485 624 463 624 l 496 624 q 531 611 518 624 q 544 571 544 599 q 531 530 544 543 q 496 517 518 517 l 485 517 m 572 686 q 540 699 553 686 q 526 738 526 711 q 540 776 526 764 q 572 788 553 788 l 585 788 q 619 776 606 788 q 632 738 632 764 q 619 699 632 711 q 585 686 606 686 l 572 686 z "},"ٹ":{"ha":1158,"x_min":64,"x_max":1096,"o":"m 579 -17 q 337 -1 435 -17 q 178 47 239 14 q 90 135 117 81 q 64 269 64 190 q 78 386 64 328 q 124 513 93 444 l 186 492 q 142 378 156 429 q 128 278 128 326 q 149 187 128 225 q 217 125 171 149 q 335 90 263 101 q 508 79 407 79 l 649 79 q 831 87 758 79 q 948 113 904 94 q 1010 161 992 131 q 1028 238 1028 192 q 1025 297 1028 261 q 1011 401 1022 332 l 992 513 l 1063 524 l 1079 413 q 1092 305 1089 343 q 1096 239 1096 267 q 1069 119 1096 168 q 981 40 1042 71 q 822 -3 921 10 q 579 -17 722 -17 m 425 519 l 458 519 l 475 549 l 475 782 l 525 782 l 525 625 q 567 656 544 646 q 625 667 590 667 q 703 638 676 667 q 729 561 729 610 q 720 511 729 531 q 695 480 711 492 q 658 463 679 468 q 611 458 636 458 l 425 458 l 425 519 m 501 522 l 503 519 l 611 519 q 667 528 647 519 q 688 561 688 536 q 671 594 688 585 q 631 604 654 604 l 618 604 q 556 593 576 604 q 517 547 536 582 l 501 522 z "},"ٺ":{"ha":1158,"x_min":64,"x_max":1096,"o":"m 579 -17 q 337 -1 435 -17 q 178 47 239 14 q 90 135 117 81 q 64 269 64 190 q 78 386 64 328 q 124 513 93 444 l 186 492 q 142 378 156 429 q 128 278 128 326 q 149 187 128 225 q 217 125 171 149 q 335 90 263 101 q 508 79 407 79 l 649 79 q 831 87 758 79 q 948 113 904 94 q 1010 161 992 131 q 1028 238 1028 192 q 1025 297 1028 261 q 1011 401 1022 332 l 992 513 l 1063 524 l 1079 413 q 1092 305 1089 343 q 1096 239 1096 267 q 1069 119 1096 168 q 981 40 1042 71 q 822 -3 921 10 q 579 -17 722 -17 m 574 517 q 538 530 551 517 q 525 571 525 543 q 538 611 525 599 q 574 624 551 624 l 585 624 q 620 611 607 624 q 633 571 633 599 q 620 530 633 543 q 585 517 607 517 l 574 517 m 574 693 q 538 706 551 693 q 525 746 525 718 q 538 787 525 774 q 574 800 551 800 l 585 800 q 620 787 607 800 q 633 746 633 774 q 620 706 633 718 q 585 693 607 693 l 574 693 z "},"ٿ":{"ha":1158,"x_min":64,"x_max":1096,"o":"m 579 -17 q 337 -1 435 -17 q 178 47 239 14 q 90 135 117 81 q 64 269 64 190 q 78 386 64 328 q 124 513 93 444 l 186 492 q 142 378 156 429 q 128 278 128 326 q 149 187 128 225 q 217 125 171 149 q 335 90 263 101 q 508 79 407 79 l 649 79 q 831 87 758 79 q 948 113 904 94 q 1010 161 992 131 q 1028 238 1028 192 q 1025 297 1028 261 q 1011 401 1022 332 l 992 513 l 1063 524 l 1079 413 q 1092 305 1089 343 q 1096 239 1096 267 q 1069 119 1096 168 q 981 40 1042 71 q 822 -3 921 10 q 579 -17 722 -17 m 663 517 q 627 530 640 517 q 614 571 614 543 q 627 611 614 599 q 663 624 640 624 l 674 624 q 709 611 696 624 q 722 571 722 599 q 709 530 722 543 q 674 517 696 517 l 663 517 m 663 693 q 627 706 640 693 q 614 746 614 718 q 627 787 614 774 q 663 800 640 800 l 674 800 q 709 787 696 800 q 722 746 722 774 q 709 706 722 718 q 674 693 696 693 l 663 693 m 485 517 q 449 530 463 517 q 436 571 436 543 q 449 611 436 599 q 485 624 463 624 l 496 624 q 531 611 518 624 q 544 571 544 599 q 531 530 544 543 q 496 517 518 517 l 485 517 m 485 693 q 449 706 463 693 q 436 746 436 718 q 449 787 436 774 q 485 800 463 800 l 496 800 q 531 787 518 800 q 544 746 544 774 q 531 706 544 718 q 496 693 518 693 l 485 693 z "},"ݐ":{"ha":1158,"x_min":64,"x_max":1096,"o":"m 579 -17 q 337 -1 435 -17 q 178 47 239 14 q 90 135 117 81 q 64 269 64 190 q 78 386 64 328 q 124 513 93 444 l 186 492 q 142 378 156 429 q 128 278 128 326 q 149 187 128 225 q 217 125 171 149 q 335 90 263 101 q 508 79 407 79 l 649 79 q 831 87 758 79 q 948 113 904 94 q 1010 161 992 131 q 1028 238 1028 192 q 1025 297 1028 261 q 1011 401 1022 332 l 992 513 l 1063 524 l 1079 413 q 1092 305 1089 343 q 1096 239 1096 267 q 1069 119 1096 168 q 981 40 1042 71 q 822 -3 921 10 q 579 -17 722 -17 m 751 -278 q 716 -265 729 -278 q 703 -224 703 -251 q 716 -183 703 -196 q 751 -171 729 -171 l 763 -171 q 798 -183 785 -171 q 811 -224 811 -196 q 798 -265 811 -251 q 763 -278 785 -278 l 751 -278 m 574 -278 q 538 -265 551 -278 q 525 -224 525 -251 q 538 -183 525 -196 q 574 -171 551 -171 l 585 -171 q 620 -183 607 -171 q 633 -224 633 -196 q 620 -265 633 -251 q 585 -278 607 -278 l 574 -278 m 396 -278 q 360 -265 374 -278 q 347 -224 347 -251 q 360 -183 347 -196 q 396 -171 374 -171 l 407 -171 q 442 -183 429 -171 q 456 -224 456 -196 q 442 -265 456 -251 q 407 -278 429 -278 l 396 -278 z "},"ݑ":{"ha":1158,"x_min":64,"x_max":1096,"o":"m 579 -17 q 337 -1 435 -17 q 178 47 239 14 q 90 135 117 81 q 64 269 64 190 q 78 386 64 328 q 124 513 93 444 l 186 492 q 142 378 156 429 q 128 278 128 326 q 149 187 128 225 q 217 125 171 149 q 335 90 263 101 q 508 79 407 79 l 649 79 q 831 87 758 79 q 948 113 904 94 q 1010 161 992 131 q 1028 238 1028 192 q 1025 297 1028 261 q 1011 401 1022 332 l 992 513 l 1063 524 l 1079 413 q 1092 305 1089 343 q 1096 239 1096 267 q 1069 119 1096 168 q 981 40 1042 71 q 822 -3 921 10 q 579 -17 722 -17 m 574 -278 q 538 -265 551 -278 q 525 -224 525 -251 q 538 -183 525 -196 q 574 -171 551 -171 l 585 -171 q 620 -183 607 -171 q 633 -224 633 -196 q 620 -265 633 -251 q 585 -278 607 -278 l 574 -278 m 663 517 q 614 571 614 517 q 663 624 614 624 l 674 624 q 708 611 694 624 q 722 571 722 599 q 708 530 722 543 q 674 517 694 517 l 663 517 m 485 517 q 449 530 463 517 q 436 571 436 543 q 449 611 436 599 q 485 624 463 624 l 496 624 q 531 611 518 624 q 544 571 544 599 q 531 530 544 543 q 496 517 518 517 l 485 517 m 572 686 q 540 699 553 686 q 526 738 526 711 q 540 776 526 764 q 572 788 553 788 l 585 788 q 619 776 606 788 q 632 738 632 764 q 619 699 632 711 q 585 686 606 686 l 572 686 z "},"ݒ":{"ha":1158,"x_min":64,"x_max":1096,"o":"m 579 -17 q 337 -1 435 -17 q 178 47 239 14 q 90 135 117 81 q 64 269 64 190 q 78 386 64 328 q 124 513 93 444 l 186 492 q 142 378 156 429 q 128 278 128 326 q 149 187 128 225 q 217 125 171 149 q 335 90 263 101 q 508 79 407 79 l 649 79 q 831 87 758 79 q 948 113 904 94 q 1010 161 992 131 q 1028 238 1028 192 q 1025 297 1028 261 q 1011 401 1022 332 l 992 513 l 1063 524 l 1079 413 q 1092 305 1089 343 q 1096 239 1096 267 q 1069 119 1096 168 q 981 40 1042 71 q 822 -3 921 10 q 579 -17 722 -17 m 660 -443 q 611 -389 611 -443 q 660 -336 611 -336 l 671 -336 q 706 -349 692 -336 q 719 -389 719 -361 q 706 -430 719 -417 q 671 -443 692 -443 l 660 -443 m 482 -443 q 447 -430 460 -443 q 433 -389 433 -417 q 447 -349 433 -361 q 482 -336 460 -336 l 493 -336 q 528 -349 515 -336 q 542 -389 542 -361 q 528 -430 542 -417 q 493 -443 515 -443 l 482 -443 m 569 -274 q 537 -261 550 -274 q 524 -222 524 -249 q 537 -184 524 -196 q 569 -172 550 -172 l 582 -172 q 616 -184 603 -172 q 629 -222 629 -196 q 616 -261 629 -249 q 582 -274 603 -274 l 569 -274 z "},"ݓ":{"ha":1158,"x_min":64,"x_max":1096,"o":"m 579 -17 q 337 -1 435 -17 q 178 47 239 14 q 90 135 117 81 q 64 269 64 190 q 78 386 64 328 q 124 513 93 444 l 186 492 q 142 378 156 429 q 128 278 128 326 q 149 187 128 225 q 217 125 171 149 q 335 90 263 101 q 508 79 407 79 l 649 79 q 831 87 758 79 q 948 113 904 94 q 1010 161 992 131 q 1028 238 1028 192 q 1025 297 1028 261 q 1011 401 1022 332 l 992 513 l 1063 524 l 1079 413 q 1092 305 1089 343 q 1096 239 1096 267 q 1069 119 1096 168 q 981 40 1042 71 q 822 -3 921 10 q 579 -17 722 -17 m 660 -443 q 611 -389 611 -443 q 660 -336 611 -336 l 671 -336 q 706 -349 692 -336 q 719 -389 719 -361 q 706 -430 719 -417 q 671 -443 692 -443 l 660 -443 m 482 -443 q 447 -430 460 -443 q 433 -389 433 -417 q 447 -349 433 -361 q 482 -336 460 -336 l 493 -336 q 528 -349 515 -336 q 542 -389 542 -361 q 528 -430 542 -417 q 493 -443 515 -443 l 482 -443 m 569 -274 q 537 -261 550 -274 q 524 -222 524 -249 q 537 -184 524 -196 q 569 -172 550 -172 l 582 -172 q 616 -184 603 -172 q 629 -222 629 -196 q 616 -261 629 -249 q 582 -274 603 -274 l 569 -274 m 660 517 q 624 530 638 517 q 611 571 611 543 q 624 611 611 599 q 660 624 638 624 l 671 624 q 706 611 693 624 q 719 571 719 599 q 706 530 719 543 q 671 517 693 517 l 660 517 m 482 517 q 447 530 460 517 q 433 571 433 543 q 447 611 433 599 q 482 624 460 624 l 493 624 q 528 611 515 624 q 542 571 542 599 q 528 530 542 543 q 493 517 515 517 l 482 517 z "},"ݔ":{"ha":1158,"x_min":64,"x_max":1096,"o":"m 579 -17 q 337 -1 435 -17 q 178 47 239 14 q 90 135 117 81 q 64 269 64 190 q 78 386 64 328 q 124 513 93 444 l 186 492 q 142 378 156 429 q 128 278 128 326 q 149 187 128 225 q 217 125 171 149 q 335 90 263 101 q 508 79 407 79 l 649 79 q 831 87 758 79 q 948 113 904 94 q 1010 161 992 131 q 1028 238 1028 192 q 1025 297 1028 261 q 1011 401 1022 332 l 992 513 l 1063 524 l 1079 413 q 1092 305 1089 343 q 1096 239 1096 267 q 1069 119 1096 168 q 981 40 1042 71 q 822 -3 921 10 q 579 -17 722 -17 m 663 -278 q 627 -265 640 -278 q 614 -224 614 -251 q 627 -183 614 -196 q 663 -171 640 -171 l 674 -171 q 709 -183 696 -171 q 722 -224 722 -196 q 709 -265 722 -251 q 674 -278 696 -278 l 663 -278 m 485 -278 q 449 -265 463 -278 q 436 -224 436 -251 q 449 -183 436 -196 q 485 -171 463 -171 l 496 -171 q 531 -183 518 -171 q 544 -224 544 -196 q 531 -265 544 -251 q 496 -278 518 -278 l 485 -278 m 574 517 q 538 530 551 517 q 525 571 525 543 q 538 611 525 599 q 574 624 551 624 l 585 624 q 620 611 607 624 q 633 571 633 599 q 620 530 633 543 q 585 517 607 517 l 574 517 z "},"ݕ":{"ha":1158,"x_min":64,"x_max":1096,"o":"m 579 -17 q 337 -1 435 -17 q 178 47 239 14 q 90 135 117 81 q 64 269 64 190 q 78 386 64 328 q 124 513 93 444 l 186 492 q 142 378 156 429 q 128 278 128 326 q 149 187 128 225 q 217 125 171 149 q 335 90 263 101 q 508 79 407 79 l 649 79 q 831 87 758 79 q 948 113 904 94 q 1010 161 992 131 q 1028 238 1028 192 q 1025 297 1028 261 q 1011 401 1022 332 l 992 513 l 1063 524 l 1079 413 q 1092 305 1089 343 q 1096 239 1096 267 q 1069 119 1096 168 q 981 40 1042 71 q 822 -3 921 10 q 579 -17 722 -17 m 722 -350 l 651 -350 l 575 -158 l 574 -158 l 500 -350 l 436 -350 l 542 -97 l 618 -97 l 722 -350 z "},"ݖ":{"ha":1158,"x_min":64,"x_max":1096,"o":"m 579 -17 q 337 -1 435 -17 q 178 47 239 14 q 90 135 117 81 q 64 269 64 190 q 78 386 64 328 q 124 513 93 444 l 186 492 q 142 378 156 429 q 128 278 128 326 q 149 187 128 225 q 217 125 171 149 q 335 90 263 101 q 508 79 407 79 l 649 79 q 831 87 758 79 q 948 113 904 94 q 1010 161 992 131 q 1028 238 1028 192 q 1025 297 1028 261 q 1011 401 1022 332 l 992 513 l 1063 524 l 1079 413 q 1092 305 1089 343 q 1096 239 1096 267 q 1069 119 1096 168 q 981 40 1042 71 q 822 -3 921 10 q 579 -17 722 -17 m 436 711 l 507 711 l 583 519 l 585 519 l 660 711 l 722 711 l 618 458 l 540 458 l 436 711 z "},"ࢠ":{"ha":1158,"x_min":64,"x_max":1096,"o":"m 579 -17 q 337 -1 435 -17 q 178 47 239 14 q 90 135 117 81 q 64 269 64 190 q 78 386 64 328 q 124 513 93 444 l 186 492 q 142 378 156 429 q 128 278 128 326 q 149 187 128 225 q 217 125 171 149 q 335 90 263 101 q 508 79 407 79 l 649 79 q 831 87 758 79 q 948 113 904 94 q 1010 161 992 131 q 1028 238 1028 192 q 1025 297 1028 261 q 1011 401 1022 332 l 992 513 l 1063 524 l 1079 413 q 1092 305 1089 343 q 1096 239 1096 267 q 1069 119 1096 168 q 981 40 1042 71 q 822 -3 921 10 q 579 -17 722 -17 m 436 -97 l 507 -97 l 583 -289 l 585 -289 l 660 -97 l 722 -97 l 618 -350 l 540 -350 l 436 -97 z "},"ټ":{"ha":1158,"x_min":64,"x_max":1096,"o":"m 579 -219 q 488 -182 525 -219 q 451 -87 451 -144 q 472 -14 451 -46 q 281 10 360 -8 q 155 62 203 28 q 85 147 107 96 q 64 269 64 199 q 78 386 64 328 q 124 513 93 444 l 186 492 q 142 378 156 429 q 128 278 128 326 q 149 187 128 225 q 217 125 171 149 q 335 90 263 101 q 508 79 407 79 l 649 79 q 831 87 758 79 q 948 113 904 94 q 1010 161 992 131 q 1028 238 1028 192 q 1025 297 1028 261 q 1011 401 1022 332 l 992 513 l 1063 524 l 1079 413 q 1092 305 1089 343 q 1096 239 1096 267 q 1074 129 1096 175 q 1004 53 1053 83 q 877 6 956 22 q 685 -14 799 -10 q 704 -87 704 -46 q 669 -182 704 -144 q 579 -219 633 -219 m 579 -17 q 526 -37 547 -17 q 504 -87 504 -57 q 526 -140 504 -119 q 579 -160 547 -160 q 632 -140 611 -160 q 653 -87 653 -119 q 632 -37 653 -58 q 579 -17 611 -17 m 482 515 q 447 528 460 515 q 433 569 433 542 q 447 610 433 597 q 482 622 460 622 l 493 622 q 528 610 515 622 q 542 569 542 597 q 528 528 542 542 q 493 515 515 515 l 482 515 m 660 515 q 624 528 638 515 q 611 569 611 542 q 624 610 611 597 q 660 622 638 622 l 671 622 q 706 610 693 622 q 719 569 719 597 q 706 528 719 542 q 671 515 693 515 l 660 515 z "},"ﮟ":{"ha":1010,"x_min":61,"x_max":1010,"o":"m 440 -333 q 160 -242 260 -333 q 61 14 61 -150 q 78 149 61 78 q 126 292 96 221 l 189 271 q 144 147 161 210 q 128 31 128 85 q 202 -172 128 -100 q 411 -244 276 -244 l 469 -244 q 783 36 783 -244 q 782 81 783 58 q 777 131 781 104 q 769 192 774 158 q 756 271 764 226 l 735 386 l 804 400 l 824 285 q 841 168 835 215 q 850 85 847 121 l 1010 85 l 1010 22 l 988 0 l 850 0 q 440 -333 831 -333 z "},"ﻦ":{"ha":1010,"x_min":61,"x_max":1010,"o":"m 440 -333 q 160 -242 260 -333 q 61 14 61 -150 q 78 149 61 78 q 126 292 96 221 l 189 271 q 144 147 161 210 q 128 31 128 85 q 202 -172 128 -100 q 411 -244 276 -244 l 469 -244 q 783 36 783 -244 q 782 81 783 58 q 777 131 781 104 q 769 192 774 158 q 756 271 764 226 l 735 386 l 804 400 l 824 285 q 841 168 835 215 q 850 85 847 121 l 1010 85 l 1010 22 l 988 0 l 850 0 q 440 -333 831 -333 m 463 424 q 427 437 440 424 q 414 478 414 450 q 427 518 414 506 q 463 531 440 531 l 474 531 q 509 518 496 531 q 522 478 522 506 q 509 437 522 450 q 474 424 496 424 l 463 424 z "},"ﮡ":{"ha":1010,"x_min":61,"x_max":1010,"o":"m 440 -333 q 160 -242 260 -333 q 61 14 61 -150 q 78 149 61 78 q 126 292 96 221 l 189 271 q 144 147 161 210 q 128 31 128 85 q 202 -172 128 -100 q 411 -244 276 -244 l 469 -244 q 783 36 783 -244 q 782 81 783 58 q 777 131 781 104 q 769 192 774 158 q 756 271 764 226 l 735 386 l 804 400 l 824 285 q 841 168 835 215 q 850 85 847 121 l 1010 85 l 1010 22 l 988 0 l 850 0 q 440 -333 831 -333 m 314 426 l 347 426 l 364 456 l 364 689 l 414 689 l 414 532 q 456 563 433 553 q 514 574 479 574 q 592 545 565 574 q 618 468 618 517 q 609 418 618 438 q 584 387 600 399 q 547 370 568 375 q 500 365 525 365 l 314 365 l 314 426 m 390 429 l 392 426 l 500 426 q 556 435 536 426 q 576 468 576 443 q 560 501 576 492 q 519 511 543 511 l 507 511 q 445 500 465 511 q 406 454 425 489 l 390 429 z "},"ﺐ":{"ha":1278,"x_min":64,"x_max":1278,"o":"m 579 -17 q 337 -1 435 -17 q 178 47 239 14 q 90 135 117 81 q 64 269 64 190 q 78 386 64 328 q 124 513 93 444 l 186 492 q 142 378 156 429 q 128 278 128 326 q 149 185 128 224 q 217 121 171 146 q 335 84 263 96 q 508 72 407 72 l 649 72 q 832 80 758 72 q 949 106 906 88 q 1011 155 993 124 q 1029 232 1029 186 l 1029 457 l 1100 457 l 1100 232 q 1133 121 1100 157 q 1238 85 1167 85 l 1278 85 l 1278 22 l 1256 0 q 1040 143 1074 0 l 1035 143 q 995 65 1024 96 q 914 17 967 35 q 779 -9 861 -1 q 579 -17 697 -17 m 574 -278 q 538 -265 551 -278 q 525 -224 525 -251 q 538 -183 525 -196 q 574 -171 551 -171 l 585 -171 q 620 -183 607 -171 q 633 -224 633 -196 q 620 -265 633 -251 q 585 -278 607 -278 l 574 -278 z "},"ﭗ":{"ha":1278,"x_min":64,"x_max":1278,"o":"m 579 -17 q 337 -1 435 -17 q 178 47 239 14 q 90 135 117 81 q 64 269 64 190 q 78 386 64 328 q 124 513 93 444 l 186 492 q 142 378 156 429 q 128 278 128 326 q 149 185 128 224 q 217 121 171 146 q 335 84 263 96 q 508 72 407 72 l 649 72 q 832 80 758 72 q 949 106 906 88 q 1011 155 993 124 q 1029 232 1029 186 l 1029 457 l 1100 457 l 1100 232 q 1133 121 1100 157 q 1238 85 1167 85 l 1278 85 l 1278 22 l 1256 0 q 1040 143 1074 0 l 1035 143 q 995 65 1024 96 q 914 17 967 35 q 779 -9 861 -1 q 579 -17 697 -17 m 660 -278 q 624 -265 638 -278 q 611 -225 611 -253 q 624 -185 611 -197 q 660 -172 638 -172 l 671 -172 q 706 -185 693 -172 q 719 -225 719 -197 q 706 -265 719 -253 q 671 -278 693 -278 l 660 -278 m 569 -443 q 537 -431 550 -443 q 524 -392 524 -418 q 537 -353 524 -365 q 569 -340 550 -340 l 582 -340 q 616 -353 603 -340 q 629 -392 629 -365 q 616 -431 629 -418 q 582 -443 603 -443 l 569 -443 m 482 -278 q 447 -265 460 -278 q 433 -225 433 -253 q 447 -185 433 -197 q 482 -172 460 -172 l 493 -172 q 528 -185 515 -172 q 542 -225 542 -197 q 528 -265 542 -253 q 493 -278 515 -278 l 482 -278 z "},"ﭓ":{"ha":1278,"x_min":64,"x_max":1278,"o":"m 579 -17 q 337 -1 435 -17 q 178 47 239 14 q 90 135 117 81 q 64 269 64 190 q 78 386 64 328 q 124 513 93 444 l 186 492 q 142 378 156 429 q 128 278 128 326 q 149 185 128 224 q 217 121 171 146 q 335 84 263 96 q 508 72 407 72 l 649 72 q 832 80 758 72 q 949 106 906 88 q 1011 155 993 124 q 1029 232 1029 186 l 1029 457 l 1100 457 l 1100 232 q 1133 121 1100 157 q 1238 85 1167 85 l 1278 85 l 1278 22 l 1256 0 q 1040 143 1074 0 l 1035 143 q 995 65 1024 96 q 914 17 967 35 q 779 -9 861 -1 q 579 -17 697 -17 m 574 -368 q 538 -355 551 -368 q 525 -314 525 -342 q 538 -274 525 -286 q 574 -261 551 -261 l 585 -261 q 620 -274 607 -261 q 633 -314 633 -286 q 620 -355 633 -342 q 585 -368 607 -368 l 574 -368 m 574 -192 q 538 -179 551 -192 q 525 -139 525 -167 q 538 -98 525 -111 q 574 -85 551 -85 l 585 -85 q 620 -98 607 -85 q 633 -139 633 -111 q 620 -179 633 -167 q 585 -192 607 -192 l 574 -192 z "},"ﭛ":{"ha":1278,"x_min":64,"x_max":1278,"o":"m 579 -17 q 337 -1 435 -17 q 178 47 239 14 q 90 135 117 81 q 64 269 64 190 q 78 386 64 328 q 124 513 93 444 l 186 492 q 142 378 156 429 q 128 278 128 326 q 149 185 128 224 q 217 121 171 146 q 335 84 263 96 q 508 72 407 72 l 649 72 q 832 80 758 72 q 949 106 906 88 q 1011 155 993 124 q 1029 232 1029 186 l 1029 457 l 1100 457 l 1100 232 q 1133 121 1100 157 q 1238 85 1167 85 l 1278 85 l 1278 22 l 1256 0 q 1040 143 1074 0 l 1035 143 q 995 65 1024 96 q 914 17 967 35 q 779 -9 861 -1 q 579 -17 697 -17 m 663 -379 q 627 -366 640 -379 q 614 -325 614 -353 q 627 -285 614 -297 q 663 -272 640 -272 l 674 -272 q 709 -285 696 -272 q 722 -325 722 -297 q 709 -366 722 -353 q 674 -379 696 -379 l 663 -379 m 663 -203 q 627 -190 640 -203 q 614 -150 614 -178 q 627 -109 614 -122 q 663 -96 640 -96 l 674 -96 q 709 -109 696 -96 q 722 -150 722 -122 q 709 -190 722 -178 q 674 -203 696 -203 l 663 -203 m 485 -379 q 449 -366 463 -379 q 436 -325 436 -353 q 449 -285 436 -297 q 485 -272 463 -272 l 496 -272 q 531 -285 518 -272 q 544 -325 544 -297 q 531 -366 544 -353 q 496 -379 518 -379 l 485 -379 m 485 -203 q 449 -190 463 -203 q 436 -150 436 -178 q 449 -109 436 -122 q 485 -96 463 -96 l 496 -96 q 531 -109 518 -96 q 544 -150 544 -122 q 531 -190 544 -178 q 496 -203 518 -203 l 485 -203 z "},"ﺖ":{"ha":1278,"x_min":64,"x_max":1278,"o":"m 579 -17 q 337 -1 435 -17 q 178 47 239 14 q 90 135 117 81 q 64 269 64 190 q 78 386 64 328 q 124 513 93 444 l 186 492 q 142 378 156 429 q 128 278 128 326 q 149 185 128 224 q 217 121 171 146 q 335 84 263 96 q 508 72 407 72 l 649 72 q 832 80 758 72 q 949 106 906 88 q 1011 155 993 124 q 1029 232 1029 186 l 1029 457 l 1100 457 l 1100 232 q 1133 121 1100 157 q 1238 85 1167 85 l 1278 85 l 1278 22 l 1256 0 q 1040 143 1074 0 l 1035 143 q 995 65 1024 96 q 914 17 967 35 q 779 -9 861 -1 q 579 -17 697 -17 m 660 517 q 624 530 638 517 q 611 571 611 543 q 624 611 611 599 q 660 624 638 624 l 671 624 q 706 611 693 624 q 719 571 719 599 q 706 530 719 543 q 671 517 693 517 l 660 517 m 482 517 q 447 530 460 517 q 433 571 433 543 q 447 611 433 599 q 482 624 460 624 l 493 624 q 528 611 515 624 q 542 571 542 599 q 528 530 542 543 q 493 517 515 517 l 482 517 z "},"ﺚ":{"ha":1278,"x_min":64,"x_max":1278,"o":"m 579 -17 q 337 -1 435 -17 q 178 47 239 14 q 90 135 117 81 q 64 269 64 190 q 78 386 64 328 q 124 513 93 444 l 186 492 q 142 378 156 429 q 128 278 128 326 q 149 185 128 224 q 217 121 171 146 q 335 84 263 96 q 508 72 407 72 l 649 72 q 832 80 758 72 q 949 106 906 88 q 1011 155 993 124 q 1029 232 1029 186 l 1029 457 l 1100 457 l 1100 232 q 1133 121 1100 157 q 1238 85 1167 85 l 1278 85 l 1278 22 l 1256 0 q 1040 143 1074 0 l 1035 143 q 995 65 1024 96 q 914 17 967 35 q 779 -9 861 -1 q 579 -17 697 -17 m 663 517 q 614 571 614 517 q 663 624 614 624 l 674 624 q 708 611 694 624 q 722 571 722 599 q 708 530 722 543 q 674 517 694 517 l 663 517 m 485 517 q 449 530 463 517 q 436 571 436 543 q 449 611 436 599 q 485 624 463 624 l 496 624 q 531 611 518 624 q 544 571 544 599 q 531 530 544 543 q 496 517 518 517 l 485 517 m 572 686 q 540 699 553 686 q 526 738 526 711 q 540 776 526 764 q 572 788 553 788 l 585 788 q 619 776 606 788 q 632 738 632 764 q 619 699 632 711 q 585 686 606 686 l 572 686 z "},"ﭧ":{"ha":1278,"x_min":64,"x_max":1278,"o":"m 579 -17 q 337 -1 435 -17 q 178 47 239 14 q 90 135 117 81 q 64 269 64 190 q 78 386 64 328 q 124 513 93 444 l 186 492 q 142 378 156 429 q 128 278 128 326 q 149 185 128 224 q 217 121 171 146 q 335 84 263 96 q 508 72 407 72 l 649 72 q 832 80 758 72 q 949 106 906 88 q 1011 155 993 124 q 1029 232 1029 186 l 1029 457 l 1100 457 l 1100 232 q 1133 121 1100 157 q 1238 85 1167 85 l 1278 85 l 1278 22 l 1256 0 q 1040 143 1074 0 l 1035 143 q 995 65 1024 96 q 914 17 967 35 q 779 -9 861 -1 q 579 -17 697 -17 m 425 519 l 458 519 l 475 549 l 475 782 l 525 782 l 525 625 q 567 656 544 646 q 625 667 590 667 q 703 638 676 667 q 729 561 729 610 q 720 511 729 531 q 695 480 711 492 q 658 463 679 468 q 611 458 636 458 l 425 458 l 425 519 m 501 522 l 503 519 l 611 519 q 667 528 647 519 q 688 561 688 536 q 671 594 688 585 q 631 604 654 604 l 618 604 q 556 593 576 604 q 517 547 536 582 l 501 522 z "},"ﭟ":{"ha":1278,"x_min":64,"x_max":1278,"o":"m 579 -17 q 337 -1 435 -17 q 178 47 239 14 q 90 135 117 81 q 64 269 64 190 q 78 386 64 328 q 124 513 93 444 l 186 492 q 142 378 156 429 q 128 278 128 326 q 149 185 128 224 q 217 121 171 146 q 335 84 263 96 q 508 72 407 72 l 649 72 q 832 80 758 72 q 949 106 906 88 q 1011 155 993 124 q 1029 232 1029 186 l 1029 457 l 1100 457 l 1100 232 q 1133 121 1100 157 q 1238 85 1167 85 l 1278 85 l 1278 22 l 1256 0 q 1040 143 1074 0 l 1035 143 q 995 65 1024 96 q 914 17 967 35 q 779 -9 861 -1 q 579 -17 697 -17 m 574 517 q 538 530 551 517 q 525 571 525 543 q 538 611 525 599 q 574 624 551 624 l 585 624 q 620 611 607 624 q 633 571 633 599 q 620 530 633 543 q 585 517 607 517 l 574 517 m 574 693 q 538 706 551 693 q 525 746 525 718 q 538 787 525 774 q 574 800 551 800 l 585 800 q 620 787 607 800 q 633 746 633 774 q 620 706 633 718 q 585 693 607 693 l 574 693 z "},"ﭣ":{"ha":1278,"x_min":64,"x_max":1278,"o":"m 579 -17 q 337 -1 435 -17 q 178 47 239 14 q 90 135 117 81 q 64 269 64 190 q 78 386 64 328 q 124 513 93 444 l 186 492 q 142 378 156 429 q 128 278 128 326 q 149 185 128 224 q 217 121 171 146 q 335 84 263 96 q 508 72 407 72 l 649 72 q 832 80 758 72 q 949 106 906 88 q 1011 155 993 124 q 1029 232 1029 186 l 1029 457 l 1100 457 l 1100 232 q 1133 121 1100 157 q 1238 85 1167 85 l 1278 85 l 1278 22 l 1256 0 q 1040 143 1074 0 l 1035 143 q 995 65 1024 96 q 914 17 967 35 q 779 -9 861 -1 q 579 -17 697 -17 m 663 517 q 627 530 640 517 q 614 571 614 543 q 627 611 614 599 q 663 624 640 624 l 674 624 q 709 611 696 624 q 722 571 722 599 q 709 530 722 543 q 674 517 696 517 l 663 517 m 663 693 q 627 706 640 693 q 614 746 614 718 q 627 787 614 774 q 663 800 640 800 l 674 800 q 709 787 696 800 q 722 746 722 774 q 709 706 722 718 q 674 693 696 693 l 663 693 m 485 517 q 449 530 463 517 q 436 571 436 543 q 449 611 436 599 q 485 624 463 624 l 496 624 q 531 611 518 624 q 544 571 544 599 q 531 530 544 543 q 496 517 518 517 l 485 517 m 485 693 q 449 706 463 693 q 436 746 436 718 q 449 787 436 774 q 485 800 463 800 l 496 800 q 531 787 518 800 q 544 746 544 774 q 531 706 544 718 q 496 693 518 693 l 485 693 z "},"ح":{"ha":818,"x_min":57,"x_max":846,"o":"m 456 -422 q 292 -396 365 -422 q 167 -320 219 -369 q 85 -199 114 -271 q 57 -37 57 -128 q 76 85 57 26 q 139 199 96 144 q 251 300 182 253 q 418 389 319 347 l 719 515 l 719 519 l 183 535 l 183 424 l 114 424 l 114 531 q 142 598 114 576 q 222 617 169 619 l 781 592 l 781 461 l 429 318 q 203 176 278 256 q 129 -14 129 97 l 129 -44 q 153 -166 129 -112 q 219 -257 176 -219 q 322 -314 261 -294 q 456 -333 382 -333 q 641 -299 560 -333 q 793 -186 722 -265 l 846 -251 q 671 -382 765 -342 q 456 -422 576 -422 z "},"ﺡ":{"ha":818,"x_min":57,"x_max":846,"o":"m 456 -422 q 292 -396 365 -422 q 167 -320 219 -369 q 85 -199 114 -271 q 57 -37 57 -128 q 76 85 57 26 q 139 199 96 144 q 251 300 182 253 q 418 389 319 347 l 719 515 l 719 519 l 183 535 l 183 424 l 114 424 l 114 531 q 142 598 114 576 q 222 617 169 619 l 781 592 l 781 461 l 429 318 q 203 176 278 256 q 129 -14 129 97 l 129 -44 q 153 -166 129 -112 q 219 -257 176 -219 q 322 -314 261 -294 q 456 -333 382 -333 q 641 -299 560 -333 q 793 -186 722 -265 l 846 -251 q 671 -382 765 -342 q 456 -422 576 -422 z "},"ج":{"ha":818,"x_min":57,"x_max":846,"o":"m 456 -422 q 292 -396 365 -422 q 167 -320 219 -369 q 85 -199 114 -271 q 57 -37 57 -128 q 76 85 57 26 q 139 199 96 144 q 251 300 182 253 q 418 389 319 347 l 719 515 l 719 519 l 183 535 l 183 424 l 114 424 l 114 531 q 142 598 114 576 q 222 617 169 619 l 781 592 l 781 461 l 429 318 q 203 176 278 256 q 129 -14 129 97 l 129 -44 q 153 -166 129 -112 q 219 -257 176 -219 q 322 -314 261 -294 q 456 -333 382 -333 q 641 -299 560 -333 q 793 -186 722 -265 l 846 -251 q 671 -382 765 -342 q 456 -422 576 -422 m 440 -37 q 405 -24 418 -37 q 392 17 392 -11 q 405 57 392 44 q 440 69 418 69 l 451 69 q 487 57 474 69 q 500 17 500 44 q 487 -24 500 -11 q 451 -37 474 -37 l 440 -37 z "}}}
